<svg width="156" height="102" viewBox="0 0 156 102" fill="none" xmlns="http://www.w3.org/2000/svg">
<path d="M42.002 16C40.9361 15.9977 39.8974 16.3285 39.0374 16.9441C38.1774 17.5598 37.5411 18.4281 37.2214 19.4223C36.9016 20.4166 36.9152 21.4847 37.2601 22.4709C37.605 23.4571 38.2631 24.3097 39.1385 24.9042V28.8243C36.5614 29.1883 34.1561 30.0004 31.9799 31.2324L28.8014 26.7803C29.3455 25.3242 29.2023 23.6442 28.2287 22.3002C27.2265 20.9281 25.6803 20.2001 24.1054 20.2001C23.1031 20.2001 22.1009 20.4801 21.2419 21.0961C18.9798 22.6362 18.4071 25.6883 20.0106 27.9003C20.9842 29.2723 22.5304 30.0004 24.1054 30.0004L27.4842 34.7045C26.2529 35.9085 25.2794 37.2525 24.449 38.7366C23.8763 38.5126 23.2749 38.4006 22.6736 38.4006C21.3851 38.4006 20.0965 38.8766 19.0943 39.8006C17.1758 41.7607 17.1758 44.8407 19.0943 46.8008C19.9247 47.5568 20.9269 47.9768 21.9578 48.2008C21.9578 49.7129 22.1582 51.1689 22.4732 52.5689L18.7221 53.549C17.8344 52.8209 16.689 52.4009 15.515 52.4009C15.0855 52.4009 14.6273 52.4009 14.1978 52.5689C12.9146 52.9109 11.8227 53.7371 11.1623 54.866C10.5018 55.9949 10.3268 57.3341 10.6757 58.5891C11.2771 60.8011 13.3674 62.2012 15.515 62.2012C15.9445 62.2012 16.374 62.2012 16.8322 62.0332C18.4643 61.5852 19.6956 60.4091 20.211 58.9531L24.5349 57.8051C25.8234 60.0171 27.5415 61.9772 29.5459 63.6012L26.3961 69.2014C24.8212 69.4254 23.3895 70.2934 22.5591 71.7774C22.247 72.3437 22.052 72.9645 21.9852 73.6045C21.9185 74.2445 21.9813 74.891 22.1701 75.5072C22.3589 76.1235 22.67 76.6973 23.0855 77.196C23.5011 77.6946 24.013 78.1084 24.5921 78.4136C25.1712 78.7188 25.8061 78.9095 26.4606 78.9747C27.115 79.04 27.7762 78.9786 28.4064 78.7939C29.0366 78.6093 29.6234 78.3052 30.1334 77.8988C30.6433 77.4924 31.0664 76.9918 31.3785 76.4255C32.1803 74.9695 32.1517 73.2895 31.4358 71.9174L34.4997 66.4013C36.8191 67.2973 39.3389 67.8013 42.002 67.8013H42.5174C42.1451 68.5293 42.002 69.3694 42.002 70.2654C42.231 72.8414 44.4073 74.8015 47.013 74.8015H47.3853C50.1628 74.5775 52.2245 72.2254 52.0241 69.5374C51.9095 68.1373 51.1937 66.9053 50.1628 66.0933C51.5086 65.5053 52.7972 64.7492 53.9998 63.8812L60.7003 70.4334C60.414 72.0014 60.8721 73.5975 62.0462 74.8015C63.0484 75.7255 64.3369 76.2015 65.6255 76.2015C66.914 76.2015 68.2026 75.7255 69.2048 74.8015C71.1233 72.8414 71.1233 69.7614 69.2048 67.8013C68.2026 66.8773 66.914 66.4013 65.6255 66.4013C65.3391 66.4013 65.0528 66.4013 64.7378 66.4853L58.0373 59.9331C59.4404 58.1131 60.5285 56.041 61.2158 53.801H64.3942C65.0022 54.657 65.8741 55.3006 66.8826 55.6378C67.8911 55.9751 68.9834 55.9883 70.0002 55.6757C71.0169 55.363 71.9049 54.7408 72.5345 53.8998C73.1641 53.0589 73.5024 52.0431 73.5 51.0009C73.5024 49.9587 73.1641 48.9429 72.5345 48.102C71.9049 47.261 71.0169 46.6388 70.0002 46.3261C68.9834 46.0135 67.8911 46.0267 66.8826 46.364C65.8741 46.7012 65.0022 47.3448 64.3942 48.2008H62.0462C62.0462 43.8047 60.6144 39.8006 58.0373 36.4685L61.8744 32.7164C62.1893 32.8004 62.4757 32.8004 62.762 32.8004C64.0506 32.8004 65.3391 32.3244 66.3413 31.4004C68.2599 29.4684 68.2599 26.3603 66.3413 24.4002C65.3391 23.4762 64.0506 23.0002 62.762 23.0002C61.4735 23.0002 60.1849 23.4762 59.1827 24.4002C58.0087 25.6043 57.5505 27.2003 57.8369 28.7683L53.9998 32.5204C51.3655 30.5884 48.2729 29.3003 44.8654 28.8243V24.9042C45.7408 24.3097 46.399 23.4571 46.7438 22.4709C47.0887 21.4847 47.1023 20.4166 46.7826 19.4223C46.4628 18.4281 45.8265 17.5598 44.9665 16.9441C44.1065 16.3285 43.0678 15.9977 42.002 16ZM42.002 62.2012C34.0988 62.2012 27.6847 55.929 27.6847 48.2008C27.6847 40.4726 34.0988 34.2005 42.002 34.2005C49.9051 34.2005 56.3192 40.4726 56.3192 48.2008C56.3192 55.929 49.9051 62.2012 42.002 62.2012ZM37.7068 39.8006C35.3301 39.8006 33.4116 41.6767 33.4116 44.0007C33.4116 46.3248 35.3301 48.2008 37.7068 48.2008C40.0834 48.2008 42.002 46.3248 42.002 44.0007C42.002 41.6767 40.0834 39.8006 37.7068 39.8006ZM47.7289 51.0009C46.154 51.0009 44.8654 52.2609 44.8654 53.801C44.8654 55.341 46.154 56.601 47.7289 56.601C49.3038 56.601 50.5923 55.341 50.5923 53.801C50.5923 52.2609 49.3038 51.0009 47.7289 51.0009Z" fill="#E7742E"/>
<path d="M142.834 60.1C141.357 60.1 140.133 61.324 140.133 62.8H134.586C134.067 57.984 132.165 53.4208 129.111 49.66L133.037 45.736L133.073 45.772C134.118 46.816 135.847 46.816 136.891 45.772C137.936 44.728 137.936 43 136.891 41.956L133.073 38.14C132.565 37.6379 131.879 37.3563 131.164 37.3563C130.45 37.3563 129.764 37.6379 129.255 38.14C128.211 39.184 128.211 40.876 129.219 41.92L125.293 45.844C121.533 42.8171 116.983 40.9307 112.183 40.408V34.9H112.219C113.696 34.9 114.92 33.676 114.92 32.2C114.92 30.724 113.696 29.5 112.219 29.5H106.816C105.34 29.5 104.115 30.724 104.115 32.2C104.115 33.676 105.304 34.864 106.78 34.9V40.48C101.846 40.984 97.3437 42.964 93.6699 45.916L89.7439 41.992L89.78 41.956C90.8245 40.912 90.8245 39.184 89.78 38.14C89.2716 37.6379 88.5857 37.3563 87.871 37.3563C87.1563 37.3563 86.4704 37.6379 85.9621 38.14L82.1442 41.956C81.0997 43 81.0997 44.728 82.1442 45.772C83.1887 46.816 84.8816 46.816 85.9261 45.808L89.852 49.732C86.8208 53.4718 84.9436 58.0123 84.4494 62.8H78.9026C78.9026 61.324 77.678 60.1 76.2013 60.1C74.7246 60.1 73.5 61.324 73.5 62.8V68.2C73.5 69.676 74.7246 70.9 76.2013 70.9C77.678 70.9 78.9026 69.676 78.9026 68.2H84.4494C84.9896 73.132 86.9346 77.596 89.852 81.268L85.9261 85.192C85.6755 84.9459 85.3789 84.7517 85.0531 84.6203C84.7274 84.4889 84.3789 84.423 84.0277 84.4264C83.6764 84.4297 83.3293 84.5023 83.0061 84.6398C82.6829 84.7773 82.3901 84.9772 82.1442 85.228C81.0997 86.272 81.0997 88 82.1442 89.044L85.9621 92.86C87.0066 93.904 88.7355 93.904 89.78 92.86C90.8245 91.816 90.8245 90.088 89.78 89.044L89.7439 89.008L93.6699 85.084C97.3437 88.036 101.81 89.98 106.744 90.52V96.1C105.268 96.136 104.079 97.324 104.079 98.8C104.079 100.276 105.304 101.5 106.78 101.5H112.183C113.66 101.5 114.884 100.276 114.884 98.8C114.884 97.324 113.66 96.1 112.183 96.1H112.147V90.556C117.081 90.052 121.584 88.072 125.257 85.12L129.183 89.044C128.139 90.088 128.175 91.78 129.219 92.824C130.264 93.868 131.993 93.868 133.037 92.824L136.855 89.008C137.9 87.964 137.9 86.236 136.855 85.192C136.347 84.6899 135.661 84.4083 134.946 84.4083C134.231 84.4083 133.545 84.6899 133.037 85.192L133.001 85.228L129.075 81.304C132.121 77.5382 134.021 72.9776 134.55 68.164H140.097C140.097 69.64 141.321 70.864 142.798 70.864C144.275 70.864 145.499 69.64 145.499 68.164V62.764C145.535 61.324 144.311 60.1 142.834 60.1ZM115.821 51.1C117.802 51.1 119.422 52.72 119.422 54.7C119.422 56.68 117.802 58.3 115.821 58.3C113.84 58.3 112.219 56.68 112.219 54.7C112.219 52.72 113.84 51.1 115.821 51.1ZM109.518 69.1C107.537 69.1 105.916 67.48 105.916 65.5C105.916 63.52 107.537 61.9 109.518 61.9C111.499 61.9 113.119 63.52 113.119 65.5C113.119 67.48 111.499 69.1 109.518 69.1ZM103.215 51.1C105.196 51.1 106.816 52.72 106.816 54.7C106.816 56.68 105.196 58.3 103.215 58.3C101.234 58.3 99.6128 56.68 99.6128 54.7C99.6128 52.72 101.234 51.1 103.215 51.1ZM96.9115 69.1C94.9305 69.1 93.3097 67.48 93.3097 65.5C93.3097 63.52 94.9305 61.9 96.9115 61.9C98.8924 61.9 100.513 63.52 100.513 65.5C100.513 67.48 98.8924 69.1 96.9115 69.1ZM103.215 79.9C101.234 79.9 99.6128 78.28 99.6128 76.3C99.6128 74.32 101.234 72.7 103.215 72.7C105.196 72.7 106.816 74.32 106.816 76.3C106.816 78.28 105.196 79.9 103.215 79.9ZM115.821 79.9C113.84 79.9 112.219 78.28 112.219 76.3C112.219 74.32 113.84 72.7 115.821 72.7C117.802 72.7 119.422 74.32 119.422 76.3C119.422 78.28 117.802 79.9 115.821 79.9ZM118.522 65.5C118.522 63.52 120.143 61.9 122.124 61.9C124.105 61.9 125.726 63.52 125.726 65.5C125.726 67.48 124.105 69.1 122.124 69.1C120.143 69.1 118.522 67.48 118.522 65.5Z" fill="#E7742E"/>
</svg>
