<svg width="156" height="102" viewBox="0 0 156 102" fill="none" xmlns="http://www.w3.org/2000/svg">
<path fill-rule="evenodd" clip-rule="evenodd" d="M77.5 8C61.1265 8 50.2052 18.3654 45.9405 29.2378C32.0443 31.2894 19.5 40.773 19.5 56.6124C19.5 73.1556 33.6953 84.2444 50.0676 84.2444H62.8694C64.6009 84.2444 66.0045 82.8319 66.0045 81.0895C66.0045 79.3471 64.6009 77.9346 62.8694 77.9346H50.0676C36.2642 77.9346 25.7703 68.8344 25.7703 56.6124C25.7703 44.4441 35.7722 36.4963 48.5352 35.2761C49.7836 35.1568 50.8413 34.3003 51.2242 33.0986C54.2033 23.7486 63.2955 14.3099 77.5 14.3099C92.5403 14.3099 105.431 24.9494 107.301 42.9534C107.461 44.501 108.719 45.6996 110.264 45.7766C114.654 45.9954 119.52 47.5088 123.209 50.2658C126.82 52.965 129.23 56.7731 129.23 61.8575C129.23 67.1406 127.104 71.0295 123.725 73.6755C120.26 76.3883 115.276 77.9346 109.505 77.9346H92.1306C90.3991 77.9346 88.9955 79.3471 88.9955 81.0895C88.9955 82.8319 90.3991 84.2444 92.1306 84.2444H109.505C116.307 84.2444 122.753 82.4309 127.575 78.6557C132.482 74.8138 135.5 69.0867 135.5 61.8575C135.5 54.4296 131.852 48.8667 126.948 45.2005C122.884 42.1629 117.914 40.3739 113.198 39.7221C110.058 20.1015 95.0791 8 77.5 8ZM75.283 38.161C76.5073 36.9392 78.4924 36.9392 79.7167 38.161L94.3473 52.7616C95.5717 53.9834 95.5717 55.9644 94.3473 57.1862C93.123 58.4081 91.1379 58.4081 89.9136 57.1862L80.6347 47.9264V98.8715C80.6347 100.599 79.231 102 77.4996 102C75.7681 102 74.3644 100.599 74.3644 98.8715V47.9269L65.0861 57.1862C63.8617 58.4081 61.8767 58.4081 60.6523 57.1862C59.428 55.9644 59.428 53.9834 60.6523 52.7616L75.283 38.161Z" fill="#E7742E"/>
</svg>
