<svg width="156" height="102" viewBox="0 0 156 102" fill="none" xmlns="http://www.w3.org/2000/svg">
<path d="M106.88 19H5.12707C2.58324 19 0.5 21.0766 0.5 23.6123V82.0111C0.5 84.5467 2.58324 86.6233 5.12707 86.6233H46.7494V98.9204H35.9576C33.4138 98.9204 31.3306 99.6126 31.3306 100.46C31.3306 101.308 33.4138 102 35.9576 102H76.0423C78.5862 102 80.6694 101.308 80.6694 100.46C80.6694 99.6126 78.5862 98.9204 76.0423 98.9204H65.2506V86.6233H106.873C109.417 86.6233 111.5 84.5467 111.5 82.0111V23.6123C111.5 21.0766 109.424 19 106.88 19ZM107.801 82.6255H4.5106V22.6941H107.801V82.6255Z" fill="#E7742E"/>
<path d="M150.726 37H125.274C122.65 37 120.5 39.0425 120.5 41.5367V97.4634C120.5 99.9575 122.65 102 125.274 102H150.726C153.35 102 155.5 99.9575 155.5 97.4634V41.5367C155.5 39.0425 153.35 37 150.726 37ZM138.004 79.3237C136.256 79.3237 134.823 77.962 134.823 76.3015C134.823 74.6411 136.256 73.2794 138.004 73.2794C139.751 73.2794 141.184 74.6411 141.184 76.3015C141.184 77.962 139.751 79.3237 138.004 79.3237ZM152.32 65.7206H123.688V58.1618H152.32V65.7206ZM152.32 56.6542H123.688V49.0954H152.32V56.6542ZM152.32 47.5809H123.688V40.0221H152.32V47.5809Z" fill="#E7742E"/>
</svg>
