<svg width="156" height="102" viewBox="0 0 156 102" fill="none" xmlns="http://www.w3.org/2000/svg">
<path fill-rule="evenodd" clip-rule="evenodd" d="M30.5 34.8571H57.3571V8H30.5V34.8571ZM50.6428 28.1428H37.2143V14.7143H50.6428V28.1428ZM104.357 58.3573H97.6429V51.643H104.357C107.919 51.643 111.334 50.2282 113.853 47.7099C116.371 45.1916 117.786 41.776 117.786 38.2145C117.786 34.653 116.371 31.2374 113.853 28.7191C111.334 26.2007 107.919 24.786 104.357 24.786H64.0716V18.0717H104.357C109.699 18.0717 114.823 20.1939 118.6 23.9714C122.378 27.7489 124.5 32.8723 124.5 38.2145C124.5 43.5567 122.378 48.6801 118.6 52.4576C114.823 56.2351 109.699 58.3573 104.357 58.3573ZM64.0716 68.4284H90.9286V41.5713H64.0716V68.4284ZM84.2144 61.7141H70.7858V48.2856H84.2144V61.7141ZM90.9284 91.9281H50.6428C45.3006 91.9281 40.1772 89.806 36.3997 86.0285C32.6222 82.2509 30.5 77.1275 30.5 71.7853C30.5 66.4431 32.6222 61.3197 36.3997 57.5422C40.1772 53.7647 45.3006 51.6425 50.6428 51.6425H57.3571V58.3568H50.6428C47.0813 58.3568 43.6657 59.7716 41.1474 62.2899C38.6291 64.8083 37.2143 68.2239 37.2143 71.7853C37.2143 75.3468 38.6291 78.7624 41.1474 81.2807C43.6657 83.7991 47.0813 85.2139 50.6428 85.2139H90.9284V91.9281ZM124.5 102H97.6427V75.1426H124.5V102ZM104.357 95.2853H117.785V81.8568H104.357V95.2853Z" fill="#E7742E"/>
</svg>
