<svg width="156" height="102" viewBox="0 0 156 102" fill="none" xmlns="http://www.w3.org/2000/svg">
<path d="M122.013 22.4894H114.115V3.14894C114.115 2.579 113.888 2.03241 113.485 1.62941C113.081 1.22641 112.533 1 111.962 1H43.0385C42.4672 1 41.9194 1.22641 41.5155 1.62941C41.1115 2.03241 40.8846 2.579 40.8846 3.14894V22.4894H32.9875C26.6531 22.4894 21.5 27.3094 21.5 33.234V76.2128C21.5 76.7827 21.7269 77.3293 22.1308 77.7323C22.5348 78.1353 23.0826 78.3617 23.6538 78.3617H40.8846V99.8511C40.8846 100.421 41.1115 100.968 41.5155 101.371C41.9194 101.774 42.4672 102 43.0385 102H111.962C112.533 102 113.081 101.774 113.485 101.371C113.888 100.968 114.115 100.421 114.115 99.8511V78.3617H131.346C131.917 78.3617 132.465 78.1353 132.869 77.7323C133.273 77.3293 133.5 76.7827 133.5 76.2128V33.234C133.5 27.3094 128.347 22.4894 122.013 22.4894ZM45.1923 5.29787H109.808V22.4894H45.1923V5.29787ZM109.808 97.7021H45.1923V65.4681H109.808V97.7021ZM129.192 74.0638H114.115V63.3192C114.115 62.7492 113.888 62.2026 113.485 61.7996C113.081 61.3966 112.533 61.1702 111.962 61.1702H43.0385C42.4672 61.1702 41.9194 61.3966 41.5155 61.7996C41.1115 62.2026 40.8846 62.7492 40.8846 63.3192V74.0638H25.8077V33.234C25.8077 29.6792 29.0282 26.7872 32.9875 26.7872H122.012C125.972 26.7872 129.192 29.6792 129.192 33.234V74.0638ZM114.119 43.9787C114.119 44.8288 113.866 45.6597 113.393 46.3665C112.919 47.0733 112.247 47.6241 111.459 47.9494C110.672 48.2747 109.806 48.3599 108.971 48.194C108.135 48.0282 107.367 47.6188 106.765 47.0178C106.162 46.4167 105.752 45.6509 105.586 44.8172C105.42 43.9835 105.505 43.1193 105.831 42.334C106.157 41.5487 106.709 40.8774 107.418 40.4052C108.126 39.9329 108.959 39.6809 109.811 39.6809C110.953 39.6823 112.048 40.1355 112.855 40.9412C113.663 41.7469 114.117 42.8393 114.119 43.9787Z" fill="#E7742E"/>
</svg>
