<svg width="156" height="102" viewBox="0 0 156 102" fill="none" xmlns="http://www.w3.org/2000/svg">
<path d="M32.602 30.5L122.402 30.4797C125.218 30.4787 127.5 28.2669 127.5 25.539L127.498 15.9378C127.498 13.2099 125.215 10.999 122.398 11L32.598 11.0203C29.7822 11.0213 27.5 13.2331 27.5 15.961L27.502 25.5612C27.503 28.2891 29.7862 30.5 32.602 30.5ZM116.695 17.9893C118.264 17.9893 119.535 19.2213 119.535 20.7413C119.535 22.2613 118.264 23.4933 116.695 23.4933C115.126 23.4933 113.854 22.2613 113.854 20.7413C113.854 19.2213 115.126 17.9893 116.695 17.9893ZM105.838 17.9912C107.407 17.9912 108.679 19.2232 108.679 20.7432C108.679 22.2632 107.407 23.4953 105.838 23.4953C104.269 23.4953 102.997 22.2632 102.997 20.7432C102.997 19.2232 104.269 17.9912 105.838 17.9912ZM94.9819 17.9941C96.5509 17.9941 97.8227 19.2261 97.8227 20.7461C97.8227 22.2661 96.5509 23.4982 94.9819 23.4982C93.4129 23.4982 92.1412 22.2661 92.1412 20.7461C92.1412 19.2261 93.4129 17.9941 94.9819 17.9941ZM35.4677 20.434C35.4677 19.0996 36.5938 18.0076 37.9713 18.0076L79.6351 17.998C81.0125 17.998 82.1397 19.0889 82.1397 20.4234V21.0756C82.1397 22.4091 81.0125 23.5011 79.636 23.502L37.9723 23.5117C36.5948 23.5117 35.4677 22.4207 35.4677 21.0863V20.434Z" fill="#E7742E"/>
<path d="M122.398 34.833L32.598 34.8533C29.7822 34.8543 27.5 37.066 27.5 39.7938L27.502 49.3945C27.503 52.1222 29.7862 54.333 32.602 54.333L122.402 54.3127C125.218 54.3118 127.5 52.1 127.5 49.3723L127.498 39.7725C127.498 37.0428 125.215 34.832 122.398 34.833ZM82.1397 44.9072C82.1397 46.2416 81.0125 47.3335 79.636 47.3335L37.9723 47.3431C36.5948 47.3431 35.4677 46.2522 35.4677 44.9178V44.2656C35.4677 42.9312 36.5938 41.8393 37.9713 41.8393L79.6351 41.8297C81.0126 41.8297 82.1397 42.9206 82.1397 44.255V44.9072ZM94.9819 47.3306C93.4129 47.3306 92.1412 46.0986 92.1412 44.5787C92.1412 43.0587 93.4129 41.8268 94.9819 41.8268C96.5509 41.8268 97.8227 43.0587 97.8227 44.5787C97.8227 46.0986 96.5509 47.3306 94.9819 47.3306ZM105.838 47.3277C104.269 47.3277 102.997 46.0957 102.997 44.5758C102.997 43.0558 104.269 41.8239 105.838 41.8239C107.407 41.8239 108.679 43.0558 108.679 44.5758C108.679 46.0957 107.407 47.3277 105.838 47.3277ZM116.695 47.3248C115.126 47.3248 113.854 46.0928 113.854 44.5729C113.854 43.0529 115.126 41.821 116.695 41.821C118.264 41.821 119.535 43.0529 119.535 44.5729C119.535 46.0928 118.264 47.3248 116.695 47.3248Z" fill="#E7742E"/>
<path d="M122.398 58.667L32.598 58.6873C29.7822 58.6882 27.5 60.9001 27.5 63.628L27.502 73.2282C27.503 75.9561 29.7862 78.167 32.602 78.167L122.402 78.1467C125.218 78.1457 127.5 75.9339 127.5 73.206L127.498 63.6058C127.498 60.8779 125.215 58.667 122.398 58.667ZM82.1397 68.7426C82.1397 70.0761 81.0125 71.1681 79.636 71.169L37.9723 71.1787C36.5948 71.1787 35.4677 70.0877 35.4677 68.7533V68.101C35.4677 66.7666 36.5938 65.6746 37.9713 65.6746L79.6351 65.665C81.0125 65.665 82.1397 66.7559 82.1397 68.0904V68.7426ZM94.9819 71.1652C93.4129 71.1652 92.1412 69.9331 92.1412 68.4131C92.1412 66.8931 93.4129 65.6611 94.9819 65.6611C96.5509 65.6611 97.8227 66.8931 97.8227 68.4131C97.8227 69.9331 96.5509 71.1652 94.9819 71.1652ZM105.838 71.1632C104.269 71.1632 102.997 69.9312 102.997 68.4112C102.997 66.8912 104.269 65.6592 105.838 65.6592C107.407 65.6592 108.679 66.8912 108.679 68.4112C108.679 69.9312 107.407 71.1632 105.838 71.1632ZM116.695 71.1603C115.126 71.1603 113.854 69.9283 113.854 68.4083C113.854 66.8883 115.126 65.6563 116.695 65.6563C118.264 65.6563 119.535 66.8883 119.535 68.4083C119.535 69.9283 118.264 71.1603 116.695 71.1603Z" fill="#E7742E"/>
<path d="M122.398 82.5L32.598 82.5203C29.7822 82.5213 27.5 84.7331 27.5 87.461L27.502 97.0612C27.503 99.7891 29.7862 102 32.602 102L122.402 101.98C125.218 101.979 127.5 99.7669 127.5 97.039L127.498 87.4378C127.498 84.7099 125.215 82.499 122.398 82.5ZM82.1397 92.5756C82.1397 93.9091 81.0125 95.0011 79.636 95.002L37.9723 95.0117C36.5948 95.0117 35.4677 93.9207 35.4677 92.5863V91.934C35.4677 90.5995 36.5938 89.5076 37.9713 89.5076L79.6351 89.498C81.0125 89.498 82.1397 90.5889 82.1397 91.9234V92.5756ZM94.9819 94.9982C93.4129 94.9982 92.1412 93.7661 92.1412 92.2461C92.1412 90.7261 93.4129 89.4941 94.9819 89.4941C96.5509 89.4941 97.8227 90.7261 97.8227 92.2461C97.8227 93.7661 96.5509 94.9982 94.9819 94.9982ZM105.838 94.9953C104.269 94.9953 102.997 93.7632 102.997 92.2432C102.997 90.7232 104.269 89.4912 105.838 89.4912C107.407 89.4912 108.679 90.7232 108.679 92.2432C108.679 93.7632 107.407 94.9953 105.838 94.9953ZM116.695 94.9933C115.126 94.9933 113.854 93.7613 113.854 92.2413C113.854 90.7213 115.126 89.4893 116.695 89.4893C118.264 89.4893 119.535 90.7213 119.535 92.2413C119.535 93.7613 118.264 94.9933 116.695 94.9933Z" fill="#E7742E"/>
</svg>
