<svg width="156" height="102" viewBox="0 0 156 102" fill="none" xmlns="http://www.w3.org/2000/svg">
<path d="M73.0938 39.1669C72.1538 40.2479 71.625 41.7401 71.625 43.2382C71.625 44.0173 71.3155 44.7645 70.7646 45.3154C70.2137 45.8662 69.4666 46.1757 68.6875 46.1757C67.9084 46.1757 67.1613 45.8662 66.6104 45.3154C66.0595 44.7645 65.75 44.0173 65.75 43.2382C65.75 40.4594 66.6959 37.5395 68.6875 35.2835C70.7261 32.9687 73.74 31.4882 77.5 31.4882C81.26 31.4882 84.2739 32.9687 86.3125 35.2835C88.3041 37.5454 89.25 40.4535 89.25 43.2382C89.25 46.117 88.5685 48.3495 87.4757 50.2295C86.5181 51.8686 85.2667 53.167 84.2739 54.2068L84.0271 54.4595C82.9344 55.6051 82.0942 56.5392 81.4774 57.7142C80.8899 58.8363 80.4375 60.3227 80.4375 62.5846C80.4375 63.3637 80.128 64.1108 79.5771 64.6617C79.0262 65.2126 78.2791 65.5221 77.5 65.5221C76.7209 65.5221 75.9738 65.2126 75.4229 64.6617C74.872 64.1108 74.5625 63.3637 74.5625 62.5846C74.5625 59.4591 75.2087 57.021 76.2721 54.9882C77.312 53.0083 78.6809 51.5572 79.7854 50.3998L79.9146 50.2647C81.0191 49.1073 81.8064 48.2848 82.3997 47.2685C82.9579 46.3109 83.375 45.1006 83.375 43.2382C83.375 41.7401 82.8521 40.242 81.9062 39.1669C81.0074 38.1505 79.615 37.3632 77.5 37.3632C75.385 37.3632 73.9926 38.1505 73.0938 39.1669ZM77.5 79.7337C78.0527 79.7546 78.604 79.6638 79.1209 79.4667C79.6377 79.2696 80.1094 78.9702 80.5079 78.5865C80.9064 78.2029 81.2233 77.7428 81.4398 77.2337C81.6563 76.7247 81.7679 76.1773 81.7679 75.6241C81.7679 75.071 81.6563 74.5235 81.4398 74.0145C81.2233 73.5055 80.9064 73.0454 80.5079 72.6617C80.1094 72.2781 79.6377 71.9787 79.1209 71.7816C78.604 71.5845 78.0527 71.4937 77.5 71.5146C76.4093 71.5146 75.3633 71.9479 74.592 72.7191C73.8208 73.4903 73.3875 74.5364 73.3875 75.6271C73.3875 76.7178 73.8208 77.7638 74.592 78.535C75.3633 79.3063 76.4093 79.7396 77.5 79.7396V79.7337ZM30.5001 54.9882C30.5026 44.7177 33.8693 34.7307 40.0852 26.5548C46.3011 18.3788 55.024 12.464 64.9198 9.71493C74.8156 6.96588 85.3395 7.53395 94.8818 11.3323C104.424 15.1306 112.46 21.95 117.759 30.7476C123.059 39.5452 125.331 49.8365 124.228 60.0476C123.125 70.2588 118.708 79.8275 111.651 87.2904C104.595 94.7532 95.2888 99.6993 85.1555 101.372C75.0221 103.045 64.6197 101.353 55.5393 96.5538L34.1543 101.9C33.6621 102.024 33.1463 102.018 32.6571 101.883C32.1679 101.748 31.722 101.489 31.3628 101.13C31.0037 100.771 30.7436 100.326 30.6078 99.837C30.472 99.348 30.4653 98.8322 30.5882 98.3398L35.9344 76.9489C32.3548 70.1831 30.4888 62.6427 30.5001 54.9882ZM77.5 13.8633C70.323 13.8611 63.2703 15.7372 57.043 19.3051C50.8157 22.873 45.6305 28.0085 42.0028 34.2012C38.3751 40.3939 36.4312 47.4281 36.3643 54.6048C36.2974 61.7815 38.1098 68.8508 41.6214 75.1101C41.9902 75.763 42.0953 76.5323 41.9152 77.2603L37.4737 95.0145L55.2279 90.573C55.9559 90.3929 56.7252 90.498 57.3781 90.8668C62.861 93.9384 68.975 95.7124 75.2504 96.0528C81.5258 96.3932 87.7957 95.2908 93.5786 92.8302C99.3616 90.3697 104.504 86.6165 108.61 81.8589C112.716 77.1014 115.678 71.4659 117.267 65.3855C118.855 59.305 119.03 52.9413 117.776 46.783C116.522 40.6248 113.873 34.8358 110.033 29.8607C106.193 24.8856 101.264 20.8568 95.6245 18.0836C89.9849 15.3104 83.7846 13.8667 77.5 13.8633Z" fill="#E7742E"/>
</svg>
