<svg width="144" height="194" viewBox="0 0 144 194" fill="none" xmlns="http://www.w3.org/2000/svg">
<g clip-path="url(#clip0_796_10506)">
<path d="M138.102 98.5921H132.281L132.634 100.368L132.103 100.723L129.104 101.434L127.871 101.079L126.105 99.8337L125.755 98.7712L127.341 97.5264L131.398 98.5921L129.459 91.13L125.926 91.3091L121.872 92.9061H120.284V83.6685L120.107 78.6958L119.934 73.1859L120.99 74.0748L124.166 72.6546L125.578 73.0102L127.693 70.1657L128.754 71.2342L132.281 70.3447L131.753 66.0793L128.576 64.6589H127.166L128.398 61.4623L122.578 63.5936L119.757 66.2586H119.051L118.521 64.1272L115.696 60.9281L111.993 57.3761L98.5879 45.6491L93.6479 41.2078L91.3543 38.9007L89.2375 37.301L85.0064 36.056L78.8303 35.8801L73.3652 34.6353L66.1316 31.7939L62.2524 30.0153L57.8429 30.1942L58.1919 24.5081L59.6029 24.3321L60.3085 20.422L63.8379 20.0671L62.6021 14.5605L59.7805 12.7841L56.0766 14.381L53.4327 13.4941L48.6672 15.0916L49.5504 17.7572L45.1409 18.8254L48.6672 32.1493L47.0791 32.8595L43.7305 34.9908L40.9071 37.301L38.7898 39.0765L36.1434 40.1422L32.6153 40.4975L28.5584 41.9212L25.9133 43.1628L24.3246 42.0974L22.209 34.6353L20.7966 33.7489V32.6806L22.9142 30.7252L22.385 28.9495L24.1482 29.1288L25.3842 25.0397L24.503 22.198L24.6793 20.9568L27.6765 19.3569L27.853 16.3362L26.6202 15.0916V14.9152L31.5575 13.3153V12.4296L34.9091 11.3636L35.2619 9.94322H37.3795V5.14367L30.1465 2.65721L28.3833 -0.184418H23.2669L23.0906 1.94607L16.9172 4.25736L17.0923 6.03304L12.8591 9.94325L13.9184 13.1394H13.0368L8.97807 12.9605L5.62807 15.6258L8.09771 20.0671L5.4518 20.6015L3.86298 22.198L5.80419 25.5739L6.86224 25.3979L8.09771 28.0603L10.2141 28.9495L11.9775 27.7079L13.0368 28.4186L11.9775 30.5492L12.5064 33.2148V33.3906L10.3904 33.9254L12.6827 40.3212L13.3895 40.1422V44.2283L15.6816 46.7175L12.1537 47.2488L6.86224 50.8037L4.92137 57.7314L6.1566 60.2177L7.74411 62.883L7.0385 65.014L7.9205 65.5483V67.6794L10.9195 68.921L14.0948 68.2135L15.3291 65.193L16.5644 65.014L15.6816 68.0345L12.8591 75.6752L9.33081 73.7205L7.39137 75.8516L8.09771 77.6273L7.9205 79.4028L4.56862 83.3132L1.39429 84.0237L1.56949 89.3543L7.0385 87.5782L9.5085 88.1093L11.6248 86.3338L11.8012 94.1504L12.3316 97.5264L14.2708 104.277L16.2123 108.54L20.6203 115.291L21.5037 116.712V118.843L19.7388 121.863L20.0914 123.997L20.7966 124.708L20.2679 125.064L18.681 123.642L16.0342 123.463V121.687L11.2719 121.332L9.86137 123.108L8.27325 122.574L6.68573 126.663L7.21486 127.194L6.50937 127.905L5.62807 128.261L3.6866 131.459L3.86298 135.012L7.39137 139.988L10.3904 138.208L15.3291 143.362L17.7991 141.407V140.339L18.681 141.407L21.5037 139.988L23.6198 141.228L25.7369 136.076L26.2658 128.792L27.1479 128.97L31.3811 135.898C35.0855 141.228 38.9662 146.559 42.8472 151.89L45.3185 153.842L48.3176 154.908L50.256 155.797L49.1976 157.396V161.128L50.9614 162.372L52.5495 163.438L52.0191 165.569L50.256 165.39L49.5504 164.68L45.1409 165.035L43.1995 167.877L39.3191 169.301L35.9674 171.965V179.958L40.2021 178.538V178.358L42.6691 179.427L43.5521 178.893L44.4353 179.248L45.6687 179.427L46.3737 181.024L47.9624 181.2L49.1976 182.268L47.2568 183.334L47.4345 187.065L50.6087 188.662L54.3101 187.065L56.4294 188.309L64.0125 193.816L65.9565 188.841L66.6621 184.399L65.2509 183.513L65.4229 182.623L61.8965 178.714L64.3678 166.279L65.7788 165.213L68.4226 164.145L67.3669 161.659L71.0709 161.838L76.3643 162.015L80.2409 162.193L82.8905 162.015L84.8281 160.77L89.9431 157.928L95.7638 153.666L100.704 149.756L105.644 145.315L108.644 142.294L113.759 136.787L117.641 132.88L119.051 130.039L119.757 126.128L119.051 122.043L120.107 122.929L122.93 123.108L124.694 116.888L127.166 113.337L129.104 111.561L137.041 110.316L137.924 107.654L139.513 107.474L143.394 104.277L138.102 98.5921Z" fill="#E7742E"/>
<path fill-rule="evenodd" clip-rule="evenodd" d="M11.8012 85.268L11.2724 84.9133L11.8012 84.2027V85.268ZM25.9134 44.9418L22.9142 43.1628L20.797 35.7011L19.2099 34.6353V31.7939L21.1498 30.1942L20.6207 30.7252L16.2123 25.3979V25.2189L10.7415 18.4701L8.62525 15.2706L7.74407 15.9807L9.86134 19.7121L11.4484 20.6015L10.9195 22.0218L9.33078 21.3117L6.33198 22.0218L5.80437 22.5536L6.68567 23.9772L7.92045 23.7978L9.33078 26.8187L10.0376 26.9972L12.1537 25.7531L15.1527 27.8839L13.7423 30.7252L14.0948 33.2148L13.7423 34.8143L12.5064 35.1669L13.7423 38.3664L15.3291 38.0112L16.0346 39.2559L14.9765 40.3212V43.697L16.9179 45.6491L20.9733 45.8281L22.3851 47.6039L19.0338 53.4659L16.5652 53.8213L15.8583 53.4659L16.3871 48.3144L12.6827 48.8486L8.098 51.6899L6.68567 57.5522L9.15475 56.6654L9.68483 57.9103L7.56758 59.3311L9.50847 62.7038L8.97836 64.1272L9.68483 64.4823L9.50847 66.6139L10.9195 67.3241L11.096 65.0139L12.6827 65.193L12.8591 63.9482C12.8591 63.7725 12.8591 63.5935 13.0368 63.5935L13.9184 62.7038L14.0948 62.5274L17.9755 61.4623L19.3862 61.1068C19.5627 61.1068 19.739 61.1068 19.739 61.1068L21.3275 61.9933L28.735 64.4823H28.9126L31.9104 65.9035L32.7937 57.9103L31.7341 53.2898L30.8521 48.3144L27.3245 45.4729C27.3245 45.4729 27.148 45.2938 27.3245 45.1176C27.5009 44.9418 27.6766 44.9418 27.6766 45.1176L31.205 47.9589L31.3812 48.1382L32.4408 53.2898L33.3208 57.9103V58.0864L32.6154 66.0793L43.5531 70.879L43.7307 71.0551L40.5532 64.8377L37.5559 57.9103L35.7912 53.4659V53.6451L33.4985 47.783L30.4994 44.4075V44.2282L29.9704 43.1628L29.0889 43.3418L25.9134 44.9418ZM22.5618 98.7712H28.5585C28.735 98.7712 28.9126 98.9476 28.9126 99.126V100.012H30.3233L29.9704 98.9476L25.737 95.3928L22.5618 98.7712ZM30.8521 99.8337L38.4359 96.4611V96.2847V96.1059L38.2609 95.5716C38.0851 95.3928 38.2609 95.2162 38.4359 95.2162L49.0202 90.2438C49.1985 90.2438 49.1985 90.2438 49.3731 90.2438L50.6089 90.7751L53.9608 89.3543H55.3713L55.8985 87.7543L56.0769 87.5782L54.6659 84.558H53.2554H53.0778L48.1402 82.7817H45.3187L44.2579 83.3132V83.4897L38.4359 83.6685L37.7304 86.8651C37.7304 87.0443 37.5559 87.0443 37.5559 87.2229L35.7912 87.5782L35.4384 90.0649V90.2438L33.4985 92.7302H33.3208L30.3233 93.7953H30.1469L27.6766 93.2612L26.0898 94.8609L30.3233 98.4133L30.4994 98.5921L30.8521 99.8337ZM81.1251 41.5631L79.1861 47.6039L80.775 48.1382L80.9469 47.6039C80.9469 47.4279 80.9469 47.4279 80.9469 47.4279L83.2405 42.2765L82.1853 41.5631H81.1251ZM62.0745 37.301L61.8974 40.6764V47.4279L65.9569 49.7353L66.6625 48.4934C66.6625 48.4934 66.8375 48.4934 66.8375 48.3144L75.66 46.8936H75.8319L78.6565 47.6039L80.5974 41.5631L74.9519 41.2078L70.0111 40.6764H69.8367L66.307 37.4795L62.0745 37.301ZM68.9535 66.6139H65.4232C65.2512 66.6139 65.0744 66.4346 65.0744 66.4346L64.7183 63.059L62.6025 61.1069V60.9281L61.3697 58.7966L60.3088 61.4623V63.7725L64.896 68.7448C65.0744 68.7448 65.0744 68.7448 65.0744 68.921L66.4848 70.3447L68.0728 70.6999L68.9535 69.6341V66.6139ZM91.0052 79.7611L91.3549 81.3613L93.2988 81.8927L95.7644 80.827L96.1202 79.0479L91.0052 79.7611ZM87.8285 72.6546L87.4781 70.879L84.1238 68.2135L83.2405 70.5203L83.5958 73.3652L84.1238 74.4313L87.8285 72.6546ZM95.4147 125.95L94.5316 116.357L93.1213 109.074V111.205L93.2988 114.402V114.581L92.2373 117.601C92.4158 117.777 92.5907 117.777 92.4158 117.956C92.2372 118.136 92.2373 118.136 92.2373 118.136L92.0604 121.863V122.043L91.3549 123.108V125.419C91.3549 125.419 91.3549 125.419 91.1802 125.595L89.5941 127.55L91.3549 127.015H91.5331L92.7659 128.085L95.4147 125.95ZM20.797 29.1288L20.4442 28.0603L21.1498 27.1738L22.9142 27.3526L23.6198 25.0398L22.7378 22.198L23.4434 19.891L26.0898 18.2915L26.2661 16.8704L25.0318 15.6258L25.2065 13.6712L29.9704 12.2499V11.1847L33.4985 10.119L34.0265 8.34307H35.7912V6.38833L29.0889 4.07845L27.5009 1.41174H24.6794L24.5031 3.0125L18.681 5.32251V6.74363L14.7999 10.4735L15.3291 12.2499L22.7378 11.3636L23.6198 13.6711V15.6258L20.6207 17.5806L17.9755 15.9807L16.5652 17.2259L15.5056 14.5605L13.0368 14.7395L9.50847 14.5605H9.33078L11.6248 17.7572L17.0923 24.6873L20.797 29.1288ZM13.7423 65.014L14.2712 63.7725L14.0948 63.9482L13.7423 64.3035V65.014ZM14.4472 63.7725L18.681 62.883L17.2703 68.5686L14.4472 76.0305L13.9184 78.1616L9.68483 75.6752L9.15475 76.2068L9.68483 77.4509L9.50847 80.1167L5.27405 84.734L2.98172 85.268V87.2229L7.03845 85.9785L9.15475 86.3338L9.86134 85.8019L7.92045 84.3788L9.50847 82.4234L10.7415 83.1369L13.0368 79.5822L13.9184 80.2927L13.2132 86.1548V86.3338C13.3895 86.1548 13.3895 86.3338 13.3895 86.3338L16.7399 87.0443L25.737 94.5056L27.3245 92.7302C27.5009 92.7302 27.6766 92.7302 27.6766 92.7302L30.3233 93.2612L32.9681 92.1962L34.9095 89.8856L35.2623 87.399C35.2623 87.2229 35.4384 87.2229 35.4384 87.0443L37.2019 86.689L37.9084 83.4897L31.9104 81.8927C31.7341 81.8927 31.7341 81.8927 31.7341 81.5374C31.7341 81.3613 31.9104 81.3613 32.088 81.3613L38.0851 82.9583L39.1427 78.5168V78.3405L44.6108 72.4757L43.2003 71.9416H43.0251L37.9084 69.6341L38.0851 71.0551C38.0851 71.2342 37.9084 71.4105 37.7304 71.4105L35.6147 71.5892H35.4384L34.5569 71.0551L33.4985 72.2996L33.3208 72.4757L27.148 73.1859H26.9718L23.4434 72.2996L22.3851 74.4313C22.3851 74.4313 22.2091 74.6069 22.0327 74.6069H20.0915H19.9151L16.9179 72.831C16.7399 72.831 16.5652 72.6546 16.7399 72.4757C16.9179 72.1205 17.0923 72.2996 17.0923 72.2996L20.0915 73.8959H21.8552L22.9142 71.7652C23.0907 71.5892 23.267 71.5892 23.267 71.5892L27.148 72.6546L33.1464 71.7652L34.3804 70.3447H34.7331L35.6147 71.0551L37.3797 70.879L37.2019 69.2794L28.3834 65.5483L20.9733 62.883L19.3862 62.1725L18.3284 62.5274L14.6236 63.5936L14.4472 63.7725ZM13.2132 86.8651L13.3895 93.9716L13.9184 97.1706L15.8583 103.746L16.9179 106.409L22.2091 104.633L21.6803 99.3019H18.681L15.6818 99.8337C15.6818 99.8337 15.5056 99.8337 15.3291 99.6579C15.3291 99.3019 15.5056 99.3019 15.6818 99.3019L18.5046 98.7712H18.681H21.6803L25.3849 95.0377L16.5652 87.5782L13.3895 86.8651C13.2132 86.8651 13.2132 86.8651 13.2132 86.8651ZM22.7378 104.454L24.149 104.099L31.205 102.499L31.0285 101.967L30.4994 100.547H28.735C28.5585 100.547 28.3834 100.368 28.3834 100.368V99.481L22.2091 99.3019L22.7378 104.454ZM31.7341 102.323L40.0247 99.481L39.6719 98.7712L38.79 96.9922L31.0285 100.368L31.5576 101.792C31.5576 101.967 31.5576 101.967 31.5576 101.967L31.7341 102.323ZM40.5532 99.3019L49.5506 96.461L54.844 93.6196L59.076 91.485H59.2536H60.4864L60.6641 89.7096L60.8393 89.5306L60.3088 89.1754L56.6041 88.2888C56.4297 88.2888 56.4297 88.2888 56.4297 88.2888L55.724 89.7096C55.724 89.8856 55.549 89.8856 55.549 89.8856L54.1385 90.0648L50.6089 91.3091H50.434L49.1985 90.7751L38.79 95.5715L38.9664 96.1059L40.2023 98.5921L40.5532 99.3019ZM61.0137 88.9989L61.7192 87.2229L62.78 85.444L56.9601 80.2927L55.0185 84.2027L56.7817 87.7543L60.4864 88.6438L61.0137 88.9989ZM56.6041 79.9374L49.0202 74.2542L45.1412 72.6546L39.6719 78.6958L38.6136 83.1369L44.0803 82.7817L45.1412 82.2476H45.3187H48.3179L53.2554 83.8474H54.4882L56.6041 79.9374ZM17.2703 107.298L17.6231 107.83L22.0327 114.402L23.0907 116.357L22.9142 119.201L21.3275 122.222L21.5038 123.285L23.7961 125.064L19.9151 127.015L17.9755 125.239L16.0346 125.064L15.6818 126.663H14.4472V123.108H11.9775L11.096 124.173L12.6827 125.064L11.4484 126.663L10.0376 126.128V124.708L9.15475 124.529L8.44947 126.305L9.33078 127.373L7.39132 129.505L6.68567 129.684L5.27405 131.811L5.45174 134.477L7.03845 136.787L9.15475 135.898L12.1537 133.057L14.7999 129.86C14.7999 129.86 14.9765 129.684 14.9765 129.86H17.445L19.739 128.085V127.905L23.267 126.305H23.4434L28.2061 125.95H28.5585L29.0889 124.708L29.2638 124.529L30.6757 122.929L30.8521 122.753L33.8516 121.332L34.5569 119.377L34.7331 119.201L37.2019 116.888L34.0265 112.981V112.805L32.7937 109.96L31.3812 103.567L26.2661 104.808L25.3849 110.315L28.5585 120.443L29.0889 120.622C29.2638 120.798 29.2638 120.977 29.2638 121.153L27.6766 123.463C27.5009 123.463 27.5009 123.642 27.148 123.463C26.9718 123.285 27.148 123.108 27.148 123.108L28.5585 120.977L28.2061 120.798C28.2061 120.798 28.031 120.798 28.031 120.622L25.0318 110.675L24.325 110.315L22.0327 112.448C22.0327 112.448 21.8552 112.626 21.6803 112.27C21.5038 112.094 21.6803 112.094 21.6803 111.915L23.9726 109.784C24.149 109.784 24.325 109.784 24.325 109.784L24.8538 109.96L25.5607 104.808L24.325 105.168L17.2703 107.298ZM7.39132 137.322L7.92045 137.853L10.5667 136.076L15.5056 141.228L16.2123 140.518L16.3871 137.676H18.1507L19.2099 139.453L21.5038 138.208L22.9142 138.918L24.149 135.722L24.6794 127.015L27.3245 127.373H27.6766L28.2061 126.663L23.4434 126.838L20.0915 128.439L17.7991 130.391C17.6231 130.391 17.6231 130.57 17.445 130.57L15.1527 130.391L12.6827 133.59H12.5064L9.50847 136.253V136.431L7.39132 137.322ZM37.5559 116.535L42.142 112.448L45.3187 109.606L43.9083 108.185V108.009L43.2003 105.874L41.9642 103.033L40.5532 100.547L31.9104 103.389L33.3208 109.784L34.3804 112.626L37.5559 116.535ZM45.8466 109.251L47.257 108.009L47.9627 107.474L46.5516 106.232L44.2579 107.653L44.4355 107.83L45.8466 109.251ZM48.3179 107.119L50.2563 105.698C50.434 105.519 50.9617 105.519 50.9617 105.698L52.725 108.185L54.6659 108.364H54.844L56.2545 106.587L57.4873 104.988L53.9608 103.033L53.0778 101.079L50.6089 101.792L46.9043 105.698L48.3179 107.119ZM57.8432 104.454L60.4864 100.723H60.6641L62.4273 99.3019L62.6025 98.7712L61.3697 97.8792L59.2536 99.481L57.6649 100.902L55.8985 102.144L55.1936 103.033L57.8432 104.454ZM61.0137 97.5264C60.8393 97.5264 60.8393 97.3475 60.8393 97.3475L60.3088 93.6197V93.4404V92.5506H59.4281L55.1936 94.6847L50.0785 97.5264H49.9008L41.0823 100.368L42.4973 102.678V102.854L43.7307 105.698L44.0803 107.119L46.3739 105.519L50.2563 101.434V101.257L53.2554 100.547C53.2554 100.368 53.433 100.547 53.6049 100.723L54.3104 102.678L54.844 102.854L55.549 101.792V101.613L57.3097 100.368L58.8977 99.126L61.0137 97.5264ZM28.5585 128.085L32.4408 134.656L33.6752 133.946L36.8492 131.811L37.5559 131.28L38.2609 125.419L38.4359 125.239L39.6719 123.642L39.8484 123.463L40.7297 122.574L39.3192 121.687L39.1427 121.509L37.7304 117.956L35.6147 119.911L34.7331 121.863C34.7331 121.863 34.5569 122.043 34.3804 122.222L31.3812 123.642L30.1469 125.239L29.7942 125.95L28.5585 128.085ZM41.2588 122.222L42.6693 120.977L47.7875 116.357L49.9008 114.225L46.1987 110.315L42.8474 113.16L38.0851 117.422L39.6719 121.153L41.2588 122.222ZM50.2563 113.694L50.9617 112.981L52.1945 111.561L49.5506 109.074L48.6682 108.185L47.9627 108.895L46.5516 109.96L50.2563 113.694ZM52.5498 111.03L53.9608 109.429L52.3721 109.251L52.0194 109.074L50.434 106.941L49.1985 107.83L49.9008 108.54L52.5498 111.03ZM32.6154 135.012L37.3797 141.762L39.8484 145.139L41.0823 144.249L44.0803 140.697L46.1987 137.853L48.1402 133.057L50.2563 128.97L50.434 128.615L45.6689 127.55C45.6689 127.55 45.6689 127.373 45.4906 127.373L44.7883 126.483L44.0803 127.373C44.0803 127.55 44.0803 127.55 44.0803 127.55L37.5559 132.525V132.701L34.204 135.012L33.1464 135.545L32.6154 135.012ZM50.7841 128.085L53.433 124.173L56.0769 120.088L53.9608 118.136L52.9001 117.246L50.0785 120.443L45.1412 125.95L46.0243 127.015L50.7841 128.085ZM56.4297 119.556L58.0178 116.712L58.1922 116.535L56.0769 115.471C56.0769 115.471 56.0769 115.471 55.8985 115.291L55.724 115.115L55.3713 114.58L53.2554 116.712L54.3104 117.777L56.4297 119.556ZM58.3706 116.002L59.2536 114.225V112.448L56.6041 114.936L58.3706 116.002ZM59.2536 111.561V111.03L55.8985 114.047L55.724 114.225L56.0769 114.581L59.2536 111.561ZM40.5532 146.024L41.2588 147.094L43.9083 150.645L46.0243 152.421L49.0202 153.486L52.5498 155.086L50.7841 157.928V160.417L51.8444 161.127L54.3104 162.725L53.2554 167.344L49.5506 166.811L49.0202 166.279L46.0243 166.634L44.2579 169.3L40.0247 170.72L37.5559 172.851V177.648L38.9664 177.292L39.4955 176.227L42.4973 177.648L43.2003 177.117L44.7883 177.648L46.9043 178.003L47.4347 179.427L48.6682 179.603L50.7841 181.557L50.9617 183.334L48.8458 184.399L49.0202 185.999L50.6089 186.886L54.4882 185.289L57.3097 187.065L57.6649 187.24L61.8974 165.035C61.8974 164.858 61.8974 164.858 61.8974 164.858L63.6632 161.483L63.1329 159.528C63.1329 159.528 63.1329 159.352 63.1329 159.173L63.6632 157.576L64.0128 154.021L64.5439 151.535H62.0745C61.8974 151.535 61.7192 151.535 61.7192 151.355L62.6025 144.784L64.7183 137.497V137.322L65.4232 135.545L65.6016 134.301L62.78 134.125H62.6025L56.9601 131.28L56.0769 133.057C56.0769 133.235 55.8985 133.412 55.724 133.235C55.3713 133.057 55.549 132.88 55.549 132.88L56.4297 131.104L54.1385 130.57H53.9608L51.4889 129.148L51.1394 129.684L49.0202 133.412L47.257 138.208V138.387L44.9635 141.407L44.0803 142.294L45.4906 143.362L47.7875 146.204L54.844 149.045C54.844 149.045 55.0185 149.045 55.0185 149.4C54.844 149.58 54.6659 149.58 54.4882 149.58L47.6098 146.735C47.4347 146.559 47.4347 146.559 47.4347 146.559L45.1412 143.715L43.7307 142.829L41.786 144.959L40.5532 146.024ZM64.7183 151L65.0744 149.935L66.1319 145.848L63.1329 145.139L62.4273 151H64.7183ZM66.307 145.315V145.139L67.8951 139.808L68.423 134.477H66.1319L65.9569 135.722L65.2512 137.676L63.1329 144.607L66.307 145.315ZM68.423 133.946L68.2505 129.684H64.896L62.0745 130.746H61.8974L58.3706 128.792L57.3097 130.746L62.78 133.59L68.423 133.946ZM68.2505 129.149V128.615H65.0744C64.896 128.615 64.896 128.615 64.896 128.615L60.1337 125.774L58.7232 128.261H58.5482L61.8974 130.215L64.896 129.149H68.2505ZM68.2505 127.905V126.305L64.896 125.595L61.5473 123.642L61.1913 123.997L60.4864 125.239L65.0744 128.085L68.2505 127.905ZM68.423 125.595L70.0111 122.574L69.6615 119.201L68.6007 112.981V112.805L69.1279 108.54L68.9535 108.364L68.7783 110.495L67.0127 114.047C67.0127 114.225 67.0127 114.225 67.0127 114.225L64.3687 115.822L62.9577 118.491L63.6632 119.022L65.0744 116.712C65.0744 116.535 65.6016 116.888 65.4232 117.066L61.7192 123.108L65.0744 125.064L68.423 125.595ZM69.1279 107.653V107.119L68.9535 101.079H68.2505L68.9535 104.099V104.277L69.1279 107.474V107.653ZM67.5425 101.079L61.0137 109.429V109.606L60.3088 110.14V110.495L62.6025 108.54V108.364L65.9569 107.298H66.1319L68.6007 107.474L68.423 104.277L67.5425 101.079ZM60.3088 111.381V114.225C60.3088 114.225 60.3088 114.402 60.3088 114.58L59.4281 116.535L62.0745 118.136C62.0745 117.956 62.2528 118.136 62.2528 118.136L62.4273 118.312L63.8383 115.471L64.0128 115.291L66.4848 113.871L68.2505 110.315L68.423 108.009L66.1319 107.83L62.9577 108.895L60.3088 111.381ZM59.076 117.066V117.246L57.1345 120.263L61.0137 122.753L61.3697 122.929L63.3079 119.557L62.4273 119.022C62.4273 119.022 62.4273 119.022 62.4273 118.843L59.076 117.066ZM56.9601 120.798L54.3104 124.884L53.9608 125.239L57.3097 127.55L58.1922 128.085V127.905L59.7809 125.419V125.239C59.7809 125.239 59.9593 125.239 59.9593 125.064L60.8393 123.819L61.0137 123.463L60.6641 123.285L56.9601 120.798ZM53.7826 125.774L51.8444 128.615L54.3104 130.039L56.7817 130.57L57.8432 128.439L56.9601 128.085L53.7826 125.774ZM58.7232 187.955L63.3079 191.327L64.5439 188.309L64.896 185.289L63.4856 184.223L63.6632 183.155L60.3088 179.427L58.7232 187.955ZM60.3088 179.247L62.9577 165.39L65.0744 163.793L66.4848 163.259L65.4232 160.77L65.7792 159.883L71.2472 160.238L76.5397 160.417L80.2413 160.593L82.3605 160.417L83.5958 159.528L80.5974 153.842L80.4189 153.666L79.7141 148.335L77.0703 143.893C76.8927 143.715 76.8927 143.538 76.8927 143.538V139.453C76.8927 139.273 76.8927 139.097 77.0703 139.097L77.7758 138.387L76.1872 135.545C76.1872 135.367 76.0094 135.19 76.0094 135.19L76.5397 130.391L75.3039 129.684L71.072 126.305C71.072 126.305 70.8944 126.128 70.8944 125.95L70.5416 124.173L69.3063 126.128L69.484 134.301L69.1279 139.987V140.163L67.3679 145.493V145.673L70.0111 146.559L72.8327 148.514C73.0103 148.514 73.0103 148.69 73.0103 148.69V154.021L77.2427 154.555C77.42 154.555 77.598 154.555 77.598 154.732L78.3038 159.704C78.3038 159.883 78.3038 160.062 77.951 160.062C77.7758 160.062 77.7758 160.062 77.7758 159.883L77.0703 155.086L72.6608 154.555C72.483 154.555 72.483 154.376 72.483 154.197V148.869L69.6615 147.094L67.1902 146.204L66.1319 150.29L65.0744 154.197L64.7183 157.749V157.928L64.3687 159.352L64.896 161.304C64.896 161.304 64.896 161.659 64.7183 161.659L62.9577 165.213L62.0745 169.652L60.3088 179.247ZM84.6541 158.997L89.0612 156.507L93.1213 153.666L92.0604 151.71L90.4746 147.448L88.534 141.052L87.1227 138.208L85.89 136.611L81.3022 133.59L77.598 131.104L77.2427 135.012L79.0086 138.208C79.1861 138.387 79.0086 138.564 79.0086 138.742L80.4189 141.938C80.5974 142.118 80.4189 142.294 80.4189 142.294L78.3038 143.893L80.775 147.98V148.159L81.4805 153.31L84.6541 158.997ZM78.4808 139.273L77.951 139.628V143.362L79.8916 141.938L78.4808 139.273ZM94.0043 152.955L94.7099 152.421L99.6468 148.514L104.584 144.073L107.583 141.052L112.699 135.722L116.23 131.811L117.642 129.505L118.169 126.128L117.642 123.285L116.933 119.377L117.991 119.201L119.051 120.088L120.641 121.332L121.696 121.509L120.812 121.332L119.051 120.088L117.991 119.201L116.933 118.491L111.821 115.115L106.878 111.739L93.6485 109.074L95.0589 116.357L95.9426 125.595L97.3529 124.529H97.5308L100.352 123.463C100.53 123.463 100.53 123.463 100.705 123.463L101.587 123.997H103.174C103.351 123.997 103.351 123.997 103.529 123.997L106.703 127.55H108.466H108.644L116.759 127.729C116.933 127.729 117.111 127.729 117.111 128.085C117.111 128.261 116.933 128.261 116.759 128.261L108.644 128.085H106.528H106.351L103.174 124.529H101.587H101.413L100.53 123.997L97.7083 125.064L96.1202 126.305L95.9426 126.483L95.4147 126.838L97.5308 135.19C97.5308 135.367 97.5308 135.545 97.3529 135.545L95.0589 136.787H94.8844L88.006 136.431L87.4781 136.966L88.1813 137.676L89.5941 140.518V140.697L91.5331 147.094L93.1213 151.179L94.0043 152.955ZM92.4158 108.719L89.2388 106.764L85.7124 103.923L82.7132 102.323L80.4189 100.902H80.2413L77.951 97.8792L77.7758 97.702L79.7141 100.012V100.192L83.946 109.606L87.1227 108.719C87.301 108.719 87.4781 108.895 87.4781 109.074L87.6507 110.14L88.534 109.96C88.7115 109.784 88.8894 109.96 88.8894 110.14L88.7115 111.915L90.6491 115.115L90.8276 115.291L90.6491 116.357L91.8859 117.246L92.7659 114.402L92.4158 111.381V111.205V108.719ZM77.42 98.2371L79.0086 100.902C79.0086 101.079 79.0086 101.257 79.0086 101.257L79.1861 104.808L80.0671 109.074V109.251L79.7141 116.712V116.888L79.0086 123.642V123.819L77.42 127.194L77.598 129.86L81.8302 132.702L86.595 135.722L86.7702 135.898L87.1227 136.431L87.4781 135.898C87.6507 135.898 87.6507 135.898 87.8285 135.898L94.8844 136.253L96.8252 135.19L94.8844 127.194L92.9437 128.615C92.9437 128.615 92.7659 128.615 92.5907 128.615L91.3549 127.55L88.7115 128.439C88.534 128.439 88.3555 128.085 88.534 127.905L90.6491 125.239L90.8276 122.929V122.753L91.5331 121.687L91.7109 117.777L90.2997 116.712C90.1221 116.712 90.1221 116.535 90.1221 116.535V115.291L88.006 112.094V111.915L88.1813 110.495L87.301 110.85C87.1227 110.85 86.9452 110.675 86.9452 110.495V109.429L83.946 110.315C83.7708 110.315 83.5958 110.14 83.5958 110.14L79.1861 100.368L77.42 98.2371ZM121.873 120.798L123.106 116.18L123.99 115.115L123.637 115.471L121.169 113.337L116.933 109.606L110.055 106.941L104.409 105.343L103.529 106.232L104.762 108.364C104.762 108.54 104.762 108.54 104.762 108.719L104.584 110.14L107.233 110.675H107.409L112.526 114.225L117.463 117.422V117.601L121.873 120.798ZM103.879 104.988L98.7635 101.967L96.298 100.902L93.2988 101.079H93.1213L88.8894 99.8337H88.7115L85.5341 98.4133L80.9469 98.058L80.4189 99.126L81.1251 100.012L83.2405 101.434L86.4174 103.033L89.9443 105.874L93.2988 108.009L103.879 109.96L104.235 108.719L102.999 106.232C102.824 106.232 102.999 106.053 102.999 105.874L103.879 104.988ZM80.2413 98.058H79.8916L79.3613 97.8792L80.0671 98.5921L80.2413 98.058ZM124.345 114.581L126.106 112.27L128.221 109.96L135.809 108.895L136.866 106.053L138.807 105.874L141.101 104.099L137.397 100.192H134.22L134.397 101.079L132.809 102.144L129.105 103.033L127.341 102.678L127.694 103.389L126.989 104.633L124.167 102.678L124.694 100.368L123.812 98.2371L126.989 95.7504L129.105 96.4611L128.221 93.0854C128.221 93.0854 128.221 93.0854 128.221 93.2612L126.284 93.6197L122.401 95.2162L116.759 95.7504H116.581L114.287 95.2162L113.054 96.2847L112.699 96.8164L114.993 98.058C115.17 98.058 115.17 98.058 115.17 98.2371L115.348 101.613V101.792L114.465 103.389L116.933 104.633C117.111 104.633 117.111 104.808 116.933 104.988C116.933 105.343 116.759 105.168 116.581 105.168L113.938 103.746C113.938 103.746 113.759 103.389 113.938 103.389L114.817 101.613L114.642 98.4133L112.526 97.3475L110.76 100.723C110.76 100.723 110.76 100.723 110.76 100.902L107.939 103.389L105.467 104.454L110.407 105.874V106.053L117.286 108.719H117.463L121.873 112.448L124.345 114.581ZM126.811 92.9061H126.284L122.051 94.5056L118.697 94.6847V83.8474V82.9583L117.463 83.4897L115.697 84.3788L113.759 85.0892L113.938 87.5782V87.7543L112.171 94.6847L112.348 96.2847L112.526 95.9268L113.938 94.6847L114.112 94.5056L116.759 95.2162L122.226 94.6847L126.106 93.0854L126.811 92.9061ZM113.054 85.268L108.114 87.0443L102.999 88.8225L104.409 92.9061L108.644 91.13H108.823L112.171 92.0196L113.232 87.5782L113.054 85.268ZM102.294 88.9989L99.469 90.0649L91.0052 92.9061L91.7109 95.2162V95.3928V97.3475L94.1762 98.2371C94.1762 98.2371 94.354 98.4133 94.354 98.5921L94.0043 99.8337H96.298H96.4699L99.1196 100.902H99.2941L104.762 104.277L107.583 102.854L110.233 100.368L111.994 97.1707C111.821 96.9922 111.821 96.9922 111.821 96.9922L111.643 94.8609V94.6847L111.994 92.5506L108.823 91.8407L104.409 93.4404C104.235 93.6197 104.057 93.4404 104.057 93.2612L102.294 88.9989ZM90.4746 93.0854L86.2404 94.5056V94.6847L82.1853 95.0377L81.3022 96.9922L85.7124 97.3475H85.89L89.0612 98.7712L93.2988 99.8337H93.474L93.6485 98.5921L91.1802 97.8792C91.1802 97.8792 91.0052 97.702 91.0052 97.5264L91.1802 95.3928L90.4746 93.0854ZM81.4805 95.0377H80.4189H80.2413L77.7758 94.5056H77.42V95.3928L77.2427 95.5716L77.0703 95.9268L80.0671 96.8164L80.775 96.9922L81.4805 95.0377ZM118.522 81.7132V78.6958L118.347 73.3652V71.0551L119.402 70.6999L121.169 72.2996L124.167 70.879L124.873 71.2342L127.166 68.2135L128.221 68.3896L129.282 69.4552L130.516 69.0999L130.341 67.1453L128.221 66.2586H125.4L125.223 65.193L125.578 64.1272L123.462 65.014L120.463 67.6794L119.228 67.8582C119.228 68.3896 119.051 68.3896 118.875 68.5686L115.348 69.6341V73.0102C115.348 73.1859 115.348 73.1859 115.17 73.1859L115.348 73.3652C115.523 73.5411 115.523 73.7205 115.348 73.8959L113.938 74.9621L114.287 78.3405C114.287 78.5168 114.112 78.6958 113.938 78.5168H113.054L113.581 80.2927V80.4716L113.232 81.5374L113.407 84.0237L115.17 83.4897L117.111 82.4234L118.522 81.7132ZM114.817 69.8134L114.465 69.9894H114.287L110.055 70.6999H109.878L108.644 70.879V73.0102L114.817 72.6546V69.8134ZM108.114 70.879H104.939L100.175 73.0102H99.9993H108.114V70.879ZM98.4148 73.5411L94.8844 74.7857L90.2997 76.2068V76.9165L90.8276 79.0479L96.298 78.5168C96.298 78.3405 96.4699 78.3405 96.4699 78.3405L99.9993 78.1616C100.175 78.1616 100.175 78.1616 100.352 78.1616L101.057 77.9826L103.879 76.7408L104.057 76.5621H108.114V73.5411H98.4148ZM89.5941 76.3827L85.0069 77.272L82.891 78.6958L83.066 79.2272L85.5341 80.2927H86.4174C86.4174 80.2927 86.4174 80.2927 86.595 80.2927H87.1227H87.301L90.8276 81.1821L89.7694 77.0957L89.5941 76.3827ZM82.3605 79.0479L80.775 81.3613L82.891 82.9583V83.1369L83.066 83.3132L85.7124 81.0032H85.5341L85.3596 80.827L82.7132 79.5822H82.5357L82.3605 79.0479ZM80.4189 81.7132L78.4808 83.1369L75.8319 84.3788L75.1263 85.268L75.4824 85.444L75.66 85.6229L76.8927 87.2229L80.2413 84.734V84.558L82.5357 83.6685V83.3132L80.4189 81.7132ZM77.2427 87.7543L77.7758 88.2889V88.4645L77.951 90.2438V90.4198L77.42 93.2612H77.7758H77.951L80.4189 93.9716L86.0645 93.4404L90.1221 92.0196L89.9443 91.8407L88.8894 92.0196H88.7115L82.3605 87.7543V87.5782L82.891 84.3788V84.2027L80.5974 85.0892L77.2427 87.7543ZM90.6491 91.8407L94.8844 90.4198L91.5331 83.8474H91.3549L91.0052 81.8927L87.1227 80.827H86.595L83.419 83.8474V84.2027L83.5958 84.3788L82.891 87.399L88.8894 91.485L90.1221 91.13C90.2997 91.13 90.4746 91.3091 90.4746 91.3091L90.6491 91.8407ZM95.4147 90.2438L99.1196 88.9989L101.94 87.9304L99.9993 78.8718H96.6481L96.298 81.0032C96.298 81.1821 96.1202 81.1821 96.1202 81.3613L93.2988 82.4234H93.1213L91.5331 82.0688L92.0604 83.6685L95.4147 90.2438ZM102.468 87.7543L107.76 85.9785L112.876 84.2027L112.699 81.5374V81.3613L113.054 80.2927L112.348 78.3405C112.171 78.1616 112.348 77.9826 112.526 77.9826H113.581L113.407 74.7857C113.407 74.6069 113.407 74.6069 113.581 74.4313L114.642 73.5411L114.287 73.3652L108.823 73.5411H108.644V76.7408C108.644 76.9165 108.644 77.0957 108.466 77.0957L104.057 77.272L101.236 78.5168L100.705 78.6958L102.468 87.7543ZM117.816 68.3896L117.111 64.8377L114.642 61.9933L110.938 58.6177L97.5308 46.8936L93.474 42.9838L93.2988 43.1628L90.6491 46.1833L88.8894 48.8486L88.7115 49.025L83.946 52.4004L82.3605 55.0661H82.1853L78.6565 59.3311L75.4824 64.3035L78.8308 66.2586L83.2405 68.0345L83.946 67.6794C83.946 67.503 84.1238 67.503 84.3014 67.6794L87.8285 70.5203C88.006 70.5203 88.006 70.6999 88.006 70.6999L88.534 72.831L89.9443 74.2542V74.4313L90.1221 75.141L94.5316 73.7205L99.8251 71.9416L104.584 69.8134H104.762L108.114 69.6341V65.5483C108.114 65.369 108.289 65.193 108.466 65.193L113.759 64.8377C113.759 64.8377 113.938 64.8377 113.938 65.0139L115.17 68.5686L117.642 67.6794L117.816 68.3896ZM75.1263 64.8377L74.0718 66.6139L73.0103 73.0102L73.1885 76.5621L75.8319 76.3827C75.8319 76.2068 75.8319 76.2068 76.0094 76.3827L76.1872 76.2068H76.3652L78.8308 77.0957L81.4805 76.9164L83.2405 74.0748L82.891 73.5411L82.7132 70.5203V70.3446L83.419 68.5686H83.2405L78.6565 66.7925L75.1263 64.8377ZM73.1885 77.272L72.8327 80.4716V80.6479L72.1278 84.0237L73.1885 84.2027L73.3656 84.3788L74.0718 84.734L74.9519 83.6685C74.9519 83.4897 75.1263 83.4897 75.1263 83.4897L77.951 82.2476L79.5358 81.0032L75.8319 76.9165L73.1885 77.272ZM79.8916 80.6479L81.8302 78.1616V77.9826L81.6552 77.4509L78.8308 77.6273L76.5397 76.9165L79.8916 80.6479ZM82.3605 77.6273L84.4763 76.2068H84.6541L89.4164 75.32V74.6069L88.006 73.3652C88.006 73.3652 88.006 73.3652 88.006 73.1859L84.1238 74.9621C84.1238 75.141 83.946 74.9621 83.7708 74.9621L83.5958 74.6069L82.1853 77.0957L82.3605 77.6273ZM108.644 69.6341H109.878L114.112 68.921L114.642 68.7448L113.581 65.369L108.644 65.7245V69.6341ZM92.5907 42.2765L90.2997 40.1422L88.3555 38.7217L84.8293 37.6559L78.6565 37.4795L72.8327 36.2354L65.4232 33.2148L62.0745 31.7939V36.2354V36.7667L66.307 36.9457H66.4848L70.1894 40.1422L74.9519 40.6764L80.775 41.0317V40.8528L80.2413 38.3664C80.2413 38.3664 80.2413 38.1875 80.5974 38.0112C80.775 38.0112 80.775 38.1875 80.9469 38.3664L81.3022 40.8528V41.0317H82.3605L83.7708 41.9212C83.946 42.0974 83.946 42.2765 83.946 42.2765L81.4805 47.6039L81.1251 52.0452L80.5974 54.3555V55.4209L81.4805 54.3555L83.066 51.8692C83.066 51.6899 83.2405 51.6899 83.2405 51.6899L88.006 48.1382L89.7694 45.4729H89.9443L92.5907 42.2765ZM61.5473 31.6147L56.0769 31.97L56.7817 23.0875L58.1922 22.9116L58.5482 20.7775L57.1345 20.422L57.6649 19.0014L61.8974 18.6462L61.1913 15.6258L59.6032 14.5605L56.0769 15.9807L53.433 15.0916L51.3146 15.9807L52.725 19.891L53.6049 25.2189V25.3979L52.725 28.4186V32.1493C53.2554 32.3253 53.2554 32.5017 53.0778 32.8595V33.9253L52.9001 36.0559L55.0185 37.1218L57.4873 36.5904L61.5473 36.7667V36.2354V31.6147ZM50.7841 16.1574L51.6666 19.0014L47.0793 20.0671L50.6089 33.036L47.7875 34.28L44.6108 36.4111L41.786 38.5429L39.4955 40.3212L36.4977 41.742L32.9681 42.0974L31.0285 42.8075L31.3812 43.697L34.3804 47.0699L34.5569 47.2488L36.8492 53.1108L37.0255 53.6451L39.4955 52.0452V51.8692L43.2003 50.6242L41.2588 49.2039L39.8484 49.3828C39.6719 49.3828 39.4955 49.2039 39.4955 49.025L38.9664 46.8936V46.7174L38.79 41.5631C38.79 41.387 38.79 41.2078 38.9664 41.2078C39.3192 41.2078 39.3192 41.387 39.3192 41.5631L39.4955 46.7174L40.0247 48.6697H41.2588C41.437 48.6697 41.437 48.6697 41.437 48.6697L43.9083 50.4452L46.0243 48.4934C46.0243 48.4934 46.1987 48.3144 46.3739 48.6697C46.5516 48.8486 46.3739 48.8486 46.3739 49.025L44.2579 50.8037L47.4347 54.8896L47.6098 55.0661L47.7875 58.7966L51.1394 60.0382H51.3146C51.3146 59.8624 51.3146 59.8624 51.3146 59.8624L56.6041 56.6654C56.6041 56.6654 56.6041 56.6654 56.7817 56.6654L55.8985 53.4659L53.2554 50.4452L52.725 50.0904L48.3179 46.1833L48.1402 46.0045L45.4906 41.0317L44.2579 42.0974C44.2579 42.0974 43.9083 42.0974 43.9083 41.9212L42.142 39.4317C42.142 39.4317 41.9642 39.2559 42.3197 39.0765C42.4972 38.9006 42.4972 39.0765 42.6693 39.0765L44.2579 41.387L45.3187 40.3212C45.4906 40.3212 45.6689 40.3212 45.8466 40.4975L48.6682 45.8281L52.5498 49.2039L52.9001 45.2938L51.6666 42.2765V42.0974L51.8444 33.7489L52.0194 32.6806C52.0194 32.5017 52.0194 32.3253 52.1945 32.3253V28.4186L53.0778 25.3979L52.1945 20.0671L50.7841 16.1574ZM37.2019 54.1767L38.4359 57.5522L41.6146 64.3035L43.5531 68.0345H47.257L49.0202 64.6589L49.3731 62.5274V62.3514L50.7841 60.5727L47.4347 59.1519L47.257 58.9731L46.9043 55.245L43.9083 51.1583H43.7307L39.6719 52.4005L37.2019 54.1767ZM43.7307 68.7448L45.3187 71.5892L49.5506 73.3652L57.3097 79.0479L58.5482 77.4509L58.7232 77.272H59.2536L59.076 73.8959L58.1922 71.2342L53.2554 61.4623L51.4889 60.752L49.9008 62.7038L49.7283 64.8378L49.5506 65.014L47.7875 68.3896C47.6098 68.5686 47.6098 68.5686 47.4347 68.5686L43.7307 68.7448ZM57.6649 79.4028L63.6632 84.9133L65.0744 84.2027L60.6641 76.3827L60.4864 76.2068L60.1337 71.7652L59.6032 70.6999L58.8977 71.5892L59.7809 73.8959V77.4509C59.7809 77.6274 59.7809 77.6273 59.6032 77.8066H59.076L57.6649 79.4028ZM59.4281 70.1657L58.5482 67.3241L58.3706 67.1453L58.1922 64.1272L58.0178 60.5727L56.9601 57.1972H56.7817L51.8444 60.2177L53.6049 60.9281L53.7826 61.1069L58.5482 70.879L59.4281 70.1657ZM52.9001 36.7667L52.725 41.9212L53.9608 44.9418V45.1176L53.7826 49.3828L56.7817 52.7555C56.7817 52.7555 56.9601 52.935 56.9601 53.1108L59.076 60.2177V60.3967L59.2536 64.1272L59.6032 66.9688L60.4864 69.4551L64.1912 68.9209L59.7809 64.1272C59.7809 64.1272 59.7809 63.9482 59.6032 63.9482V61.4623C59.6032 61.4623 59.6032 61.4623 59.6032 61.283L61.0137 57.9103L61.1913 47.4279C61.1913 47.4279 61.1913 47.2488 61.3697 47.2488V40.6764L61.5473 37.301L57.4873 37.1218L55.1936 37.6559C55.0185 37.6559 55.0185 37.6559 55.0185 37.6559L52.9001 36.7667ZM60.6641 69.9894L61.1913 71.4105C61.1913 71.5892 61.1913 71.5892 61.1913 71.5892L61.7192 76.0305L65.9569 83.4897C66.1319 83.4897 66.307 83.6685 66.307 83.6685L68.0728 83.4897H68.2505H68.6007L67.5425 80.4716L67.8951 77.0957L67.7175 71.2342L66.307 70.879C66.1319 70.879 66.1319 70.879 66.1319 70.879L64.7183 69.4552L60.6641 69.9894ZM69.6615 83.6685H71.072L71.5998 80.4716L72.1278 76.7408L71.9552 73.0102V72.831L73.0103 66.6139H69.484V69.6341V69.8134L68.423 71.2342L68.2505 71.4105L68.423 76.9165V77.0957L68.0728 80.4716L69.1279 83.3132L69.6615 81.3613L69.3063 79.5822C69.3063 79.4028 69.3063 79.4028 69.3063 79.4028L69.484 77.272C69.484 77.0957 69.484 76.9165 69.6615 76.9165C70.0111 76.9165 70.0111 77.0957 70.0111 77.272L69.8367 79.4028L70.1894 81.3613L69.6615 83.6685ZM73.1885 66.0793L75.4824 62.1725L73.0103 60.5727V60.3967L72.483 57.1972H70.7167C70.5416 57.1972 70.5416 57.0205 70.5416 56.842L70.0111 52.4005L65.9569 50.4452L65.2512 50.0904C65.2512 50.0904 65.0744 50.0904 65.0744 49.9145L61.7192 47.9589V57.9103C61.7192 57.9103 61.7192 57.9103 61.7192 58.0864L62.9577 60.5727L65.0744 62.7038L65.2512 62.883L65.6016 66.0793H73.1885ZM75.8319 61.6382L77.598 58.7966L77.7758 58.6177L80.0671 55.9524L79.8916 54.3555C79.8916 54.3555 79.8916 54.3555 79.8916 54.1767L80.5974 52.0452L80.775 48.8486L75.66 47.6039L67.0127 49.025L66.4848 50.0904L70.3671 52.0452C70.5416 52.0452 70.5416 52.2245 70.5416 52.2245L71.072 56.4865H72.6608C72.8327 56.4865 73.0103 56.6655 73.0103 56.842L73.5413 60.2177L75.8319 61.6382ZM74.4213 86.1548L73.5413 87.399L74.7766 89.1754L76.0094 87.9304L74.7766 86.5101L74.4213 86.1548ZM73.0103 87.7543L71.5998 89.7096L74.2461 89.3543L73.0103 87.7543ZM72.1278 90.2438L73.0103 90.9511H73.1885L74.4213 92.3717L74.9519 91.13L74.5991 89.8856L72.1278 90.2438ZM74.7766 92.9061L75.3039 93.4404C75.4824 93.4404 75.4824 93.4404 75.4824 93.4404H76.3652V93.2612L76.8927 90.2438L76.7145 88.8225L76.3652 88.4645L75.1263 89.7096L75.66 91.13V91.3091L74.7766 92.9061ZM70.7167 90.4198C70.7167 90.5988 70.5416 90.5988 70.5416 90.5988L69.484 90.2438L68.6007 90.4198L68.2505 90.9511L67.8951 91.8407C67.8951 91.8407 67.8951 92.0196 67.8951 92.1962L67.3679 93.2612L68.7783 95.9268C68.7783 95.9268 68.7783 96.1059 68.7783 96.2847L68.6007 96.8164L69.1279 98.058V98.2371L69.484 100.012H69.8367V96.6368V92.1962L70.0111 92.0196L71.5998 91.8407L72.3047 91.6643L70.7167 90.4198ZM68.423 97.8792L67.8951 100.012H68.7783L68.6007 98.2371L68.423 97.8792ZM70.3671 100.012L72.6608 99.6579L75.3039 96.8164H75.4824L74.7766 94.3266L72.8327 92.1962L71.5998 92.3717L70.3671 92.5506V96.6368V100.012ZM72.1278 87.399L73.3656 85.6229L72.8327 85.268L72.1278 85.0892V87.399ZM66.4848 92.5506H66.1319L66.307 92.9061L66.4848 92.5506ZM65.4232 92.5506H61.5473L61.3697 93.4404L61.8974 96.9922L62.78 97.5264V96.6368L62.9577 96.2847L63.6632 95.5716L66.1319 93.4404L65.4232 92.7302V92.5506ZM61.5473 91.485H64.7183L64.1912 90.7751H63.8383H63.6632L61.7192 89.8856L61.5473 91.485ZM65.4232 91.485H66.8375L65.6016 90.7751H64.896L65.4232 91.485ZM67.0127 90.9511L67.1902 90.5988L65.7792 88.6438L64.7183 90.0649H65.7792L67.0127 90.9511ZM65.4232 88.1093L63.4856 86.3338L62.78 87.7543L62.0745 89.3543L63.8383 90.2438L64.0128 90.0649L65.4232 88.1093ZM67.8951 89.7096V89.5307C67.8951 89.5307 68.0728 89.5307 68.2505 89.5307L68.7783 89.3543L68.423 87.7543V87.5782L68.9535 86.8651L68.0728 86.5101L67.0127 87.399V88.4645L67.8951 89.7096ZM69.484 89.1754L70.3671 89.3543L70.8944 87.5782V87.2229L69.6615 87.0443L68.9535 87.7543L69.484 89.1754ZM70.8944 86.689L71.072 84.9133L69.6615 84.734V86.3338L70.8944 86.689ZM68.9535 84.734H68.2505L66.4848 84.9133L66.8375 85.8019V85.9785V86.689L67.8951 85.9785H68.0728L69.1279 86.1548L68.9535 84.734ZM70.0111 101.613L70.1894 105.874L70.8944 104.277L70.0111 101.613ZM70.1894 107.298V108.895L70.5416 109.429L71.5998 109.784L75.66 110.315L78.4808 107.653H78.6565L78.1255 104.988L77.951 101.434L75.8319 97.8792L73.3656 100.547C73.1885 100.723 73.0103 100.723 73.0103 100.723L70.5416 101.079L71.4221 104.277V104.454L70.1894 107.298ZM70.0111 109.784L69.6615 112.981L70.7167 119.022L71.072 122.222C71.2472 122.398 71.2472 122.574 71.2472 122.753L71.9552 125.419L77.7758 123.642L77.951 123.285L78.6565 116.712L78.8308 109.251L78.6565 108.185L76.0094 110.85L75.8319 111.03L71.4221 110.495L70.1894 109.96C70.1894 109.96 70.1894 109.96 70.1894 109.784H70.0111L70.0111 109.784ZM72.483 125.95L76.0094 128.792L76.3652 128.97L76.1872 127.015L76.3652 126.838L77.42 124.35L72.483 125.95ZM75.8319 94.5056L76.1872 95.3928V95.2162V94.5056H75.8319ZM65.4232 85.268L64.5439 85.6229L65.7792 87.0443L65.6016 85.9785L65.4232 85.268ZM63.6632 98.2371L65.6016 99.126L66.8375 99.658L67.7175 96.1059L66.8375 94.3266L64.3687 96.2847L63.8383 96.9922L63.6632 98.2371ZM66.4848 100.723L65.2512 100.192L63.8383 99.481L63.3079 101.257L60.1337 106.409C59.9593 106.587 59.7809 106.587 59.7809 106.587L58.3706 105.519L57.1345 107.298L53.433 111.915L53.6049 112.094L54.844 113.337L55.1936 113.16L60.1337 108.719L66.4848 100.723ZM62.9577 100.368L61.3697 101.613L58.7232 104.988L59.7809 105.874L62.78 100.902L62.9577 100.368ZM53.0778 112.27L51.8444 113.694V113.871L51.1394 114.581L52.5498 116.002L54.4882 113.871L53.2554 112.448V112.626L53.0778 112.27ZM50.6089 114.936L48.4898 117.246L43.5531 121.863H43.3747L42.3197 122.929L43.5531 123.642L43.7307 123.819L44.6108 124.884L49.1985 119.732L52.1945 116.357L50.6089 114.936ZM41.786 123.285L40.5532 124.35L39.3192 125.774L38.79 130.215L43.2003 126.838L44.0803 125.419L43.2003 124.173L41.786 123.285ZM20.4442 47.783L17.9755 52.0452H17.6231L18.1507 47.2488L20.0915 47.4279L20.4442 47.783ZM16.9179 13.6711L21.6803 12.9605L22.0327 14.0289V14.7395L20.6207 15.6258L17.7991 14.0289L17.2703 14.5605L16.9179 13.6711ZM15.6818 46.7175L12.1537 47.2488L6.86218 50.8037L4.9213 57.7314L6.1569 60.2177L7.74407 62.883L7.03845 65.014L7.92045 65.5483V67.6794L10.9195 68.921L14.0948 68.2135L15.3291 65.193L16.5652 65.014L15.6818 68.0345L12.8591 75.6752L9.33078 73.7205L7.39132 75.8516L8.098 77.6273L7.92045 79.4028L4.56855 83.3132L1.39453 84.0237L1.56937 89.3543L7.03842 87.5782L9.50844 88.1093L11.6247 86.3338L11.8011 94.1504L12.3315 97.5264L14.2711 104.277L16.2122 108.54L20.6207 115.291L21.5038 116.712V118.843L19.739 121.863L20.0914 123.997L20.7969 124.708L20.2679 125.064L18.681 123.642L16.0346 123.463V121.687L11.2723 121.332L9.86131 123.108L8.27318 122.574L6.68565 126.663L7.21479 127.194L6.50929 127.905L5.62798 128.261L3.68686 131.459L3.86325 135.012L7.39129 139.988L10.3903 138.208L15.3291 143.362L17.7991 141.407V140.339L18.681 141.407L21.5038 139.988L23.6198 141.228L25.737 136.076L26.2661 128.792L27.148 128.97L31.3812 135.898C35.086 141.228 38.9664 146.559 42.8474 151.89L45.3187 153.842L48.3179 154.908L50.2563 155.797L49.1985 157.396V161.128L50.9617 162.372L52.5498 163.438L52.0194 165.569L50.2563 165.39L49.5506 164.68L45.1411 165.035L43.2003 167.877L39.3192 169.301L35.9675 171.965V179.958L40.2023 178.538V178.358L42.6692 179.427L43.553 178.893L44.4355 179.248L45.6689 179.427L46.3739 181.024L47.9626 181.2L49.1985 182.268L47.257 183.334L47.4347 187.065L50.6089 188.662L54.3104 187.065L56.4297 188.309L64.0128 193.816L65.9568 188.841L66.6625 184.399L65.2512 183.513L65.4232 182.623L61.8974 178.714L64.3687 166.279L65.7792 165.213L68.423 164.145L67.3679 161.659L71.072 161.838L76.3652 162.015L80.2413 162.193L82.891 162.015L84.8293 160.77L89.9443 157.928L95.7643 153.666L100.705 149.756L105.645 145.315L108.644 142.294L113.759 136.787L117.642 132.88L119.051 130.039L119.758 126.128L119.051 122.043L120.108 122.929L122.931 123.108L124.694 116.888L127.166 113.337L129.104 111.561L137.042 110.315L137.924 107.653L139.512 107.474L143.395 104.277L138.102 98.5922H132.282L132.635 100.368L132.104 100.723L129.105 101.434L127.872 101.079L126.106 99.8338L125.756 98.7713L127.341 97.5265L131.398 98.5922L129.46 91.1301L125.927 91.3092L121.873 92.9062H120.285V83.6685L120.108 78.6959L119.935 73.186L120.99 74.0749L124.167 72.6546L125.578 73.0102L127.694 70.1658L128.755 71.2342L132.282 70.3447L131.754 66.0794L128.577 64.659H127.166L128.399 61.4623L122.578 63.5936L119.758 66.2587H119.051L118.522 64.1273L115.697 60.9281L111.994 57.3762L98.589 45.6492L93.6485 41.2079L91.3549 38.9007L89.2388 37.301L85.0069 36.056L78.8308 35.8802L73.3656 34.6354L66.1319 31.7939L62.2528 30.0153L57.8432 30.1942L58.1922 24.5081L59.6032 24.3321L60.3088 20.422L63.8383 20.0671L62.6025 14.5605L59.7809 12.7841L56.0769 14.381L53.433 13.4941L48.6682 15.0916L49.5506 17.7572L45.1412 18.8254L48.6682 32.1493L47.0793 32.8595L43.7307 34.9908L40.9078 37.301L38.79 39.0765L36.1436 40.1422L32.6154 40.4975L28.5585 41.9212L25.9134 43.1628L24.325 42.0974L22.2091 34.6353L20.797 33.7489V32.6806L22.9142 30.7252L22.3851 28.9495L24.149 29.1288L25.3849 25.0397L24.5031 22.198L24.6794 20.9568L27.6766 19.3569L27.8533 16.3362L26.6203 15.0916V14.9152L31.5576 13.3153V12.4296L34.9095 11.3636L35.2623 9.94322H37.3797V5.14367L30.1469 2.65721L28.3834 -0.184418H23.267L23.0907 1.94607L16.9179 4.25736L17.0923 6.03304L12.8591 9.94325L13.9184 13.1394H13.0368L8.97836 12.9605L5.62801 15.6258L8.098 20.0671L5.45174 20.6015L3.86327 22.198L5.80437 25.5739L6.86218 25.3979L8.098 28.0603L10.2141 28.9495L11.9775 27.7079L13.0368 28.4186L11.9775 30.5492L12.5064 33.2148V33.3906L10.3904 33.9254L12.6827 40.3212L13.3895 40.1422V44.2283L15.6818 46.7175Z" fill="white"/>
</g>
<defs>
<clipPath id="clip0_796_10506">
<rect width="144" height="194" fill="white" transform="translate(0 0.000244141)"/>
</clipPath>
</defs>
</svg>
