<svg width="102" height="96" viewBox="0 0 102 96" fill="none" xmlns="http://www.w3.org/2000/svg">
<path fill-rule="evenodd" clip-rule="evenodd" d="M6 48C6 23.1496 26.1496 3 51 3C75.8504 3 96 23.1496 96 48C96 72.8504 75.8504 93 51 93C26.1496 93 6 72.8504 6 48ZM51 8.02353C28.924 8.02353 11.0235 25.924 11.0235 48C11.0235 70.076 28.924 87.9765 51 87.9765C73.076 87.9765 90.9765 70.076 90.9765 48C90.9765 25.924 73.076 8.02353 51 8.02353Z" fill="#E7742E"/>
<path fill-rule="evenodd" clip-rule="evenodd" d="M44.6711 39.0225C43.248 39.0225 42.0943 40.1905 42.0943 41.6314C42.0943 43.0723 43.248 44.2404 44.6711 44.2404H49.6748V67.8045H41.8285C40.4054 67.8045 39.2517 68.9726 39.2517 70.4135C39.2517 71.8544 40.4054 73.0225 41.8285 73.0225H62.6749C64.098 73.0225 65.2517 71.8544 65.2517 70.4135C65.2517 68.9726 64.098 67.8045 62.6749 67.8045H54.8284V41.6314C54.8284 40.1905 53.6747 39.0225 52.2516 39.0225H44.6711Z" fill="#E7742E"/>
<path d="M50.9962 20.752C49.8095 20.752 48.6495 21.1038 47.6628 21.7631C46.6761 22.4224 45.9071 23.3595 45.4529 24.4559C44.9988 25.5522 44.88 26.7586 45.1115 27.9225C45.343 29.0864 45.9145 30.1555 46.7536 30.9946C47.5927 31.8337 48.6618 32.4051 49.8257 32.6367C50.9896 32.8682 52.196 32.7494 53.2923 32.2952C54.3887 31.8411 55.3257 31.0721 55.985 30.0854C56.6443 29.0987 56.9962 27.9386 56.9962 26.752C56.9962 25.1607 56.3641 23.6345 55.2389 22.5093C54.1136 21.3841 52.5875 20.752 50.9962 20.752Z" fill="#E7742E"/>
</svg>
