<svg width="132" height="132" viewBox="0 0 132 132" fill="none" xmlns="http://www.w3.org/2000/svg">
<path d="M46.4142 42.7428C45.9972 42.3065 45.8979 41.6519 46.1362 41.0966L49.6313 33.1233C47.3873 29.6524 46.1958 25.6459 46.1958 21.4807C46.1958 9.63982 55.847 0.000488281 67.7025 0.000488281C79.558 0.000488281 89.2092 9.63982 89.2092 21.4807C89.2092 33.3216 79.558 42.961 67.7025 42.961C63.8499 42.961 60.0967 41.9296 56.8002 39.9859L48.0426 43.1197C47.8837 43.1792 47.705 43.199 47.5263 43.199C47.1093 43.2188 46.7121 43.0403 46.4142 42.7428ZM49.2341 21.5006C49.2341 25.3285 50.4058 28.9978 52.6101 32.1118C52.9476 32.5878 52.9675 33.2026 52.7093 33.6985L50.3263 39.0933L56.3434 36.9314C56.8002 36.7331 57.3364 36.7529 57.7732 37.0306C60.7322 38.9148 64.1677 39.9264 67.7025 39.9264C77.8898 39.9264 86.1708 31.6556 86.1708 21.4807C86.1708 11.3059 77.8898 3.03509 67.7025 3.03509C57.5151 3.05493 49.2341 11.3257 49.2341 21.5006Z" fill="white"/>
<path d="M22.8 51.6005C28.7647 51.6005 33.6 46.7652 33.6 40.8005C33.6 34.8358 28.7647 30.0005 22.8 30.0005C16.8353 30.0005 12 34.8358 12 40.8005C12 46.7652 16.8353 51.6005 22.8 51.6005Z" fill="#E7742E"/>
<path d="M39.0857 55.2007H6.51429C4.78659 55.2007 3.12966 55.875 1.90799 57.0752C0.686326 58.2754 0 59.9033 0 61.6007V93.6007H9.77143V68.0007H11.4V132.001H21.9857V95.2007H23.6143V132.001H34.2V68.0007H35.8286V93.6007H45.6V61.6007C45.6 59.9033 44.9137 58.2754 43.692 57.0752C42.4703 55.875 40.8134 55.2007 39.0857 55.2007Z" fill="#E7742E"/>
<path d="M109.2 51.6005C115.165 51.6005 120 46.7652 120 40.8005C120 34.8358 115.165 30.0005 109.2 30.0005C103.235 30.0005 98.4 34.8358 98.4 40.8005C98.4 46.7652 103.235 51.6005 109.2 51.6005Z" fill="#E7742E"/>
<path d="M125.486 55.2007H92.9143C91.1866 55.2007 89.5297 55.875 88.308 57.0752C87.0864 58.2754 86.4 59.9033 86.4 61.6007V93.6007H96.1715V68.0007H97.8V132.001H108.386V95.2007H110.014V132.001H120.6V68.0007H122.229V93.6007H132V61.6007C132 59.9033 131.314 58.2754 130.092 57.0752C128.87 55.875 127.213 55.2007 125.486 55.2007Z" fill="#E7742E"/>
</svg>
