<svg width="102" height="96" viewBox="0 0 102 96" fill="none" xmlns="http://www.w3.org/2000/svg">
<path d="M47.6197 63.1031H53.8072L55.3698 32.6533H46.1197L47.6197 63.1031ZM50.7447 78.6533C53.6197 78.6533 55.6823 76.3761 55.6823 73.5784C55.6823 70.7806 53.6197 68.5685 50.7447 68.5685C47.8072 68.5685 45.6823 70.7806 45.6823 73.5784C45.6823 76.3761 47.8072 78.6533 50.7447 78.6533Z" fill="#E7742E"/>
<path fill-rule="evenodd" clip-rule="evenodd" d="M44.4808 6.75C47.3782 1.75 54.6218 1.75 57.5192 6.75L100.98 81.75C103.878 86.75 100.256 93 94.4611 93H7.53891C1.7441 93 -1.87766 86.75 1.01975 81.75L44.4808 6.75ZM53.1731 9.25C52.2073 7.58333 49.7928 7.58333 48.827 9.25L5.36586 84.25C4.40005 85.9167 5.60731 88 7.53891 88H94.4611C96.3927 88 97.6 85.9167 96.6341 84.25L53.1731 9.25Z" fill="#E7742E"/>
</svg>
