<svg width="102" height="96" viewBox="0 0 102 96" fill="none" xmlns="http://www.w3.org/2000/svg">
<path fill-rule="evenodd" clip-rule="evenodd" d="M12.018 50.53C11.5508 50.4707 11.1028 50.3076 10.7067 50.0526C10.2538 49.7377 9.89705 49.3033 9.67607 48.7975C9.45508 48.2918 9.37854 47.7346 9.45495 47.1879C10.8747 36.6807 16.1771 27.0882 24.3155 20.3042C32.4538 13.5202 42.8366 10.0376 53.4142 10.544L48.3477 5.47115C47.9789 5.22634 47.6691 4.90237 47.441 4.52276C47.2128 4.14316 47.0719 3.71745 47.0285 3.27653C46.9851 2.83561 47.0404 2.39056 47.1902 1.97368C47.34 1.5568 47.5807 1.17855 47.8947 0.866399C48.2087 0.554248 48.5882 0.316027 49.0056 0.16903C49.4231 0.0220328 49.8679 -0.0300509 50.308 0.01656C50.748 0.0631709 51.1722 0.207307 51.5496 0.438503C51.9271 0.669699 52.2484 0.982154 52.4903 1.35318L66.0804 15.02L50.1954 25.9416C49.6319 26.3122 48.9595 26.4805 48.2881 26.419C47.7018 26.341 47.152 26.0902 46.7086 25.6984C46.2652 25.3066 45.9482 24.7915 45.798 24.2188C45.6478 23.6461 45.6712 23.0416 45.8652 22.4822C46.0592 21.9229 46.415 21.4339 46.8873 21.0776L53.5632 16.5121C44.4037 15.97 35.3779 18.9124 28.293 24.7501C21.2082 30.5877 16.5874 38.8897 15.3559 47.9936C15.2449 48.7711 14.8322 49.4735 14.2073 49.9483C13.5825 50.4232 12.7958 50.6322 12.018 50.53ZM96.3057 75.7392C96.9729 76.1289 97.4629 76.7627 97.6725 77.507C97.8572 78.2542 97.7463 79.0439 97.3631 79.7112C96.9799 80.3785 96.354 80.8717 95.6161 81.0878L76.9893 86.0413L75.4992 66.8242C75.372 66.3984 75.3413 65.9496 75.4095 65.5105C75.4777 65.0714 75.6429 64.6531 75.8932 64.2862C76.1435 63.9192 76.4725 63.6128 76.8561 63.3894C77.2397 63.166 77.6684 63.0312 78.1107 62.9949C78.553 62.9585 78.9979 63.0216 79.4128 63.1794C79.8276 63.3372 80.2021 63.5858 80.5088 63.907C80.8154 64.2282 81.0466 64.6139 81.1853 65.036C81.3241 65.4581 81.3669 65.9059 81.3107 66.3467L82.0558 73.8366C85.4553 68.7227 87.5059 62.8301 88.0164 56.7083C88.5436 50.8962 87.6958 45.0416 85.5418 39.6187C83.3878 34.1959 79.9882 29.3574 75.6184 25.4953C75.0262 24.9726 74.6654 24.236 74.6151 23.4471C74.5648 22.6583 74.8292 21.8817 75.3502 21.2879C75.8679 20.7298 76.5792 20.3911 77.3383 20.3411C78.0975 20.2912 78.8469 20.5338 79.4331 21.0193C84.5043 25.5087 88.4497 31.1296 90.9503 37.4279C93.4509 43.7261 94.4366 50.5251 93.8279 57.2753C93.1983 64.4902 90.736 71.424 86.6752 77.4175L94.0962 75.4182C94.8464 75.2345 95.6386 75.3496 96.3057 75.7392ZM62.6307 88.3974C57.9768 89.8858 53.0677 90.4038 48.2061 89.9192C42.2854 89.3381 36.5948 87.323 31.6258 84.0477C26.6567 80.7724 22.5584 76.3354 19.6848 71.1198L27.1057 73.895C27.7898 74.0138 28.4938 73.8897 29.0963 73.5442C29.6987 73.1987 30.1618 72.6535 30.4056 72.0026C30.6493 71.3517 30.6585 70.636 30.4315 69.9791C30.2045 69.3222 29.7555 68.7652 29.1621 68.4044L15.4826 63.3315L11.1016 61.75L7.79347 80.6986C7.67878 81.4557 7.85924 82.2281 8.2975 82.8558C8.73576 83.4834 9.39826 83.9183 10.1479 84.0705H10.6545C11.356 84.0833 12.0394 83.8479 12.5846 83.4058C13.1297 82.9636 13.5016 82.3431 13.6348 81.6535L14.8865 74.4918C18.2573 80.404 22.9919 85.4229 28.695 89.1293C34.3981 92.8358 40.9041 95.1223 47.6697 95.7978C53.3261 96.359 59.0374 95.7496 64.4487 94.0073C65.1377 93.7217 65.6947 93.1878 66.0098 92.511C66.3248 91.8342 66.375 91.0638 66.1504 90.3517C65.9259 89.6397 65.4429 89.0379 64.7968 88.665C64.1507 88.2921 63.3884 88.1753 62.6605 88.3377L62.6307 88.3974ZM39.673 37.8776H64.1837C64.9963 37.8776 65.7756 38.2012 66.3501 38.7773C66.9247 39.3534 67.2475 40.1348 67.2475 40.9496V65.5256C67.2475 66.3403 66.9247 67.1217 66.3501 67.6978C65.7756 68.2739 64.9963 68.5976 64.1837 68.5976H39.673C38.8605 68.5976 38.0812 68.2739 37.5066 67.6978C36.932 67.1217 36.6092 66.3403 36.6092 65.5256V40.9496C36.6092 40.1348 36.932 39.3534 37.5066 38.7773C38.0812 38.2012 38.8605 37.8776 39.673 37.8776ZM42.7369 62.4536H61.1199V44.0216H42.7369V62.4536Z" fill="#E7742E"/>
</svg>
