<svg width="102" height="96" viewBox="0 0 102 96" fill="none" xmlns="http://www.w3.org/2000/svg">
<path d="M93.0743 22H86V25.3956H93.0743C96.1407 25.3956 98.6352 27.913 98.6352 31.0075V72.3774C98.6352 75.4719 96.1407 77.9893 93.0743 77.9893H67.5735C66.9809 77.9893 66.4298 78.3071 66.1273 78.8214L59 90.9694L51.8727 78.8214C51.5702 78.3071 51.0191 77.9893 50.4265 77.9893H24.9257C21.8593 77.9893 19.3647 75.4719 19.3647 72.3774V59.3136H16V72.3774C16 77.3453 20.0029 81.3848 24.9257 81.3848H49.4652L57.5538 95.1678C57.8563 95.6822 58.4074 96 59 96C59.5926 96 60.1437 95.6822 60.4462 95.1678L68.5348 81.3848H93.0743C97.9971 81.3848 102 77.3453 102 72.3774V31.0075C102 26.0396 97.993 22 93.0743 22Z" fill="white"/>
<path d="M33.4652 59.3848L41.5538 73.1678C41.8563 73.6822 42.4074 74 43 74C43.5967 74 44.1437 73.6822 44.4462 73.1678L52.5348 59.3848H77.0743C81.9971 59.3848 86 55.3453 86 50.3774V9.00746C86 4.03955 81.9971 0 77.0743 0H8.9257C4.00289 0 0 4.03955 0 9.00746V50.3774C0 55.3453 4.00289 59.3848 8.9257 59.3848H33.4652ZM8.9257 55.9851C5.85931 55.9851 3.36475 53.4677 3.36475 50.3732V9.00328C3.36475 5.90879 5.85931 3.39139 8.9257 3.39139H77.0784C80.1448 3.39139 82.6394 5.90879 82.6394 9.00328V50.3732C82.6394 53.4677 80.1448 55.9851 77.0784 55.9851H51.5776C50.9851 55.9851 50.4339 56.3029 50.1314 56.8172L43.0041 68.9652L35.8768 56.8172C35.5743 56.3029 35.0232 55.9851 34.4307 55.9851H8.9257Z" fill="#E7742E"/>
</svg>
