<svg xmlns="http://www.w3.org/2000/svg" version="1.1" xmlns:xlink="http://www.w3.org/1999/xlink" xmlns:svgjs="http://svgjs.dev/svgjs" width="1000" height="1000"><g clip-path="url(#SvgjsClipPath1079)"><rect width="1000" height="1000" fill="#000000"></rect><g transform="matrix(11.428571428571429,0,0,11.428571428571429,105.71428571428572,100)"><svg xmlns="http://www.w3.org/2000/svg" version="1.1" xmlns:xlink="http://www.w3.org/1999/xlink" xmlns:svgjs="http://svgjs.dev/svgjs" width="69" height="70"><svg width="69" height="70" viewBox="0 0 69 70" fill="none" xmlns="http://www.w3.org/2000/svg">
<path d="M68.9044 19.4438C68.87 18.0079 68.6638 16.5796 68.3288 15.1665C67.882 13.2672 67.1432 11.4818 65.8202 9.91677C64.1707 7.97187 62.1862 6.36124 59.9096 5.02412C58.0282 3.91491 56.0522 2.95766 53.9818 2.15234C52.1605 1.4458 50.2791 0.883598 48.3289 0.526526C47.066 0.298607 45.786 0.161859 44.5059 0.108678C43.5265 0.070692 42.5386 -0.0432693 41.5678 0.0175089C40.6571 0.0706899 39.7551 0.0934836 38.8444 0.161859C37.2465 0.283416 35.7087 0.602497 34.2053 1.08872C32.3238 1.69651 30.4854 2.39546 28.7156 3.23876C26.5421 4.27199 24.5662 5.54833 22.7792 7.06019C21.104 8.48088 19.6263 10.0611 18.2346 11.7021C17.9253 12.0744 17.6246 12.4543 17.3325 12.8341C17.1779 13.0393 16.9803 13.1456 16.7054 13.1304C16.525 13.1228 16.3446 13.138 16.1728 13.1152C15.0559 12.9709 13.9305 13.0469 12.8051 13.0241C11.7484 13.0013 10.7003 13.0924 9.66936 13.3204C7.77933 13.7382 6.00958 14.3916 4.48038 15.5084C4.10238 15.7895 3.97352 16.1086 4.07661 16.5188C4.18829 16.9519 4.39447 17.3241 4.74671 17.6508C5.33949 18.1902 6.01818 18.6309 6.72264 19.0335C6.87728 19.1247 7.07487 19.1703 7.13501 19.3526C6.99755 19.4818 6.8515 19.4438 6.71405 19.459C5.66595 19.5729 4.62643 19.7021 3.62128 20.0136C3.03709 20.1959 2.53023 20.4922 2.09208 20.8721C2.00617 20.948 1.89449 21.0392 1.96322 21.1608C2.04054 21.2899 2.18659 21.2291 2.29827 21.1987C2.95119 21.0316 3.62128 20.9404 4.29138 20.8417C4.71234 20.7809 5.12471 20.7885 5.60581 20.8189C5.46835 20.9708 5.34808 20.9784 5.2278 21.0012C4.61784 21.1304 4.03365 21.3203 3.44946 21.5254C1.97181 22.0496 0.760478 22.8398 0.133334 24.2149C0.0903792 24.306 0.0474247 24.3896 0.0130606 24.4808C-0.0127124 24.5415 -0.00412166 24.6175 0.0731974 24.6403C0.116152 24.6555 0.184879 24.6403 0.219243 24.6175C0.442609 24.458 0.665976 24.2984 0.880751 24.1313C2.10927 23.1816 3.51819 22.5511 5.10753 22.27C5.50272 22.2016 5.90649 22.08 6.33604 22.1484C5.85495 22.4067 5.40821 22.6878 4.9443 22.9537C4.00788 23.4931 3.38933 24.2604 2.89105 25.1189C2.83091 25.2253 2.69345 25.3621 2.81373 25.4684C2.95978 25.59 3.05428 25.4152 3.17455 25.3621C3.21751 25.3393 3.26046 25.3089 3.30342 25.2785C5.08176 24.0401 6.98037 23.0221 9.12812 22.3915C9.59204 22.2548 10.0645 22.1104 10.5542 22.0041C10.5714 22.2168 10.4254 22.3079 10.3395 22.4143C9.83258 23.0525 9.80681 23.7514 10.0044 24.4808C10.0302 24.5871 10.0474 24.7239 10.2106 24.7239C10.3652 24.7315 10.4082 24.5947 10.4511 24.496C11.0096 23.3336 12.0061 22.5738 13.2346 22.0192C14.068 21.6394 14.9442 21.3735 15.8119 21.0848C16.3102 20.9252 16.4477 20.7201 16.4391 20.2567C16.4391 20.1427 16.4133 20.0364 16.4047 19.9224C16.3961 19.7629 16.5078 19.6945 16.6624 19.6717C16.8343 19.6489 16.9288 19.7249 16.9631 19.8768C16.9803 19.9528 16.9803 20.0364 16.9975 20.1123C17.1006 20.8721 17.2209 21.6318 17.5044 22.3611C17.7879 23.0905 18.1401 23.7818 18.5782 24.4504C18.8188 24.8074 18.7586 24.891 18.2947 24.9062C17.702 24.9214 17.1264 25.0278 16.5508 25.1265C16.0954 25.2101 15.6401 25.3165 15.2449 25.5444C14.7381 25.8331 14.2741 26.1826 14.214 26.7599C14.1539 27.2842 14.1539 27.816 14.2655 28.3402C14.5405 29.6545 15.0903 30.8853 15.6487 32.116C15.958 32.7998 16.3102 33.4608 16.6367 34.1369C16.7655 34.4104 16.7054 34.4864 16.3875 34.5016C16.0095 34.5244 15.6401 34.4256 15.2879 34.3268C14.5061 34.1065 13.7243 33.871 12.9425 33.6659C11.8772 33.3848 10.812 33.1189 9.68654 33.1569C8.9563 33.1797 8.33775 33.4228 7.80511 33.8558C7.69342 33.947 7.50442 34.0381 7.55597 34.1977C7.6161 34.3724 7.83088 34.3041 7.97692 34.3117C8.44084 34.3193 8.90476 34.3041 9.36867 34.3117C10.0645 34.3269 10.7089 34.5016 11.2759 34.8663C11.3704 34.927 11.5078 34.965 11.4735 35.117C11.3016 35.2081 11.1041 35.2233 10.9065 35.2385C10.245 35.2841 9.59204 35.3373 8.93053 35.3601C8.25184 35.3829 7.57315 35.3753 6.89446 35.3753C6.568 35.3753 6.25873 35.4209 5.96663 35.5804C5.27076 35.9603 4.91853 36.568 4.61784 37.2062C4.59207 37.267 4.58348 37.3354 4.6522 37.381C4.71234 37.4265 4.78966 37.4189 4.8498 37.3885C4.9443 37.3506 5.0388 37.305 5.1333 37.2594C5.76904 36.9251 6.45632 36.7124 7.17796 36.5832C8.32916 36.3705 9.48894 36.4161 10.6401 36.4617C10.6659 36.4617 10.6831 36.5073 10.726 36.5452C10.4769 36.7732 10.1676 36.9327 9.88413 37.115C8.90476 37.7304 7.95974 38.3914 7.12642 39.1663C6.379 39.8577 6.74841 40.5262 7.30683 41.0656C7.43569 41.1872 7.56456 41.172 7.64188 41.0049C7.7192 40.8453 7.76215 40.6706 7.83947 40.511C8.18311 39.7513 8.72435 39.1663 9.60063 38.87C11.336 38.285 13.1487 38.0419 14.9872 37.8748C15.2879 37.8444 15.5886 37.8064 15.8892 37.7912C16.2415 37.776 16.3102 37.8444 16.2501 38.1483C16.2329 38.2242 16.2157 38.3078 16.1899 38.3838C16.0095 38.908 16.1728 39.3714 16.525 39.7817C16.7398 40.0324 17.0147 40.2451 17.2638 40.473C17.324 40.5262 17.4013 40.587 17.4958 40.549C17.6246 40.4958 17.5903 40.3895 17.5731 40.2983C17.3154 38.9916 17.9081 38.0039 19.025 37.1986C19.3858 36.9403 19.8153 36.7504 20.116 36.4237C20.7947 35.6792 21.1727 34.8359 21.1555 33.8634C21.1384 32.7694 20.8978 31.7058 20.6487 30.6422C20.5456 30.2015 20.5971 30.1483 21.0868 30.2699C21.1384 30.2851 21.1899 30.3003 21.2414 30.3155C23.3119 30.8701 25.3995 31.3487 27.5387 31.683C29.4201 31.9793 31.3187 32.1616 33.2259 32.1996C33.7843 32.2072 34.3341 32.1312 34.884 32.1236C35.9578 32.116 37.0231 32.0021 38.0798 31.8957C40.408 31.6602 42.7018 31.2879 44.9784 30.7789C46.1554 30.5206 47.3323 30.2547 48.4921 29.9204C48.9389 29.7913 49.0162 29.8369 49.0248 30.2395C49.0334 30.7637 49.0334 31.2955 49.0162 31.8197C49.0076 32.192 48.9303 32.2604 48.5437 32.3516C48.4406 32.3743 48.3375 32.3895 48.2258 32.4123C46.164 32.7922 44.1021 33.1797 42.0746 33.7039C39.1022 34.4636 36.1554 35.2917 33.3118 36.3781C31.1297 37.2062 28.9304 38.0115 26.9201 39.1663C25.4253 40.0248 23.9734 40.9213 22.659 41.9773C21.0696 43.2537 19.7724 44.7503 18.7672 46.4521C18.0026 47.7513 17.4786 49.1264 17.1951 50.5623C16.8257 52.454 16.9116 54.3533 17.2552 56.245C17.5817 58.076 18.226 59.8081 19.2226 61.4416C19.781 62.3608 20.4339 63.2117 21.1813 64.0018C21.5593 64.4045 22.006 64.7616 22.427 65.1262C23.5954 66.1519 24.9012 67.018 26.3875 67.6333C28.5352 68.5146 30.7259 69.2744 33.0799 69.5858C42.1176 70.7938 48.1915 69.244 50.9835 66.433C51.2069 66.2127 50.8976 65.8784 50.511 65.9847C49.2567 66.3494 48.5351 67.0711 44.8238 67.8993C41.1125 68.7274 36.2156 68.2791 35.2276 68.1348C33.2259 67.8461 31.3015 67.3067 29.463 66.5545C28.0112 65.9619 26.6452 65.2478 25.3909 64.3589C24.6091 63.7967 23.9218 63.1434 23.2947 62.4444C22.1521 61.1833 21.1899 59.8233 20.5885 58.2811C19.781 56.1994 19.6607 54.0646 20.0387 51.8994C20.3566 50.114 21.1298 48.5034 22.2552 47.0067C23.2432 45.7 24.4459 44.568 25.7861 43.5499C27.238 42.4559 28.8101 41.5139 30.494 40.7314C32.6933 39.7057 35.0386 39.0144 37.3926 38.3838C41.1211 37.3809 44.9355 36.682 48.7842 36.1274C49.4887 36.0286 49.4887 36.0286 49.6863 36.6744C49.8237 37.1226 49.7808 37.1986 49.2739 37.3202C48.5093 37.4949 47.7447 37.6545 46.9887 37.8368C46.0609 38.0647 45.1245 38.285 44.2138 38.5509C43.2173 38.8396 43.1915 39.3487 43.2774 39.9944C43.286 40.0932 43.3118 40.1995 43.4234 40.2375C43.5523 40.2831 43.6038 40.1692 43.664 40.0932C43.9819 39.7361 44.3942 39.5462 44.8925 39.4778C46.5506 39.2499 48.2 38.984 49.8323 38.6193C50.3392 38.5054 50.3478 38.513 50.5798 38.9764C50.7945 39.4018 51.121 39.7133 51.6107 39.9032C52.1347 40.1084 52.6674 40.2831 53.2172 40.4351C54.1364 40.6858 55.0643 40.9365 55.9749 41.2024C57.2292 41.5747 58.3374 42.1748 59.2653 43.0333C59.4027 43.1549 59.523 43.4284 59.755 43.3068C59.9525 43.2005 59.8151 42.9498 59.7635 42.775C59.5402 42.0457 59.0247 41.5063 58.3804 41.0504C57.7275 40.5946 57.0058 40.2527 56.2756 39.9109C56.1467 39.8501 55.9749 39.8273 55.9234 39.6601C56.1553 39.5918 56.3357 39.6829 56.5333 39.6905C58.7584 39.7969 60.9147 40.2147 63.0367 40.8149C63.1742 40.8529 63.3116 40.8985 63.4491 40.9061C63.5865 40.9213 63.6553 40.8377 63.5865 40.7238C63.5264 40.6326 63.4319 40.549 63.3374 40.4806C62.9766 40.2223 62.5986 39.9792 62.1948 39.7741C61.0264 39.1739 59.7292 38.9536 58.4233 38.7333C57.9251 38.6497 57.4268 38.5889 56.8426 38.5053C56.9801 38.4218 57.0144 38.3838 57.0574 38.3762C58.5522 37.9811 60.0728 37.89 61.6106 38.0191C62.0745 38.0571 62.5384 38.0799 63.0024 38.1103C63.0969 38.1179 63.1914 38.1027 63.2171 38.0115C63.2343 37.9432 63.1999 37.8824 63.1398 37.8444C63.0539 37.7836 62.9594 37.738 62.8735 37.6924C62.5298 37.5253 62.1518 37.4189 61.7652 37.343C60.2103 37.0391 58.6467 37.0695 57.0746 37.153C56.1811 37.1986 55.2962 37.2594 54.4027 37.2898C53.9131 37.305 53.6038 37.0391 53.5436 36.5984C53.5179 36.3933 53.5351 36.1806 53.6124 35.9831C53.7069 35.7247 53.8272 35.474 53.9217 35.2157C54.0333 34.9194 54.2653 34.7523 54.6003 34.6535C56.7567 33.9926 58.7928 33.1113 60.7343 32.0477C62.8305 30.9005 64.6518 29.4874 65.992 27.6108C67.358 25.7039 68.2171 23.6147 68.7583 21.4115C68.9216 20.7885 68.9216 20.1047 68.9044 19.4438ZM24.7036 12.082C25.0473 10.5549 25.9236 9.22542 26.9545 7.97947C28.1229 6.56637 29.5919 5.44956 31.3187 4.64425C32.9596 3.88452 34.6692 3.20837 36.5077 2.87409C37.6417 2.66896 38.7843 2.47903 39.9527 2.47903C40.4338 2.47903 40.9149 2.40306 41.396 2.40306C43.3118 2.39546 45.2018 2.60818 47.066 3.00324C49.2739 3.47427 51.4303 4.11244 53.5007 4.94815C53.578 4.97853 53.6811 4.98613 53.7069 5.0925C53.5437 5.13048 53.389 5.0697 53.243 5.03172C51.4904 4.57588 49.6949 4.30238 47.8822 4.14284C46.877 4.05926 45.8633 3.93771 44.841 4.08965C44.5489 4.13524 44.2396 4.10485 43.9303 4.11245C41.6881 4.16563 39.4888 4.43153 37.3324 4.99373C35.8719 5.3736 34.5919 6.04975 33.4235 6.91585C32.7878 7.38688 32.1606 7.84271 31.628 8.4201C30.6056 9.53691 30.0816 10.8208 29.9785 12.2491C29.8582 14.0497 30.3221 15.7363 31.3617 17.2937C31.9974 18.2434 32.9424 18.8892 33.9476 19.4742C35.1675 20.1807 36.4733 20.7277 37.8307 21.1987C37.9596 21.2443 38.097 21.2899 38.2259 21.3431C38.6382 21.5026 38.6468 21.5558 38.2946 21.8065C35.7173 23.6527 32.8823 23.8426 29.8668 22.8322C29.1967 22.6042 28.5782 22.2927 27.9768 21.9357C26.5593 21.1076 25.6486 19.9528 25.0559 18.5473C24.1624 16.42 24.2139 14.2548 24.7036 12.082ZM54.8924 37.8824C54.6948 38.0723 54.4371 38.0647 54.2052 38.1255C53.9474 38.1939 53.9131 38.2926 54.1021 38.4598C54.3168 38.6497 54.5832 38.7864 54.8409 38.9308C54.901 38.9612 54.9698 38.9916 54.9869 39.0676C54.9268 39.1967 54.8065 39.1283 54.7206 39.1131C54.2653 39.0296 53.8272 38.8928 53.3976 38.7333C53.2945 38.6953 53.1828 38.6725 53.1141 38.7789C53.0626 38.8624 53.1399 38.9308 53.1742 38.9992C53.2945 39.2347 53.5952 39.3259 53.7327 39.5386C53.6983 39.5766 53.6897 39.5994 53.6811 39.5994C52.7619 39.5386 51.8942 39.3411 51.3701 38.6117C51.0437 38.1559 50.7258 37.852 50.0127 38.1255C50.1158 37.852 50.322 37.814 50.4681 37.738C50.9234 37.5101 51.1124 37.229 50.9921 36.72C50.6914 35.474 50.4767 34.2053 50.3822 32.9289C50.3048 31.9109 50.2017 30.8929 50.2275 29.8672C50.2361 29.5785 50.3478 29.381 50.6571 29.2747C51.3701 29.0239 52.0832 28.758 52.7962 28.5149C53.1227 28.401 53.2258 28.4617 53.2172 28.7884C53.2086 29.8596 53.2687 30.9233 53.1571 31.9945C53.0797 32.7922 53.0368 33.5899 52.9079 34.38C52.822 34.9042 52.7189 35.4209 52.5557 35.9299C52.5299 36.021 52.5041 36.1122 52.4784 36.211C52.2636 37.1227 52.4526 37.4037 53.4663 37.6848C53.9302 37.7988 54.4113 37.8064 54.8924 37.8824ZM51.1038 27.0562C49.4629 27.4741 47.8134 27.778 46.0952 27.7324C45.5196 27.7172 44.9526 27.6488 44.4028 27.5349C43.2602 27.2918 42.2637 26.5852 42.1777 25.3165C42.1777 25.2709 42.1434 25.2329 42.109 25.1417C41.3015 25.7571 41.2499 26.8435 41.9544 27.5729C42.5729 28.2186 43.3805 28.5681 44.2739 28.796C44.841 28.9404 45.4166 29.0391 45.9921 29.1607C46.1038 29.1835 46.2499 29.1607 46.3186 29.2898C46.2928 29.4418 46.1468 29.4342 46.0351 29.4646C43.8874 30.0268 41.7224 30.4902 39.5059 30.7789C38.286 30.9385 37.0661 31.0752 35.8376 31.1284C34.9957 31.1664 34.1623 31.2044 33.329 31.1968C31.1812 31.1892 29.0593 30.9536 26.9717 30.5054C23.939 29.852 21.0095 28.9556 18.1659 27.816C18.0026 27.7476 17.8136 27.5805 17.6332 27.7552C17.4786 27.9147 17.6332 28.0895 17.7105 28.2414C17.9769 28.758 18.4494 29.1075 18.9477 29.4114C19.4373 29.7077 19.6177 30.0648 19.5748 30.5814C19.4975 31.4627 19.6779 32.3364 19.8325 33.2024C19.97 34.0078 19.9098 34.7979 19.5061 35.5424C19.1195 36.2642 18.5095 36.6364 17.5731 36.6896C15.4339 36.8036 13.3034 36.9859 11.2243 37.4797C11.1298 37.5025 11.0181 37.5481 10.9065 37.4341C11.2931 36.9707 11.7312 36.5832 12.3497 36.3553C12.5044 36.3021 12.7535 36.2869 12.7192 36.0818C12.6848 35.8767 12.4528 35.9147 12.281 35.8995C12.1951 35.8919 12.1006 35.9071 12.0061 35.8311C12.0748 35.6108 12.3154 35.6032 12.4958 35.5424C13.0628 35.3449 13.0972 35.2081 12.7106 34.8055C12.5473 34.6307 12.3154 34.5396 12.1092 34.4104C12.1951 34.2357 12.3326 34.3041 12.4443 34.3193C12.891 34.3876 13.2948 34.5548 13.6728 34.7751C14.0164 34.9802 14.3515 35.1929 14.7209 35.3601C15.3738 35.6564 16.0697 35.7703 16.7999 35.7171C17.0834 35.6944 17.3669 35.6412 17.6246 35.5196C18.2432 35.2233 18.4837 34.7979 18.3806 34.1673C18.226 33.2404 17.8308 32.3895 17.4185 31.531C17.0061 30.6574 16.4992 29.8369 16.0009 29.0012C15.8205 28.7049 15.6831 28.3934 15.5886 28.0667C15.3824 27.3601 15.7002 26.7903 16.4648 26.5396C17.1178 26.3193 17.805 26.175 18.5009 26.1446C19.7294 26.0838 20.9665 26.0762 22.1865 26.2737C23.8188 26.5472 25.451 26.8359 27.0232 27.3297C27.1521 27.3677 27.2809 27.4589 27.427 27.3601C27.4356 27.2006 27.2895 27.1474 27.1778 27.0714C26.1469 26.3117 24.9614 25.8635 23.6899 25.5596C22.8308 25.3545 21.9545 25.1873 21.0696 25.0658C20.6143 25.005 20.305 24.8074 20.0473 24.458C19.3944 23.5463 18.9906 22.5435 18.647 21.5102C18.3806 20.6973 18.1745 19.8692 17.9769 19.0411C17.848 18.5017 17.7879 18.4561 17.1435 18.4561C16.6109 18.4561 16.0697 18.4561 15.537 18.4561C14.0164 18.4713 12.5645 18.1522 11.147 17.6888C10.6487 17.5217 10.159 17.3317 9.63499 17.1494C9.5319 17.4077 9.72949 17.5217 9.85836 17.6584C10.6058 18.4333 11.5508 18.9196 12.6418 19.2083C13.3463 19.3906 14.0508 19.5577 14.7724 19.6793C14.8927 19.7021 15.0216 19.7173 15.1332 19.7629C15.4941 19.9072 15.5628 20.2643 15.2793 20.5074C15.1934 20.5834 15.0817 20.6441 14.97 20.6973C14.1968 21.0392 13.3893 21.2899 12.5559 21.4722C12.2123 21.5482 12.2037 21.533 12.2896 21.2139C12.3412 21.0088 12.2896 20.948 12.0577 20.9936C11.9202 21.0164 11.7827 21.062 11.6453 21.1076C10.4082 21.4722 9.17108 21.8445 7.95975 22.2776C7.86524 22.3155 7.77074 22.3611 7.65047 22.3459C7.59033 22.194 7.73638 22.1484 7.8137 22.08C7.91679 21.9965 8.04565 21.9281 8.14875 21.8445C8.24325 21.7761 8.38929 21.723 8.34634 21.5862C8.30338 21.457 8.15734 21.4419 8.03707 21.4419C7.47006 21.4267 6.89446 21.3887 6.32745 21.5026C6.15563 21.533 5.9924 21.5634 5.8034 21.5558C6.00958 21.3355 6.31027 21.2747 6.57659 21.1683C7.00614 20.9936 7.01473 20.9784 6.86869 20.5226C7.80511 20.4542 8.70716 20.1883 9.66936 20.3706C10.3652 20.5074 11.0783 20.5986 11.7913 20.4922C11.8944 20.477 12.0061 20.4694 12.1006 20.4314C12.2123 20.3782 12.2467 20.2719 12.1178 20.2111C11.9975 20.1503 11.8515 20.1199 11.714 20.0895C10.1762 19.6717 8.66421 19.1855 7.28106 18.4333C6.79137 18.1674 6.37041 17.8179 5.93227 17.4913C5.90649 17.4685 5.88072 17.4457 5.85495 17.4229C5.20203 16.6784 5.12471 16.1769 6.22436 15.6831C6.98037 15.3412 7.78793 15.1361 8.60407 14.969C10.4168 14.5967 12.2467 14.3536 14.1195 14.4448C15.2449 14.4979 16.3532 14.6271 17.4614 14.8246C18.1401 14.9462 18.1315 14.9386 18.4322 14.3992C18.8961 13.5711 19.3257 12.7278 20.0387 12.0288C20.2449 11.8237 20.4768 11.6565 20.7088 11.4818C20.8033 11.4134 20.9064 11.3071 21.0353 11.3679C21.1813 11.4362 21.0868 11.5654 21.0696 11.6717C20.9665 12.2415 20.915 12.8113 20.8291 13.3811C20.6229 14.8778 20.7775 16.3517 21.1555 17.8028C21.3274 18.4561 21.5078 19.1095 21.7311 19.7477C22.0576 20.7049 22.6332 21.5558 23.2517 22.3763C24.3256 23.8274 25.7517 24.9518 27.4098 25.8407C27.9338 26.1218 28.4923 26.3269 29.0765 26.4713C30.4424 26.8131 31.8342 27.0183 33.2431 27.0866C35.1417 27.1778 36.92 26.7372 38.5781 25.9166C39.7293 25.3469 40.7774 24.6555 41.6365 23.759C42.1863 23.1816 42.8135 22.6954 43.5179 22.2776C45.4251 21.138 47.5213 20.553 49.8237 20.5758C51.456 20.591 53.0626 20.7277 54.6175 21.2063C55.2275 21.3963 55.8117 21.647 56.3186 21.9965C56.9629 22.4371 57.0917 22.8625 56.8254 23.5539C56.5763 24.2073 56.0436 24.6479 55.4766 25.0658C54.188 25.9774 52.7189 26.6384 51.1038 27.0562ZM59.3855 26.9347C58.0368 28.0287 56.6106 29.0391 55.0986 29.9432C55.0213 29.9888 54.9526 30.042 54.8838 30.08C54.8065 30.1255 54.7292 30.1711 54.6347 30.1331C54.5058 30.08 54.5316 29.9736 54.5574 29.8824C54.6777 29.3962 54.5746 28.9328 54.4457 28.4617C54.3512 28.0971 54.3598 28.0743 54.755 27.9299C56.4732 27.2766 58.2 26.6232 59.9268 25.9622C60.2017 25.8559 60.4766 25.7419 60.7429 25.6356C60.7687 25.6659 60.7859 25.6887 60.8116 25.7191C60.3391 26.1294 59.8752 26.5472 59.3855 26.9347ZM64.1535 18.4029C64.1879 19.2234 64.1278 19.9908 64.0419 20.7505C63.9903 21.1759 63.8872 21.2291 63.4749 21.0164C61.834 20.1655 60.1587 19.383 58.4577 18.6536C56.9543 18.0155 55.3907 17.5217 53.7756 17.157C53.4921 17.0962 53.2172 17.0658 52.9251 17.0962C51.6708 17.2178 50.4079 17.3317 49.1536 17.4761C47.1691 17.704 45.1932 17.9623 43.2516 18.4029C42.1606 18.6536 41.1812 19.0867 40.3307 19.7553C40.1245 19.9148 39.9183 19.9832 39.6434 19.9224C37.7448 19.5273 35.9407 18.9499 34.3857 17.8711C33.2775 17.0962 32.4184 16.1541 32.006 14.931C31.628 13.8218 31.628 12.705 31.9888 11.5806C32.2895 10.6689 32.8565 9.90158 33.561 9.21782C34.1795 8.61764 34.841 8.06303 35.6056 7.6072C36.1383 7.28811 36.6967 7.00701 37.2895 6.77909C39.2138 6.04216 41.2413 5.71547 43.3118 5.55593C45.8977 5.366 48.432 5.66229 50.9578 6.14092C52.5986 6.45241 54.2223 6.85507 55.7945 7.37168C57.3838 7.89589 58.8357 8.64043 60.0814 9.67366C61.0522 10.4714 61.9457 11.3375 62.6415 12.3631C63.3202 13.3659 63.6553 14.4675 63.913 15.5995C64.1364 16.5416 64.1965 17.4989 64.1535 18.4029Z" fill="white"></path>
<path d="M55.1274 8.84799C54.6721 8.64287 54.2425 8.70364 53.8474 9.03033C53.3405 9.45577 53.2718 9.87363 53.6584 10.3978C53.8216 10.6106 53.9161 10.8005 53.7958 11.0588C53.3319 12.0237 52.679 12.8366 51.5707 13.2924C50.2649 13.8242 48.8646 13.4671 48.1172 12.3731C47.5072 11.4843 47.1893 10.5118 47.1206 9.47097C47.112 9.28864 47.1893 9.16708 47.344 9.06832C47.5416 8.94676 47.6876 8.78722 47.7993 8.60488C48.1601 8.01229 47.9024 7.31334 47.2237 7.02464C46.545 6.73595 45.7632 6.98665 45.4625 7.57924C45.1876 8.14144 45.3852 8.77962 46.0038 9.06072C46.4247 9.25065 46.5622 9.52415 46.5364 9.91161C46.5278 9.98758 46.5364 10.0712 46.5364 10.1091C46.5622 10.9145 46.3302 11.6362 46.0983 12.3579C45.9608 12.791 45.6945 13.1784 45.3766 13.5279C44.8612 14.1053 44.1653 14.3332 43.3749 14.1661C42.8251 14.0521 42.2924 13.8394 41.8457 13.4975C41.3732 13.1329 40.9007 12.7606 40.4626 12.3655C40.1275 12.0616 39.9471 11.8109 40.2392 11.3703C40.4969 10.9828 40.3079 10.4662 39.9557 10.1927C39.5605 9.88882 39.0622 9.85083 38.6155 10.0863C38.1945 10.3067 37.9969 10.6941 38.0829 11.15C38.1688 11.583 38.5811 11.9477 39.1224 11.9857C39.4488 12.0085 39.6292 12.13 39.8011 12.3731C40.3165 13.1253 40.6773 13.9458 41.0811 14.7435C41.5364 15.6476 41.8801 16.5896 42.3698 17.4785C42.7048 18.0787 42.7735 18.1091 43.4866 17.9495C44.6636 17.6836 45.8663 17.5165 47.069 17.3646C48.7443 17.1518 50.4281 16.9467 52.112 16.8099C52.5501 16.772 52.6962 16.734 52.8164 16.2401C52.9195 15.8147 53.0484 15.4044 53.1773 14.9866C53.3147 14.5384 53.4693 14.0977 53.5896 13.6495C53.77 12.9505 53.9247 12.244 54.0965 11.5374C54.191 11.1424 54.337 10.8309 54.904 10.8081C55.3594 10.7853 55.7632 10.3219 55.8147 9.91161C55.8748 9.52415 55.557 9.03793 55.1274 8.84799ZM47.344 15.9059C46.6137 15.8755 46.0038 15.2829 46.0295 14.6371C46.0553 13.9838 46.7168 13.4216 47.4385 13.4368C48.2288 13.4519 48.8216 14.0141 48.7958 14.7131C48.7701 15.4045 48.1257 15.9439 47.344 15.9059Z" fill="#E7742E"></path>
</svg></svg></g></g><defs><clipPath id="SvgjsClipPath1079"><rect width="1000" height="1000" x="0" y="0" rx="350" ry="350"></rect></clipPath></defs></svg>