<svg width="99" height="114" viewBox="0 0 99 114" fill="none" xmlns="http://www.w3.org/2000/svg">
<path d="M98.5541 31.6656C98.505 29.3271 98.2101 27.0011 97.7309 24.6997C97.0919 21.6065 96.0352 18.6989 94.1428 16.1502C91.7836 12.9828 88.9451 10.3597 85.6889 8.18213C82.9979 6.37572 80.1717 4.81675 77.2103 3.50525C74.6053 2.35458 71.9143 1.439 69.125 0.857485C67.3187 0.486303 65.4878 0.2636 63.6569 0.176991C62.2561 0.115127 60.843 -0.0704672 59.4545 0.0285146C58.152 0.115124 56.8618 0.152245 55.5593 0.263599C53.2738 0.461563 51.0743 0.981209 48.9239 1.77306C46.2329 2.76288 43.6033 3.90117 41.072 5.27455C37.9632 6.95724 35.1371 9.03585 32.5812 11.498C30.1851 13.8117 28.0716 16.3852 26.081 19.0578C25.6386 19.664 25.2086 20.2827 24.7908 20.9013C24.5696 21.2354 24.287 21.4086 23.8938 21.3838C23.6357 21.3715 23.3777 21.3962 23.1319 21.3591C21.5345 21.124 19.9248 21.2477 18.3151 21.2106C16.8037 21.1735 15.3046 21.322 13.8301 21.6932C11.1268 22.3737 8.59553 23.4377 6.40831 25.2565C5.86765 25.7143 5.68333 26.2339 5.83079 26.9021C5.99053 27.6073 6.28543 28.2136 6.78923 28.7456C7.63708 29.6241 8.60781 30.3417 9.61541 30.9974C9.83659 31.1459 10.1192 31.2201 10.2052 31.5171C10.0086 31.7274 9.79973 31.6656 9.60312 31.6903C8.10402 31.8759 6.6172 32.0862 5.17953 32.5935C4.34396 32.8905 3.61899 33.373 2.99231 33.9916C2.86944 34.1154 2.70969 34.2638 2.808 34.4618C2.91859 34.6721 3.12748 34.5732 3.28722 34.5237C4.22109 34.2515 5.17953 34.103 6.13798 33.9421C6.74008 33.8432 7.32989 33.8555 8.018 33.905C7.8214 34.1525 7.64937 34.1649 7.47734 34.202C6.60491 34.4123 5.76935 34.7216 4.93378 35.0557C2.82029 35.9094 1.08771 37.1962 0.190708 39.4356C0.12927 39.5841 0.0678317 39.7202 0.0186807 39.8687C-0.0181826 39.9677 -0.00589523 40.0914 0.104695 40.1285C0.166133 40.1532 0.264433 40.1285 0.313584 40.0914C0.633065 39.8316 0.952547 39.5717 1.25974 39.2995C3.01689 37.7529 5.03208 36.726 7.30532 36.2682C7.87055 36.1569 8.44807 35.9589 9.06246 36.0702C8.37435 36.4909 7.73538 36.9487 7.07185 37.3818C5.73248 38.2602 4.84776 39.5099 4.13507 40.908C4.04906 41.0812 3.85246 41.3039 4.02449 41.4771C4.23338 41.6751 4.36854 41.3905 4.54057 41.3039C4.60201 41.2668 4.66345 41.2173 4.72489 41.1678C7.26845 39.1511 9.98404 37.4931 13.056 36.4662C13.7195 36.2435 14.3953 36.0084 15.0957 35.8352C15.1203 36.1816 14.9114 36.3301 14.7886 36.5033C14.0636 37.5426 14.0267 38.6809 14.3093 39.8687C14.3462 40.0419 14.3708 40.2646 14.6042 40.2646C14.8254 40.277 14.8869 40.0543 14.9483 39.8934C15.747 38.0004 17.1724 36.7631 18.9295 35.8599C20.1214 35.2413 21.3748 34.8082 22.6159 34.3381C23.3285 34.0782 23.5251 33.7442 23.5129 32.9894C23.5129 32.8039 23.476 32.6306 23.4637 32.445C23.4514 32.1852 23.6112 32.0739 23.8323 32.0367C24.0781 31.9996 24.2133 32.1234 24.2624 32.3708C24.287 32.4945 24.287 32.6306 24.3116 32.7544C24.459 33.9916 24.631 35.2289 25.0365 36.4167C25.442 37.6045 25.9458 38.7304 26.5725 39.8192C26.9166 40.4007 26.8305 40.5368 26.167 40.5616C25.3192 40.5863 24.4959 40.7595 23.6726 40.9204C23.0213 41.0565 22.3701 41.2297 21.8049 41.6009C21.0799 42.071 20.4163 42.6402 20.3303 43.5805C20.2443 44.4342 20.2443 45.3003 20.4041 46.154C20.7973 48.2945 21.5837 50.2989 22.3824 52.3033C22.8247 53.4168 23.3285 54.4932 23.7955 55.5944C23.9798 56.0398 23.8938 56.1636 23.4391 56.1883C22.8985 56.2254 22.3701 56.0646 21.8663 55.9037C20.7481 55.5449 19.6299 55.1614 18.5117 54.8273C16.9881 54.3695 15.4644 53.9365 13.8547 53.9983C12.8102 54.0354 11.9255 54.4314 11.1637 55.1366C11.0039 55.2851 10.7336 55.4336 10.8073 55.6934C10.8933 55.978 11.2005 55.8666 11.4094 55.879C12.073 55.8914 12.7365 55.8666 13.4 55.879C14.3953 55.9037 15.3169 56.1883 16.1279 56.7822C16.2631 56.8812 16.4597 56.943 16.4105 57.1905C16.1648 57.339 15.8822 57.3637 15.5995 57.3884C14.6534 57.4627 13.7195 57.5493 12.7734 57.5864C11.8026 57.6235 10.8319 57.6112 9.86117 57.6112C9.39423 57.6112 8.95187 57.6854 8.53409 57.9452C7.53878 58.5639 7.03498 59.5537 6.60491 60.593C6.56805 60.692 6.55576 60.8033 6.65406 60.8776C6.74008 60.9518 6.85067 60.9394 6.93668 60.8899C7.07185 60.8281 7.20701 60.7538 7.34218 60.6796C8.25147 60.1352 9.23449 59.7888 10.2667 59.5784C11.9132 59.232 13.5721 59.3062 15.2186 59.3804C15.2555 59.3804 15.2801 59.4547 15.3415 59.5165C14.9852 59.8877 14.5428 60.1476 14.1373 60.4445C12.7365 61.4467 11.3848 62.5231 10.1929 63.7852C9.1239 64.9111 9.65227 65.9999 10.451 66.8783C10.6353 67.0763 10.8196 67.0516 10.9302 66.7794C11.0408 66.5195 11.1022 66.2349 11.2128 65.9751C11.7043 64.7378 12.4785 63.7852 13.7318 63.3026C16.2139 62.3499 18.8067 61.954 21.4362 61.6818C21.8663 61.6323 22.2964 61.5704 22.7264 61.5457C23.2302 61.5209 23.3285 61.6323 23.2425 62.1272C23.218 62.2509 23.1934 62.387 23.1565 62.5107C22.8985 63.3645 23.1319 64.1192 23.6357 64.7873C23.9429 65.1956 24.3361 65.5421 24.6925 65.9132C24.7785 65.9999 24.8891 66.0988 25.0243 66.037C25.2086 65.9504 25.1594 65.7772 25.1348 65.6287C24.7662 63.5006 25.6141 61.8921 27.2115 60.5806C27.7276 60.1599 28.3419 59.8506 28.772 59.3186C29.7427 58.1061 30.2834 56.7327 30.2588 55.149C30.2343 53.3673 29.8902 51.6351 29.5339 49.903C29.3864 49.1853 29.4601 49.0987 30.1605 49.2967C30.2343 49.3214 30.308 49.3462 30.3817 49.3709C33.3431 50.2741 36.329 51.0536 39.3886 51.598C42.0796 52.0806 44.7952 52.3775 47.5231 52.4394C48.3218 52.4517 49.1082 52.328 49.8946 52.3156C51.4306 52.3033 52.9543 52.1177 54.4657 51.9445C57.7957 51.5609 61.0765 50.9546 64.3328 50.1257C66.0162 49.705 67.6996 49.2719 69.3584 48.7275C69.9974 48.5172 70.108 48.5914 70.1203 49.2472C70.1326 50.1009 70.1326 50.967 70.108 51.8207C70.0957 52.427 69.9851 52.5383 69.4322 52.6868C69.2847 52.7239 69.1373 52.7487 68.9775 52.7858C66.0285 53.4044 63.0794 54.0354 60.1795 54.8892C55.9279 56.1264 51.7132 57.475 47.646 59.2443C44.5249 60.593 41.3792 61.9045 38.5039 63.7852C36.3658 65.1833 34.2892 66.6432 32.4092 68.3631C30.136 70.4417 28.2805 72.8791 26.8428 75.6506C25.7492 77.7663 24.9997 80.0058 24.5942 82.3442C24.0658 85.425 24.1887 88.5182 24.6802 91.599C25.1471 94.5809 26.0687 97.4018 27.4941 100.062C28.2928 101.559 29.2267 102.945 30.2957 104.232C30.8364 104.887 31.4753 105.469 32.0774 106.063C33.7485 107.733 35.6163 109.144 37.7421 110.146C40.814 111.581 43.9474 112.818 47.3142 113.326C60.2409 115.293 68.9284 112.769 72.9219 108.191C73.2414 107.832 72.799 107.288 72.2461 107.461C70.4521 108.055 69.4199 109.23 64.1116 110.579C58.8033 111.927 51.7993 111.197 50.3862 110.962C47.5231 110.492 44.7707 109.614 42.1411 108.389C40.0645 107.424 38.1107 106.261 36.3167 104.813C35.1985 103.898 34.2155 102.833 33.3185 101.695C31.6842 99.6413 30.308 97.4266 29.4478 94.9149C28.2928 91.5248 28.1208 88.0481 28.6614 84.5218C29.1161 81.6142 30.222 78.9912 31.8317 76.5538C33.2448 74.4257 34.965 72.5821 36.8819 70.9242C38.9586 69.1425 41.2072 67.6083 43.6156 66.3339C46.7613 64.6636 50.1158 63.5377 53.4827 62.5107C58.8156 60.8775 64.2713 59.7393 69.7762 58.8361C70.7838 58.6752 70.7838 58.6752 71.0664 59.7269C71.263 60.4569 71.2016 60.5806 70.4766 60.7786C69.383 61.0631 68.2894 61.323 67.2081 61.6199C65.881 61.9911 64.5416 62.3499 63.2391 62.7829C61.8138 63.2531 61.7769 64.0821 61.8998 65.1338C61.9121 65.2946 61.9489 65.4678 62.1087 65.5297C62.293 65.6039 62.3667 65.4183 62.4527 65.2946C62.9074 64.7131 63.4972 64.4038 64.2099 64.2924C66.5814 63.9212 68.9407 63.4882 71.2753 62.8943C72.0003 62.7087 72.0126 62.7211 72.3444 63.4758C72.6516 64.1687 73.1185 64.676 73.8189 64.9853C74.5685 65.3194 75.3303 65.6039 76.1167 65.8514C77.4315 66.2597 78.7586 66.668 80.0611 67.101C81.8551 67.7073 83.4402 68.6847 84.7673 70.0829C84.9639 70.2808 85.1359 70.7262 85.4677 70.5283C85.7503 70.3551 85.5537 69.9468 85.48 69.6622C85.1605 68.4744 84.4232 67.5959 83.5016 66.8536C82.5678 66.1112 81.5356 65.5545 80.4911 64.9977C80.3068 64.8987 80.0611 64.8616 79.9874 64.5894C80.3191 64.478 80.5772 64.6265 80.8598 64.6389C84.0423 64.8121 87.1265 65.4926 90.1616 66.47C90.3582 66.5319 90.5548 66.6061 90.7514 66.6185C90.948 66.6432 91.0463 66.5071 90.948 66.3215C90.862 66.1731 90.7268 66.037 90.5917 65.9256C90.0756 65.505 89.5349 65.109 88.9574 64.775C87.2863 63.7975 85.4308 63.4387 83.5631 63.0799C82.8504 62.9438 82.1377 62.8448 81.3021 62.7087C81.4987 62.5726 81.5479 62.5108 81.6093 62.4984C83.7474 61.855 85.9223 61.7065 88.1218 61.9169C88.7854 61.9787 89.4489 62.0159 90.1125 62.0653C90.2476 62.0777 90.3828 62.053 90.4197 61.9045C90.4442 61.7931 90.3951 61.6942 90.3091 61.6323C90.1862 61.5333 90.051 61.4591 89.9281 61.3848C89.4366 61.1126 88.896 60.9394 88.343 60.8157C86.1189 60.3208 83.8826 60.3703 81.6339 60.5064C80.356 60.5806 79.0903 60.6796 77.8124 60.7291C77.112 60.7538 76.6697 60.3208 76.5836 59.6032C76.5468 59.2691 76.5714 58.9227 76.6819 58.601C76.8171 58.1803 76.9891 57.772 77.1243 57.3513C77.284 56.8688 77.6158 56.5966 78.095 56.4358C81.1793 55.3593 84.0915 53.9241 86.8685 52.1919C89.8667 50.3236 92.4717 48.0223 94.3886 44.9662C96.3423 41.8607 97.5711 38.4582 98.3452 34.8701C98.5787 33.8555 98.5787 32.742 98.5541 31.6656ZM35.3337 19.6764C35.8252 17.1895 37.0785 15.0243 38.5531 12.9951C40.2242 10.6938 42.3254 8.87501 44.7952 7.5635C47.1422 6.32623 49.5875 5.22506 52.217 4.68066C53.839 4.3466 55.4733 4.03727 57.1444 4.03727C57.8325 4.03727 58.5206 3.91355 59.2088 3.91355C61.9489 3.90118 64.6522 4.24761 67.3187 4.89099C70.4766 5.6581 73.5609 6.69741 76.5222 8.05841C76.6328 8.1079 76.7803 8.12027 76.8171 8.29349C76.5836 8.35536 76.3625 8.25637 76.1536 8.19451C73.6469 7.45215 71.0787 7.00673 68.486 6.7469C67.0484 6.6108 65.5984 6.41284 64.1362 6.66029C63.7184 6.73453 63.276 6.68504 62.8336 6.69741C59.6265 6.78402 56.4809 7.21707 53.3967 8.13265C51.3077 8.75129 49.4769 9.85246 47.8057 11.2629C46.8964 12.0301 45.9994 12.7724 45.2376 13.7127C43.7753 15.5315 43.0258 17.6225 42.8783 19.9486C42.7063 22.8809 43.3699 25.6277 44.8567 28.1641C45.766 29.7107 47.1176 30.7624 48.5553 31.7151C50.3001 32.8657 52.1679 33.7565 54.1093 34.5237C54.2937 34.5979 54.4903 34.6721 54.6746 34.7587C55.2644 35.0186 55.2767 35.1052 54.7729 35.5135C51.0866 38.5201 47.0316 38.8294 42.7186 37.1838C41.7602 36.8126 40.8754 36.3053 40.0153 35.7238C37.9878 34.3752 36.6853 32.4945 35.8375 30.2056C34.5595 26.7412 34.6333 23.215 35.3337 19.6764ZM78.5128 61.6942C78.2302 62.0035 77.8616 61.9911 77.5298 62.0901C77.1612 62.2014 77.112 62.3623 77.3823 62.6345C77.6895 62.9438 78.0705 63.1665 78.4391 63.4016C78.5251 63.4511 78.6234 63.5006 78.648 63.6243C78.562 63.8346 78.3899 63.7233 78.2671 63.6985C77.6158 63.5624 76.9891 63.3397 76.3747 63.0799C76.2273 63.018 76.0676 62.9809 75.9693 63.1541C75.8955 63.2902 76.0061 63.4016 76.0553 63.513C76.2273 63.8965 76.6574 64.045 76.854 64.3914C76.8048 64.4533 76.7925 64.4904 76.7803 64.4904C75.4655 64.3914 74.2244 64.0697 73.4748 62.8819C73.0079 62.1396 72.5533 61.6447 71.5334 62.0901C71.6808 61.6447 71.9757 61.5828 72.1846 61.4591C72.8359 61.0879 73.1062 60.6301 72.9342 59.8011C72.5041 57.772 72.1969 55.7058 72.0618 53.6271C71.9512 51.9692 71.8037 50.3113 71.8406 48.6409C71.8529 48.1708 72.0126 47.8491 72.455 47.6759C73.4748 47.2676 74.4947 46.8345 75.5146 46.4386C75.9815 46.253 76.129 46.352 76.1167 46.884C76.1044 48.6286 76.1904 50.3607 76.0307 52.1053C75.9201 53.4044 75.8587 54.7036 75.6743 55.9903C75.5515 56.8441 75.404 57.6854 75.1705 58.5144C75.1337 58.6628 75.0968 58.8113 75.06 58.9722C74.7528 60.4569 75.0231 60.9147 76.4731 61.3725C77.1366 61.558 77.8247 61.5704 78.5128 61.6942ZM73.0939 44.063C70.747 44.7435 68.3877 45.2384 65.9302 45.1642C65.1069 45.1395 64.2959 45.0281 63.5095 44.8425C61.8752 44.4466 60.4498 43.2959 60.327 41.2297C60.327 41.1554 60.2778 41.0936 60.2286 40.9451C59.0736 41.9473 58.9999 43.7166 60.0075 44.9044C60.8922 45.9561 62.0472 46.5252 63.3252 46.8964C64.1361 47.1315 64.9594 47.2923 65.7827 47.4903C65.9425 47.5274 66.1513 47.4903 66.2496 47.7006C66.2128 47.9481 66.0039 47.9357 65.8442 47.9852C62.7722 48.9008 59.6757 49.6555 56.5055 50.1257C54.7606 50.3855 53.0157 50.6082 51.2586 50.6948C50.0544 50.7567 48.8625 50.8185 47.6706 50.8062C44.5986 50.7938 41.5636 50.4102 38.5776 49.6802C34.2401 48.6162 30.0499 47.1562 25.9827 45.3003C25.7492 45.1889 25.4789 44.9167 25.2209 45.2013C24.9997 45.4611 25.2209 45.7457 25.3314 45.9932C25.7124 46.8345 26.3882 47.4037 27.1009 47.8986C27.8013 48.3811 28.0593 48.9626 27.9979 49.804C27.8873 51.2392 28.1453 52.6621 28.3665 54.0726C28.5631 55.3841 28.4771 56.6708 27.8996 57.8834C27.3466 59.0588 26.4742 59.665 25.1348 59.7516C22.0752 59.9372 19.0278 60.2342 16.0542 61.0384C15.919 61.0755 15.7593 61.1497 15.5995 60.9642C16.1525 60.2094 16.7792 59.5784 17.6639 59.2072C17.8851 59.1206 18.2414 59.0959 18.1923 58.7618C18.1431 58.4277 17.8113 58.4896 17.5656 58.4649C17.4427 58.4525 17.3075 58.4773 17.1724 58.3535C17.2707 57.9947 17.6147 57.9823 17.8728 57.8834C18.6838 57.5617 18.7329 57.339 18.18 56.6832C17.9465 56.3986 17.6147 56.2502 17.3198 56.0398C17.4427 55.7552 17.6393 55.8666 17.799 55.8913C18.438 56.0027 19.0155 56.2749 19.5562 56.6337C20.0477 56.9678 20.5269 57.3142 21.0553 57.5864C21.9892 58.0689 22.9845 58.2545 24.0289 58.1679C24.4344 58.1308 24.8399 58.0442 25.2086 57.8462C26.0933 57.3637 26.4373 56.6708 26.2899 55.6439C26.0687 54.1344 25.5035 52.7487 24.9137 51.3506C24.3239 49.9277 23.5989 48.5914 22.8862 47.2304C22.6281 46.7479 22.4315 46.2406 22.2964 45.7086C22.0015 44.5579 22.4561 43.63 23.5497 43.2217C24.4836 42.8629 25.4666 42.6278 26.4619 42.5783C28.2191 42.4793 29.9885 42.4669 31.7334 42.7886C34.068 43.2341 36.4027 43.7042 38.6514 44.5084C38.8357 44.5703 39.02 44.7188 39.2289 44.5579C39.2412 44.2981 39.0323 44.2115 38.8725 44.0878C37.398 42.8505 35.7023 42.1205 33.8837 41.6256C32.6549 41.2915 31.4016 41.0193 30.136 40.8214C29.4847 40.7224 29.0423 40.4007 28.6737 39.8316C27.7398 38.3468 27.1623 36.7136 26.6708 35.0309C26.2899 33.7071 25.995 32.3584 25.7124 31.0098C25.528 30.1313 25.442 30.0571 24.5204 30.0571C23.7586 30.0571 22.9845 30.0571 22.2226 30.0571C20.0477 30.0819 17.9711 29.5622 15.9436 28.8075C15.2309 28.5353 14.5305 28.226 13.781 27.929C13.6335 28.3497 13.9161 28.5353 14.1004 28.758C15.1695 30.02 16.5211 30.8118 18.0817 31.282C19.0893 31.579 20.0969 31.8512 21.129 32.0491C21.3011 32.0862 21.4854 32.111 21.6451 32.1852C22.1612 32.4203 22.2595 33.0018 21.854 33.3977C21.7311 33.5215 21.5714 33.6205 21.4117 33.7071C20.3058 34.2638 19.1507 34.6721 17.9588 34.9691C17.4673 35.0928 17.455 35.0681 17.5779 34.5484C17.6516 34.2143 17.5779 34.1154 17.2461 34.1896C17.0495 34.2267 16.8529 34.301 16.6563 34.3752C14.8869 34.9691 13.1174 35.5753 11.3848 36.2806C11.2497 36.3425 11.1145 36.4167 10.9425 36.3919C10.8565 36.1445 11.0654 36.0703 11.176 35.9589C11.3234 35.8228 11.5077 35.7114 11.6552 35.5753C11.7903 35.464 11.9992 35.3774 11.9378 35.1547C11.8764 34.9443 11.6675 34.9196 11.4954 34.9196C10.6844 34.8948 9.86117 34.833 9.05017 35.0186C8.80442 35.0681 8.57095 35.1175 8.30062 35.1052C8.59553 34.7464 9.0256 34.6474 9.40652 34.4742C10.0209 34.1896 10.0332 34.1649 9.8243 33.4225C11.1637 33.3111 12.4539 32.8781 13.8301 33.175C14.8254 33.3977 15.8453 33.5462 16.8652 33.373C17.0126 33.3483 17.1724 33.3359 17.3075 33.274C17.4673 33.1874 17.5164 33.0142 17.3321 32.9152C17.1601 32.8162 16.9512 32.7667 16.7546 32.7172C14.5551 32.0367 12.3924 31.2449 10.4141 30.02C9.71371 29.5869 9.11161 29.0178 8.48494 28.4858C8.44808 28.4487 8.41121 28.4115 8.37435 28.3744C7.44048 27.1619 7.32989 26.3453 8.90272 25.5411C9.98404 24.9843 11.1391 24.6502 12.3064 24.378C14.8991 23.7718 17.5164 23.3758 20.1952 23.5243C21.8049 23.6109 23.39 23.8213 24.9751 24.1429C25.9458 24.3409 25.9335 24.3285 26.3636 23.4501C27.0271 22.1014 27.6415 20.7281 28.6614 19.5898C28.9563 19.2557 29.2881 18.9835 29.6199 18.6989C29.755 18.5876 29.9025 18.4144 30.0868 18.5134C30.2957 18.6247 30.1605 18.835 30.136 19.0083C29.9885 19.9362 29.9148 20.8642 29.7919 21.7921C29.497 24.2296 29.7182 26.6299 30.2588 28.9931C30.5046 30.0571 30.7626 31.1212 31.0821 32.1605C31.549 33.7194 32.3723 35.1052 33.257 36.4414C34.793 38.8046 36.8328 40.6358 39.2043 42.0834C39.9539 42.5412 40.7526 42.8752 41.5881 43.1103C43.5419 43.6671 45.5325 44.0012 47.5477 44.1125C50.2633 44.261 52.8069 43.5434 55.1784 42.2071C56.8249 41.2792 58.324 40.1533 59.5528 38.6933C60.3392 37.7529 61.2362 36.9611 62.2438 36.2806C64.9717 34.4247 67.9699 33.472 71.263 33.5091C73.5977 33.5338 75.8955 33.7566 78.1196 34.536C78.992 34.8454 79.8276 35.2537 80.5526 35.8228C81.4742 36.5404 81.6585 37.2333 81.2776 38.3592C80.9212 39.4233 80.1594 40.1409 79.3484 40.8214C77.5052 42.3061 75.404 43.3825 73.0939 44.063ZM84.9393 43.8651C83.0101 45.6467 80.9704 47.2923 78.8077 48.7647C78.6971 48.8389 78.5988 48.9255 78.5005 48.9874C78.3899 49.0616 78.2794 49.1358 78.1442 49.074C77.9599 48.9874 77.9967 48.8142 78.0336 48.6657C78.2056 47.8738 78.0582 47.1191 77.8739 46.352C77.7387 45.7581 77.751 45.721 78.3162 45.4859C80.7738 44.4218 83.2436 43.3578 85.7134 42.2814C86.1067 42.1081 86.4999 41.9226 86.8808 41.7493C86.9176 41.7988 86.9422 41.8359 86.9791 41.8854C86.3033 42.5536 85.6397 43.2341 84.9393 43.8651ZM91.759 29.9705C91.8082 31.3068 91.7222 32.5564 91.5993 33.7937C91.5256 34.4865 91.3781 34.5732 90.7883 34.2267C88.4413 32.841 86.0452 31.5666 83.6122 30.3788C81.4619 29.3395 79.2255 28.5353 76.9154 27.9414C76.5099 27.8424 76.1167 27.7929 75.6989 27.8424C73.9049 28.0404 72.0986 28.226 70.3046 28.461C67.4661 28.8322 64.64 29.2529 61.8629 29.9705C60.3024 30.3788 58.9016 31.084 57.6851 32.1728C57.3902 32.4327 57.0953 32.544 56.7021 32.445C53.9865 31.8017 51.406 30.8613 49.182 29.1044C47.5968 27.8424 46.3681 26.3082 45.7783 24.3162C45.2376 22.5097 45.2376 20.691 45.7537 18.8598C46.1838 17.3751 46.9947 16.1254 48.0023 15.0119C48.8871 14.0344 49.8332 13.1312 50.9268 12.3889C51.6887 11.8692 52.4874 11.4114 53.3352 11.0402C56.0877 9.84009 58.9876 9.30806 61.9489 9.04823C65.6476 8.73891 69.2724 9.22144 72.885 10.0009C75.232 10.5082 77.5544 11.164 79.803 12.0053C82.0763 12.859 84.1529 14.0716 85.9346 15.7542C87.3231 17.0534 88.6011 18.4639 89.5964 20.1342C90.5671 21.7674 91.0463 23.5614 91.415 25.405C91.7344 26.9392 91.8204 28.4981 91.759 29.9705Z" fill="white"/>
<path d="M78.8489 14.41C78.1977 14.0759 77.5833 14.1749 77.018 14.7069C76.2931 15.3998 76.1947 16.0803 76.7477 16.934C76.9812 17.2804 77.1163 17.5898 76.9443 18.0104C76.2808 19.5818 75.3469 20.9056 73.7618 21.648C71.894 22.5141 69.8911 21.9326 68.8221 20.1509C67.9497 18.7033 67.495 17.1196 67.3967 15.4245C67.3844 15.1276 67.495 14.9296 67.7162 14.7688C67.9988 14.5708 68.2077 14.311 68.3674 14.014C68.8835 13.049 68.5149 11.9107 67.5442 11.4405C66.5734 10.9704 65.4553 11.3786 65.0252 12.3437C64.632 13.2593 64.9146 14.2986 65.7993 14.7564C66.4014 15.0657 66.598 15.5111 66.5611 16.1421C66.5489 16.2659 66.5611 16.402 66.5611 16.4638C66.598 17.7753 66.2662 18.9508 65.9345 20.1262C65.7379 20.8314 65.357 21.4624 64.9023 22.0316C64.165 22.9719 63.1697 23.3431 62.0393 23.0709C61.2528 22.8853 60.491 22.5388 59.852 21.9821C59.1762 21.3882 58.5004 20.7819 57.8737 20.1385C57.3945 19.6436 57.1364 19.2353 57.5542 18.5177C57.9229 17.8867 57.6525 17.0454 57.1487 16.5999C56.5835 16.105 55.8708 16.0432 55.2318 16.4267C54.6297 16.7855 54.3471 17.4165 54.47 18.1589C54.5929 18.8641 55.1827 19.458 55.9568 19.5199C56.4238 19.557 56.6818 19.755 56.9276 20.1509C57.6648 21.3758 58.1809 22.7121 58.7584 24.0112C59.4097 25.4835 59.9012 27.0178 60.6016 28.4654C61.0808 29.4428 61.1791 29.4923 62.199 29.2325C63.8824 28.7994 65.6027 28.5272 67.323 28.2798C69.7191 27.9334 72.1275 27.5993 74.5359 27.3766C75.1626 27.3147 75.3715 27.2528 75.5435 26.4486C75.6909 25.7558 75.8753 25.0876 76.0596 24.4071C76.2562 23.6771 76.4774 22.9595 76.6494 22.2295C76.9074 21.0912 77.1286 19.9406 77.3744 18.7899C77.5095 18.1465 77.7184 17.6392 78.5294 17.6021C79.1807 17.565 79.7582 16.8103 79.8319 16.1421C79.9179 15.5111 79.4633 14.7193 78.8489 14.41ZM67.7162 25.9042C66.6717 25.8547 65.7993 24.8897 65.8362 23.838C65.873 22.7739 66.8192 21.8583 67.8514 21.8831C68.9818 21.9078 69.8297 22.8234 69.7928 23.9617C69.756 25.0876 68.8344 25.9661 67.7162 25.9042Z" fill="#E7742E"/>
</svg>
