<svg width="36" height="28" viewBox="0 0 36 28" fill="none" xmlns="http://www.w3.org/2000/svg">
<path fill-rule="evenodd" clip-rule="evenodd" d="M22.8775 3.48144C23.1968 3.17317 23.6298 3 24.0813 3C24.5328 3 24.9658 3.17317 25.2851 3.48144L35.5015 13.3474C35.8207 13.6557 36 14.0739 36 14.5099C36 14.9459 35.8207 15.3641 35.5015 15.6725L25.2851 25.5384C24.964 25.8379 24.5339 26.0037 24.0875 25.9999C23.641 25.9962 23.2139 25.8233 22.8982 25.5184C22.5825 25.2135 22.4035 24.8011 22.3996 24.37C22.3957 23.9388 22.5673 23.5235 22.8775 23.2133L30.1873 16.1543H1.70272C1.25113 16.1543 0.818037 15.981 0.498715 15.6726C0.179393 15.3643 0 14.946 0 14.5099C0 14.0738 0.179393 13.6556 0.498715 13.3472C0.818037 13.0388 1.25113 12.8656 1.70272 12.8656H30.1873L22.8775 5.80651C22.5583 5.49816 22.379 5.07999 22.379 4.64397C22.379 4.20796 22.5583 3.78979 22.8775 3.48144Z" fill="#E7742E"/>
</svg>
