<svg width="32" height="28" viewBox="0 0 32 28" fill="none" xmlns="http://www.w3.org/2000/svg">
<path fill-rule="evenodd" clip-rule="evenodd" d="M16.9946 2.50237C17.3111 2.1807 17.7402 2 18.1877 2C18.6352 2 19.0643 2.1807 19.3808 2.50237L29.5059 12.7973C29.8223 13.119 30 13.5554 30 14.0104C30 14.4653 29.8223 14.9017 29.5059 15.2234L19.3808 25.5183C19.0625 25.8309 18.6362 26.0038 18.1938 25.9999C17.7513 25.996 17.3281 25.8156 17.0152 25.4974C16.7023 25.1793 16.5248 24.749 16.521 24.2991C16.5171 23.8492 16.6872 23.4158 16.9946 23.0922L24.2392 15.7262H4.68752C4.23996 15.7262 3.81074 15.5454 3.49426 15.2236C3.17779 14.9018 3 14.4654 3 14.0104C3 13.5553 3.17779 13.1189 3.49426 12.7971C3.81074 12.4753 4.23996 12.2945 4.68752 12.2945H24.2392L16.9946 4.92853C16.6783 4.60677 16.5005 4.17042 16.5005 3.71545C16.5005 3.26048 16.6783 2.82413 16.9946 2.50237Z" fill="#E7742E"/>
</svg>
