<svg width="28" height="28" viewBox="0 0 28 28" fill="none" xmlns="http://www.w3.org/2000/svg">
<path d="M6.37142 19.4678L14.0103 12.3966L21.6491 19.4678C21.8314 19.6365 22.0478 19.7704 22.2859 19.8617C22.5241 19.953 22.7793 20 23.0371 20C23.2949 20 23.5501 19.953 23.7883 19.8617C24.0264 19.7704 24.2428 19.6365 24.4251 19.4678C24.6073 19.2991 24.7519 19.0988 24.8506 18.8783C24.9492 18.6579 25 18.4216 25 18.183C25 17.9443 24.9492 17.7081 24.8506 17.4876C24.7519 17.2672 24.6073 17.0668 24.4251 16.8981L15.3884 8.53297C15.2063 8.36402 14.9899 8.22998 14.7517 8.13853C14.5136 8.04708 14.2583 8 14.0004 8C13.7426 8 13.4873 8.04708 13.2491 8.13853C13.0109 8.22998 12.7946 8.36402 12.6124 8.53297L3.57576 16.8981C3.39324 17.0667 3.24845 17.267 3.14965 17.4875C3.05085 17.7079 3 17.9443 3 18.183C3 18.4216 3.05085 18.658 3.14965 18.8785C3.24845 19.0989 3.39324 19.2992 3.57576 19.4678C4.34358 20.1603 5.60359 20.1786 6.37142 19.4678Z" fill="#E7742E"/>
</svg>
