<svg width="31" height="31" viewBox="0 0 31 31" fill="none" xmlns="http://www.w3.org/2000/svg">
<path fill-rule="evenodd" clip-rule="evenodd" d="M24.2181 26.5227C24.8545 27.1591 25.8863 27.1591 26.5227 26.5227C27.1591 25.8863 27.1591 24.8546 26.5227 24.2182L17.3046 15.0001L26.5228 5.78199C27.1591 5.14561 27.1591 4.11383 26.5228 3.47745C25.8864 2.84106 24.8546 2.84107 24.2182 3.47745L15.0001 12.6956L5.78182 3.47729C5.14544 2.8409 4.11367 2.8409 3.47729 3.47729C2.8409 4.11367 2.84091 5.14545 3.47729 5.78183L12.6956 15.0001L3.47738 24.2183C2.841 24.8547 2.841 25.8865 3.47738 26.5229C4.11376 27.1593 5.14554 27.1593 5.78192 26.5229L15.0001 17.3047L24.2181 26.5227Z" fill="#E7742E"/>
</svg>
