<svg width="32" height="32" viewBox="0 0 32 32" fill="none" xmlns="http://www.w3.org/2000/svg">
<path fill-rule="evenodd" clip-rule="evenodd" d="M27.9976 16.4946C28.3193 16.8111 28.5 17.2402 28.5 17.6877C28.5 18.1352 28.3193 18.5643 27.9976 18.8808L17.7027 29.0059C17.381 29.3223 16.9446 29.5 16.4896 29.5C16.0347 29.5 15.5983 29.3223 15.2766 29.0059L4.98165 18.8808C4.6691 18.5625 4.49616 18.1362 4.50006 17.6938C4.50397 17.2513 4.68443 16.8281 5.00255 16.5152C5.32068 16.2023 5.75103 16.0248 6.20091 16.021C6.65079 16.0171 7.08421 16.1872 7.40782 16.4946L14.7738 23.7392L14.7738 4.18752C14.7738 3.73996 14.9546 3.31074 15.2764 2.99426C15.5982 2.67779 16.0346 2.5 16.4896 2.5C16.9447 2.5 17.3811 2.67779 17.7029 2.99426C18.0247 3.31074 18.2055 3.73996 18.2055 4.18752V23.7392L25.5715 16.4946C25.8932 16.1783 26.3296 16.0005 26.7845 16.0005C27.2395 16.0005 27.6759 16.1783 27.9976 16.4946Z" fill="#E7742E"/>
</svg>
