<svg width="44" height="44" viewBox="0 0 44 44" fill="none" xmlns="http://www.w3.org/2000/svg">
<path d="M22 43.8563C34.1503 43.8563 44 34.0388 44 21.9282C44 9.81767 34.1503 0.00012207 22 0.00012207C9.84974 0.00012207 0 9.81767 0 21.9282C0 34.0388 9.84974 43.8563 22 43.8563Z" fill="#E7742E"/>
<path d="M21.9736 6.07045C23.3544 6.07045 24.4736 4.95482 24.4736 3.57862C24.4736 2.20242 23.3544 1.08679 21.9736 1.08679C20.5929 1.08679 19.4736 2.20242 19.4736 3.57862C19.4736 4.95482 20.5929 6.07045 21.9736 6.07045Z" fill="white"/>
<path d="M22.7691 7.5722V15.1823C25.8372 15.6611 28.1846 18.3101 28.1846 21.5068C28.1846 25.0426 25.313 27.9089 21.7705 27.9089C18.2281 27.9089 15.3564 25.0426 15.3564 21.5068C15.3564 18.3101 17.7039 15.661 20.7719 15.1823V7.5722C13.5065 8.08388 7.77051 14.1248 7.77051 21.5068C7.77051 29.2243 14.0385 35.4807 21.7705 35.4807C29.5024 35.4807 35.7705 29.2244 35.7705 21.5068C35.7705 14.1248 30.0345 8.08388 22.7691 7.5722Z" fill="white"/>
</svg>
