<svg width="134" height="78" viewBox="0 0 134 78" fill="none" xmlns="http://www.w3.org/2000/svg">
<path d="M124.725 26.2359C124.314 25.6868 123.903 25.2751 121.849 25.1378C121.301 25.1378 119.657 25.0003 116.78 25.0003C109.246 25.0003 104.041 27.3336 101.438 31.8631C102.123 27.3336 97.7399 25.0003 88.151 25.0003C76.9185 25.0003 69.7954 29.5298 66.9188 38.7259C65.8229 42.1573 65.8229 44.9024 66.6448 47.0985H63.9051C61.8504 47.2361 59.1108 47.3731 57.33 47.3731C53.2205 47.3731 50.6179 46.6868 49.659 45.3142C48.8371 44.0789 48.8371 41.7456 49.933 38.3141C51.7138 32.6867 55.9602 30.216 62.8093 30.216C66.3709 30.216 69.7954 30.6279 69.7954 30.6279C70.2065 30.6279 70.4803 30.0789 70.4803 29.6672L70.343 29.2553L70.0693 27.3337C69.9321 26.0984 68.9735 25.4122 67.3297 25.1376C65.8229 25 64.5901 25 62.9463 25C62.9463 25 62.9463 25 62.809 25C53.9051 25 47.6039 28.0197 44.1794 33.7845C45.4122 27.8824 41.3027 25 31.8509 25C26.5086 25 22.6732 25.1376 20.4814 25.4119C18.7007 25.6862 17.6048 26.3727 17.1938 27.608L16.3719 30.0786C16.2346 30.4905 16.5092 30.7649 17.0569 30.7649C17.4679 30.7649 19.1116 30.4904 21.8512 30.353C25.5498 30.0784 28.1524 29.9411 29.9332 29.9411C35.1385 29.9411 37.4673 31.3137 36.6454 33.9215C36.5081 34.4706 36.0974 34.8823 35.4125 35.0195C30.4811 35.8431 26.5086 36.3921 23.632 36.8039C15.4131 37.902 10.6187 40.3726 9.38583 44.4903C7.60507 50.1178 11.9885 52.8629 22.5362 52.8629C27.7415 52.8629 32.2619 52.5883 35.8235 51.9022C37.8782 51.4902 38.9741 51.0786 39.385 49.706L41.3027 43.3923C41.1655 49.706 45.4122 52.8629 54.453 52.8629C58.2886 52.8629 61.9871 52.7254 63.7679 52.451C65.5486 52.1765 66.5075 51.7647 66.9184 50.3921L67.3295 48.4706C69.2473 51.4902 73.4938 53 79.9319 53C86.781 53 90.7535 52.8625 91.8493 52.451C92.8082 52.1765 93.3562 51.6275 93.6301 50.9412C93.6301 50.8036 93.6301 50.6666 93.7674 50.5293L94.5893 47.9214C94.7266 47.5095 94.452 47.2351 93.9044 47.2351L89.5209 47.5097C86.6443 47.6473 84.3157 47.7843 82.6719 47.7843C79.5213 47.7843 77.4665 47.5097 76.2337 47.0979C74.4529 46.4116 73.631 45.1764 73.768 43.1175L87.6032 41.3332C93.7674 40.5096 98.0138 38.5881 100.069 35.5684L95.2742 51.6274C95.1369 51.902 95.2742 52.1764 95.4115 52.3137C95.5488 52.4513 95.8226 52.5882 96.3703 52.5882H102.124C103.083 52.5882 103.493 52.0392 103.63 51.6274L108.699 33.9214C109.384 31.588 111.438 30.49 115.274 30.49C118.698 30.49 121.164 30.49 122.808 30.6275H122.945C123.219 30.6275 123.767 30.49 124.178 29.804L125 27.3334C125 26.9215 125 26.5098 124.726 26.2354L124.725 26.2359ZM32.3992 47.3734C30.6184 47.6479 28.0158 47.7853 24.7282 47.7853C18.838 47.7853 16.3723 46.5499 17.0572 44.2166C17.6051 42.5695 19.1119 41.4715 21.5776 41.197L34.8649 39.4126L32.3992 47.3734ZM93.6304 33.0987C93.0824 34.883 90.4797 36.1184 85.8223 36.8046L74.7268 38.3145L75.0008 37.3536C75.9597 34.334 77.1926 32.4124 78.8363 31.3144C80.4801 30.2163 83.2197 29.6673 87.0553 29.6673C92.1236 29.8049 94.3154 30.9026 93.6304 33.0987H93.6304Z" fill="#E7742E"/>
</svg>
