<svg width="134" height="78" viewBox="0 0 134 78" fill="none" xmlns="http://www.w3.org/2000/svg">
<path fill-rule="evenodd" clip-rule="evenodd" d="M80.9256 4C81.3742 8.06189 79.7457 12.1371 77.3335 15.0679C74.921 17.9944 70.9632 20.2746 67.0878 19.9732C66.5568 15.994 68.5162 11.8447 70.7498 9.25451C73.2449 6.32372 77.4507 4.13992 80.9256 4ZM92.2323 27.4448C91.6284 27.8212 85.024 31.9364 85.0975 40.2946C85.1882 50.395 93.6708 53.8454 93.9915 53.9758C93.9958 53.9776 93.9987 53.9787 94 53.9793C93.9974 53.9878 93.9932 54.0016 93.9876 54.0205C93.8304 54.5442 92.4927 59.0012 89.4108 63.6012C86.6439 67.7195 83.7767 71.8249 79.2586 71.9144C77.0884 71.954 75.6372 71.3131 74.1291 70.647C72.5497 69.9495 70.9078 69.2244 68.3122 69.2244C65.5941 69.2244 63.8763 69.9706 62.2208 70.6898C60.7858 71.3132 59.3976 71.9162 57.4453 71.9954C53.0818 72.1659 49.7632 67.5404 46.9754 63.435C41.2828 55.0366 36.9276 39.702 42.7749 29.3553C45.6755 24.2139 50.8624 20.9611 56.4965 20.8759C58.9237 20.8275 61.2756 21.7787 63.3343 22.6113C64.9056 23.2468 66.3061 23.8132 67.4387 23.8132C68.4549 23.8132 69.8179 23.2652 71.4075 22.6262C73.9105 21.62 76.9752 20.3879 80.1321 20.7139C82.2971 20.8076 88.3659 21.6048 92.2655 27.4241C92.2581 27.4288 92.247 27.4357 92.2323 27.4448Z" fill="#E7742E"/>
</svg>
