<svg width="134" height="78" viewBox="0 0 134 78" fill="none" xmlns="http://www.w3.org/2000/svg">
<path d="M124.536 33.1308V27H102.032C97.334 27 95.217 29.9056 94.869 32.724V32.8111V27H88.257V33.1308H94.84H124.536ZM94.84 35.339L88.228 34.9613V42.0218C88.228 44.23 87.126 44.8983 83.298 44.8983H78.02C74.859 44.8983 73.525 43.9976 73.525 42.0218V34.293L66.826 33.799V42.5738H66.681C66.304 40.0169 65.347 37.0533 58.967 36.6174L38 35.2228C38 38.4479 40.291 40.3656 43.887 40.7433L58.503 42.2252C59.663 42.3124 60.504 42.661 60.504 43.6199C60.504 44.6659 59.634 44.7821 58.3 44.7821H37.739V35.2228L31.04 34.7869V51H58.329C64.419 51 66.362 47.8329 66.652 45.1889H66.797C67.551 49.3729 71.205 51 77.382 51H84.197C91.418 51 94.84 48.7918 94.84 43.6199V35.339ZM116.097 36.5884L95.13 35.339C95.13 38.5642 97.247 40.7143 100.843 41.0048L115.778 42.1671C116.938 42.2542 117.634 42.5448 117.634 43.5036C117.634 44.4044 116.822 44.753 115.14 44.753H94.782V51H115.575C122.129 51 125 48.7046 125 43.4746C125 38.7676 122.419 36.9952 116.097 36.5884ZM66.826 27H73.525V33.1308H66.826V27ZM27.357 34.4964L20.078 33.77L9 51H17.149L27.357 34.4964ZM65.608 27H45.163C40.407 27 38.319 29.9637 37.826 32.8111V27H26.487C24.892 27 24.138 27.4939 23.384 28.5981L20.252 33.1308H65.608V27Z" fill="#E7742E"/>
</svg>
