<svg width="160" height="96" viewBox="0 0 160 96" fill="none" xmlns="http://www.w3.org/2000/svg">
<g clip-path="url(#clip0_865_14847)">
<path d="M38.6938 29.5L121.31 29.4813C123.9 29.4804 126 27.4387 126 24.9206L125.998 16.058C125.998 13.5399 123.898 11.4991 121.306 11.5L38.6902 11.5187C36.0996 11.5196 34 13.5614 34 16.0794L34.0018 24.9411C34.0028 27.4592 36.1033 29.5 38.6938 29.5ZM116.059 17.9516C117.502 17.9516 118.672 19.0889 118.672 20.492C118.672 21.895 117.502 23.0323 116.059 23.0323C114.616 23.0323 113.445 21.895 113.445 20.492C113.445 19.0889 114.616 17.9516 116.059 17.9516ZM106.071 17.9534C107.515 17.9534 108.685 19.0907 108.685 20.4938C108.685 21.8968 107.515 23.0341 106.071 23.0341C104.628 23.0341 103.458 21.8968 103.458 20.4938C103.458 19.0907 104.628 17.9534 106.071 17.9534ZM96.0834 17.9561C97.5268 17.9561 98.6969 19.0934 98.6969 20.4964C98.6969 21.8995 97.5268 23.0368 96.0834 23.0368C94.6399 23.0368 93.4699 21.8995 93.4699 20.4964C93.4699 19.0934 94.6399 17.9561 96.0834 17.9561ZM41.3303 20.2083C41.3303 18.9765 42.3663 17.9686 43.6336 17.9686L81.9643 17.9597C83.2315 17.9597 84.2685 18.9667 84.2685 20.1985V20.8006C84.2685 22.0315 83.2315 23.0394 81.9652 23.0403L43.6345 23.0493C42.3672 23.0493 41.3303 22.0422 41.3303 20.8104V20.2083Z" fill="#E7742E"/>
<path d="M121.306 33.5L38.6902 33.5187C36.0996 33.5196 34 35.5612 34 38.0792L34.0018 46.9414C34.0028 49.4593 36.1033 51.5 38.6938 51.5L121.31 51.4813C123.9 51.4804 126 49.4388 126 46.9208L125.998 38.0595C125.998 35.5398 123.898 33.4991 121.306 33.5ZM84.2685 42.7992C84.2685 44.031 83.2315 45.0389 81.9652 45.0389L43.6345 45.0478C42.3672 45.0478 41.3303 44.0408 41.3303 42.8091V42.207C41.3303 40.9753 42.3663 39.9674 43.6336 39.9674L81.9643 39.9585C83.2315 39.9585 84.2685 40.9654 84.2685 42.1972V42.7992ZM96.0834 45.0362C94.6399 45.0362 93.4699 43.899 93.4699 42.496C93.4699 41.093 94.6399 39.9558 96.0834 39.9558C97.5269 39.9558 98.6969 41.093 98.6969 42.496C98.6969 43.899 97.5269 45.0362 96.0834 45.0362ZM106.071 45.0335C104.628 45.0335 103.458 43.8963 103.458 42.4933C103.458 41.0903 104.628 39.9531 106.071 39.9531C107.515 39.9531 108.685 41.0903 108.685 42.4933C108.685 43.8963 107.515 45.0335 106.071 45.0335ZM116.059 45.0309C114.616 45.0309 113.445 43.8936 113.445 42.4906C113.445 41.0876 114.616 39.9504 116.059 39.9504C117.502 39.9504 118.672 41.0876 118.672 42.4906C118.672 43.8936 117.502 45.0309 116.059 45.0309Z" fill="#E7742E"/>
<path d="M121.306 55.5L38.6902 55.5187C36.0996 55.5196 34 57.5613 34 60.0794L34.0018 68.9411C34.0028 71.4592 36.1033 73.5 38.6938 73.5L121.31 73.4813C123.9 73.4804 126 71.4387 126 68.9206L125.998 60.0589C125.998 57.5408 123.898 55.5 121.306 55.5ZM84.2685 64.8006C84.2685 66.0315 83.2315 67.0394 81.9652 67.0403L43.6345 67.0493C42.3672 67.0493 41.3303 66.0422 41.3303 64.8104V64.2083C41.3303 62.9765 42.3663 61.9686 43.6336 61.9686L81.9643 61.9597C83.2315 61.9597 84.2685 62.9667 84.2685 64.1985V64.8006ZM96.0834 67.0368C94.6399 67.0368 93.4699 65.8995 93.4699 64.4964C93.4699 63.0934 94.6399 61.9561 96.0834 61.9561C97.5268 61.9561 98.6969 63.0934 98.6969 64.4964C98.6969 65.8995 97.5268 67.0368 96.0834 67.0368ZM106.071 67.035C104.628 67.035 103.458 65.8977 103.458 64.4946C103.458 63.0916 104.628 61.9543 106.071 61.9543C107.515 61.9543 108.685 63.0916 108.685 64.4946C108.685 65.8977 107.515 67.035 106.071 67.035ZM116.059 67.0323C114.616 67.0323 113.445 65.895 113.445 64.492C113.445 63.0889 114.616 61.9516 116.059 61.9516C117.502 61.9516 118.672 63.0889 118.672 64.492C118.672 65.895 117.502 67.0323 116.059 67.0323Z" fill="#E7742E"/>
<path d="M121.306 77.5L38.6902 77.5187C36.0996 77.5196 34 79.5613 34 82.0794L34.0018 90.9411C34.0028 93.4592 36.1033 95.5 38.6938 95.5L121.31 95.4813C123.9 95.4804 126 93.4387 126 90.9206L125.998 82.058C125.998 79.5399 123.898 77.4991 121.306 77.5ZM84.2685 86.8006C84.2685 88.0315 83.2315 89.0394 81.9652 89.0403L43.6345 89.0493C42.3672 89.0493 41.3303 88.0422 41.3303 86.8104V86.2083C41.3303 84.9765 42.3663 83.9686 43.6336 83.9686L81.9643 83.9597C83.2315 83.9597 84.2685 84.9667 84.2685 86.1985V86.8006ZM96.0834 89.0368C94.6399 89.0368 93.4699 87.8995 93.4699 86.4964C93.4699 85.0934 94.6399 83.9561 96.0834 83.9561C97.5268 83.9561 98.6969 85.0934 98.6969 86.4964C98.6969 87.8995 97.5268 89.0368 96.0834 89.0368ZM106.071 89.0341C104.628 89.0341 103.458 87.8968 103.458 86.4938C103.458 85.0907 104.628 83.9534 106.071 83.9534C107.515 83.9534 108.685 85.0907 108.685 86.4938C108.685 87.8968 107.515 89.0341 106.071 89.0341ZM116.059 89.0323C114.616 89.0323 113.445 87.895 113.445 86.492C113.445 85.0889 114.616 83.9516 116.059 83.9516C117.502 83.9516 118.672 85.0889 118.672 86.492C118.672 87.895 117.502 89.0323 116.059 89.0323Z" fill="#E7742E"/>
</g>
<defs>
<clipPath id="clip0_865_14847">
<rect width="160" height="95" fill="white" transform="translate(0 0.5)"/>
</clipPath>
</defs>
</svg>
