<svg width="134" height="78" viewBox="0 0 134 78" fill="none" xmlns="http://www.w3.org/2000/svg">
<path d="M64.6191 30.5556L56.1738 37.0525C55.3078 33.8036 52.4914 31.4207 49.0263 31.4207H42.963V46.3637H49.0263C52.4913 46.3637 55.5226 43.9805 56.1723 40.7321L64.6189 47.2289L73.0654 40.7321V46.3637H82.593V43.3312H76.3139V31.4208H72.8479V37.0506L64.8349 43.5492L63.1018 42.0324L67.0014 38.9998L71.1149 35.7514L68.7335 33.8035L60.7205 40.0825L58.9884 38.5662L67.0014 32.503L64.6182 30.5551L64.6191 30.5556ZM46.2118 34.4515H48.8109C49.3523 34.4515 49.8805 34.5749 50.3678 34.7983C50.855 35.0216 51.3003 35.3459 51.6793 35.752C52.0583 36.158 52.3703 36.6444 52.5869 37.1926C52.8034 37.7408 52.9244 38.3507 52.9244 39.0004C52.9244 39.5959 52.816 40.1778 52.6164 40.7159C52.4167 41.2539 52.1259 41.7479 51.7605 42.1676C51.395 42.5872 50.9556 42.9326 50.4582 43.1729C49.9608 43.4132 49.4065 43.5474 48.811 43.5474H46.2119V34.4515L46.2118 34.4515ZM93.4218 43.3322V46.364H83.8933V31.421H87.3583V43.3314H93.422L93.4218 43.3322ZM67 5C48.3756 5 33 20.3756 33 39C33 57.6244 48.1593 73 67 73C85.8407 73 101 57.8407 101 39C101 20.1593 85.6244 5 67 5ZM67 8.46602C69.1114 8.46599 71.1714 8.67792 73.161 9.08397C75.1507 9.49001 77.0705 10.0889 78.8977 10.8604C80.7249 11.6319 82.4607 12.5771 84.0848 13.6734C85.709 14.7697 87.2217 16.0171 88.6023 17.3977C89.9829 18.7783 91.2302 20.291 92.3266 21.9152C93.4229 23.5394 94.3681 25.275 95.1396 27.1023C95.9111 28.9295 96.5099 30.8494 96.916 32.839C97.3221 34.8287 97.534 36.8886 97.534 39C97.534 41.1114 97.3221 43.1714 96.916 45.161C96.51 47.1507 95.9111 49.0705 95.1396 50.8977C94.3681 52.7249 93.4229 54.4607 92.3266 56.0848C91.2303 57.709 89.9829 59.2217 88.6023 60.6023C87.2217 61.9829 85.709 63.2302 84.0848 64.3266C82.4607 65.4229 80.7249 66.3681 78.8977 67.1396C77.0705 67.9111 75.1506 68.5099 73.161 68.916C71.1713 69.3221 69.1114 69.534 67 69.534C64.8886 69.534 62.8286 69.3221 60.839 68.916C58.8491 68.5128 56.929 67.914 55.1015 67.1424C53.275 66.3708 51.5391 65.4254 49.9146 64.3289C48.2902 63.2333 46.7781 61.9857 45.3973 60.6049C44.0166 59.2241 42.769 57.7121 41.673 56.0876C40.5767 54.4632 39.6315 52.7273 38.86 50.9008C38.0885 49.0733 37.4897 47.1532 37.0836 45.1633C36.6776 43.1743 36.4656 41.1144 36.4656 39.0026C36.4656 36.8909 36.6776 34.831 37.0836 32.842C37.4896 30.8521 38.0885 28.932 38.86 27.1045C39.6315 25.278 40.5767 23.5421 41.673 21.9176C42.769 20.2932 44.0166 18.7811 45.3973 17.4004C46.7781 16.0196 48.2902 14.772 49.9146 13.676C51.5391 12.5797 53.275 11.6345 55.1015 10.863C56.929 10.0915 58.8491 9.49272 60.839 9.08661C62.828 8.68059 64.8878 8.46866 66.9996 8.46866L67 8.46602Z" fill="#E7742E"/>
</svg>
