<svg width="134" height="78" viewBox="0 0 134 78" fill="none" xmlns="http://www.w3.org/2000/svg">
<path fill-rule="evenodd" clip-rule="evenodd" d="M67 5C85.7784 5 101 20.2216 101 39C101 57.7771 85.7784 73 67 73C66.6625 73 66.3251 72.9935 65.9902 72.9845L72.9384 53.888H82.5009C84.1791 53.888 86.0215 52.5977 86.5955 51.0203L94.1333 30.3141C95.3667 26.9254 93.4261 24.1508 89.8188 24.1508H76.5521L65.4213 54.7375H65.4162L59.1067 72.0769C44.1359 68.5174 33 55.0594 33 39C33 23.4035 43.5024 10.2609 57.8202 6.25543L51.3091 24.1508H51.3078L40.4834 53.888H47.6889L56.8945 28.6191H62.3106L53.105 53.888L60.3078 53.8893L68.8864 30.3141C70.1198 26.9254 68.1779 24.1508 64.5745 24.1508H58.5171L65.4718 5.0362C65.9786 5.01293 66.488 5 67 5ZM82.1595 28.6011H87.573L79.9913 49.403H74.5778L82.1595 28.6011Z" fill="#E7742E"/>
</svg>
