<svg width="134" height="78" viewBox="0 0 134 78" fill="none" xmlns="http://www.w3.org/2000/svg">
<g clip-path="url(#clip0_791_10785)">
<path fill-rule="evenodd" clip-rule="evenodd" d="M18.3916 47.8053C18.4159 47.8599 18.4018 47.9235 18.3559 47.9616L18.3572 47.9628C18.3112 48.0086 18.2385 48.02 18.1811 47.9883C16.3497 47.0875 8.47824 43.1057 5.22779 39.951C3.97102 38.8744 3.1941 37.3457 3.06721 35.6999C2.80304 32.1679 6.5295 28.6487 6.5295 28.6487C11.2174 34.554 15.1982 40.9828 18.3916 47.8053ZM17.0746 50.5749C17.1048 50.5963 17.1275 50.6266 17.1397 50.6614L17.1282 50.6627C17.1282 50.6627 17.1627 50.7338 17.0644 50.8227V50.8266C15.7933 51.74 11.8933 54.4475 10.173 54.8756C7.69338 55.4766 5.28522 53.5175 3.86483 50.9943L16.9712 50.5394V50.542C17.0083 50.542 17.0444 50.5535 17.0746 50.5749ZM17.2865 49.2981C17.2865 49.2981 17.4013 49.3871 17.3375 49.4887L17.335 49.4874C17.3082 49.5383 17.2571 49.5726 17.1997 49.5789L17.0384 49.5796C14.7934 49.5895 7.56217 49.6212 7.37051 49.584C6.51084 49.5363 5.66452 49.3509 4.86408 49.0351C3.04186 48.3056 1.56535 46.9152 0.732377 45.1444C-0.100595 43.3737 -0.228043 41.3543 0.37574 39.4937C0.37574 39.4937 11.5449 45.4307 17.2877 49.2931L17.2865 49.2981ZM16.0971 23.4142C16.0971 23.4142 17.6361 23.0661 18.2079 23.0152L18.2091 23C18.2091 23 22.0709 27.9893 20.1872 46.7584H20.1847C20.1885 46.8346 20.1375 46.9032 20.0634 46.921C20.0634 46.921 19.992 46.9528 19.9052 46.8664C18.6826 45.1029 12.9819 36.6947 11.8244 31.5797C11.453 30.2259 11.4468 28.7986 11.8065 27.4417C12.4433 25.4533 14.0641 23.93 16.0971 23.4142ZM22.7332 46.8461C22.6975 46.9147 22.6158 46.9452 22.5443 46.9159V46.9147C22.4831 46.8931 22.4435 46.8359 22.4422 46.7724H22.4397C20.5509 27.9918 24.4356 23.014 24.4356 23.014C25.4974 23.1626 26.4992 23.4142 26.4992 23.4142C27.5061 23.6625 28.4325 24.1628 29.1905 24.8677C29.9486 25.5726 30.5131 26.4586 30.8306 27.4417C31.1611 28.8024 31.1535 30.2228 30.8089 31.5797C29.6578 36.6732 23.9928 45.0343 22.7345 46.8461H22.7332ZM25.4974 50.6525C25.5179 50.5686 25.6455 50.5534 25.6455 50.5534L25.648 50.547L38.7698 51.0044C35.8281 56.0356 32.4399 54.8871 32.4399 54.8871C30.6022 54.3878 26.7991 51.7261 25.5485 50.8304C25.5013 50.7846 25.4821 50.716 25.4974 50.6525ZM25.3583 49.2854C31.1203 45.4155 42.2614 39.4644 42.2614 39.4644V39.4632C42.8435 41.288 42.7392 43.2613 41.9679 45.0153C41.146 46.855 39.6312 48.2983 37.7488 49.0326C37.0266 49.3157 36.2662 49.4904 35.4925 49.551L25.4285 49.5764V49.5738C25.3481 49.5738 25.2932 49.476 25.2932 49.476C25.2835 49.4414 25.2845 49.4047 25.2961 49.3707C25.3077 49.3367 25.3294 49.3069 25.3583 49.2854ZM24.4841 47.9883C24.4267 48.0187 24.3565 48.0137 24.3055 47.9755L24.3195 47.9743C24.2634 47.9184 24.2493 47.8358 24.2838 47.7659H24.28C27.4701 40.9617 31.4445 34.55 36.1229 28.6601C36.1229 28.6601 39.8047 32.0396 39.5686 35.6923C39.4416 37.3432 38.6657 38.8776 37.4093 39.9625C34.1742 43.1006 26.3601 47.0557 24.4841 47.9883ZM48.719 45.7656H51.8457V40.047H58.8034V45.7643H61.9301V32.1038H58.8034V37.6394H51.8457V32.1038H48.719V45.7656ZM70.9514 43.7073C68.3659 43.7073 67.6002 42.7011 67.6002 40.2846L67.5861 32.1026H64.4812V40.3608C64.4812 42.0913 64.6496 43.2944 65.3336 44.0288C66.5537 45.3653 68.3544 45.9155 70.9387 45.9155C73.5229 45.9155 75.3006 45.3653 76.5258 44.0288C77.2468 42.9488 77.5544 41.6478 77.3936 40.3608V32.1026H74.2695V40.2846C74.2695 42.6909 73.537 43.7073 70.9514 43.7073ZM93.9444 45.7643L87.6146 32.1026H84.299L78.0138 45.7643H81.3357L82.6591 42.5093H89.1166L90.4821 45.7643H93.9444ZM88.0906 40.0762H83.6622L85.8356 34.8265L88.0906 40.0762ZM110.518 45.7643L115.113 32.1038L111.93 32.1178L108.723 42.6198L105.394 32.1178H101.71L98.8131 42.6198L95.3674 32.1178H92.011L96.9588 45.7783H100.768L103.538 35.5799L106.69 45.7643H110.518ZM127.979 37.6585H119.33L119.319 37.6483C119.446 35.4986 120.584 34.4733 122.835 34.4746H127.965V32.0937H122.775C117.995 32.0937 115.781 34.3425 115.781 39.1704C115.689 40.1846 115.848 41.2058 116.245 42.1446C116.641 43.0833 117.263 43.9109 118.055 44.5548C119.411 45.4822 121.052 45.9053 122.69 45.7528H127.966V43.3732H122.836C120.373 43.3732 119.318 42.4813 119.301 40.0267H127.979V37.6585ZM134 32.1038H130.733V45.7656H134V32.1038Z" fill="#E7742E"/>
</g>
<defs>
<clipPath id="clip0_791_10785">
<rect width="134" height="78" fill="white"/>
</clipPath>
</defs>
</svg>
