<svg width="134" height="78" viewBox="0 0 134 78" fill="none" xmlns="http://www.w3.org/2000/svg">
<path fill-rule="evenodd" clip-rule="evenodd" d="M8.58757 46.6829H21.1167V51.6641H3V26H8.58757V46.6829ZM28.1335 37.8604C29.0724 36.6199 30.5676 35.8917 32.3736 35.8917C34.36 35.8917 35.8672 37.0081 36.6464 38.656L27.0153 42.5881C26.7524 40.5702 27.2772 38.9918 28.1335 37.8604ZM38.724 45.5899C36.404 47.2795 35.0783 47.6827 32.9626 47.6827C31.0588 47.6827 29.5679 47.1009 28.5171 46.0808L42.6099 40.3275C42.3024 38.1834 41.4754 36.2681 40.203 34.8116C38.3513 32.6953 35.6108 31.5756 32.2737 31.5756C26.2123 31.5756 21.6418 35.9761 21.6418 41.7882C21.6418 47.7511 26.2232 51.9998 32.8811 51.9998C36.6116 51.9998 40.4257 50.2599 42.21 48.227L38.724 45.5899ZM50.1022 34.7424C51.7083 32.6315 54.3369 31.5771 56.6482 31.5771C61.4979 31.5771 64.8014 34.874 64.8014 39.4178V51.6644H59.2888V40.423C59.2888 37.8105 56.9286 36.2492 54.6477 36.2492C51.6963 36.2492 50.1022 38.3997 50.1022 40.423V51.6644H44.5907V31.9086H50.1033L50.1022 34.7392L50.1033 34.7382L50.1022 34.7424ZM98.9966 45.3664L103.98 31.9093H110.276L102.016 51.6587H95.9757L87.7161 31.9093H94.0132L98.9966 45.3664ZM120.175 36.2242C117.096 36.2242 114.861 38.5202 114.861 41.7861C114.861 44.9044 117.229 47.348 120.249 47.348C123.328 47.348 125.562 44.9889 125.562 41.7861C125.562 38.6678 123.196 36.2242 120.175 36.2242ZM120.175 51.9966C114.146 51.9966 109.422 47.5768 109.422 41.7861C109.422 36.0606 114.179 31.5756 120.249 31.5756C126.277 31.5756 131 35.9954 131 41.7861C131 47.5105 126.245 51.9966 120.175 51.9966ZM72.4208 41.7861C72.4208 38.5202 74.6549 36.2242 77.7334 36.2242C80.7543 36.2242 83.121 38.6678 83.121 41.7861C83.121 44.9889 80.8869 47.348 77.8084 47.348C74.7875 47.348 72.4208 44.9044 72.4208 41.7861ZM66.9821 41.7861C66.9821 47.5768 71.7047 51.9966 77.7334 51.9966C83.8034 51.9966 88.5597 47.5105 88.5597 41.7861C88.5597 35.9954 83.836 31.5756 77.8084 31.5756C71.7373 31.5756 66.9821 36.0606 66.9821 41.7861Z" fill="#E7742E"/>
</svg>
