<svg width="134" height="78" viewBox="0 0 134 78" fill="none" xmlns="http://www.w3.org/2000/svg">
<path fill-rule="evenodd" clip-rule="evenodd" d="M34.5516 65C48.6641 65 60.1033 53.3546 60.1033 39.0015C60.1033 24.6393 48.6641 13 34.5516 13C20.4392 13 9 24.6393 9 39.0015C9 53.3546 20.4392 65 34.5516 65ZM33.5372 27.5859V50.3805H40.6537V48.3437H35.5662V27.5859H33.5372ZM29.4612 30.6952C29.4612 32.4104 28.0855 33.8102 26.3937 33.8102C24.7079 33.8102 23.3322 32.4104 23.3322 30.6952C23.3322 28.9768 24.7079 27.5801 26.3937 27.5801C28.0855 27.5801 29.4612 28.9768 29.4612 30.6952ZM35.5661 17.2453C35.3102 17.2331 34.8015 17.23 34.5516 17.23C22.7662 17.23 13.1723 26.9917 13.1723 38.9924C13.1723 44.8028 15.3849 50.2672 19.4217 54.3746C23.4736 58.4912 28.847 60.7548 34.5516 60.7548C40.2592 60.7548 45.6326 58.4912 49.6785 54.3746C53.7154 50.2672 55.934 44.8028 55.934 38.9924V38.003H55.079H40.6686V40.0277H53.905V40.3186C53.2247 50.5796 44.8018 58.7179 34.5516 58.7179C29.3769 58.7179 24.5122 56.6688 20.8456 52.9442C17.182 49.2166 15.1651 44.2607 15.1651 38.9924C15.1651 33.7271 17.182 28.7682 20.8456 25.0406C24.5122 21.3099 29.3769 19.2607 34.5516 19.2607C34.7864 19.2607 35.3343 19.2669 35.5661 19.273V17.2453ZM111.755 42.9957H117.971V48.8704C116.824 49.3176 114.59 49.7587 112.462 49.7587C105.595 49.7587 103.305 46.2087 103.305 39.0016C103.305 32.1252 105.484 28.076 112.351 28.076C116.171 28.076 118.35 29.295 120.147 31.6229L124.892 27.1877C122.002 22.973 116.932 21.6989 112.191 21.6989C101.504 21.6989 95.8902 27.6288 95.8902 38.9434C95.8902 50.2059 100.96 56.3073 112.134 56.3073C117.257 56.3073 122.276 54.9749 125 53.033V36.7288H111.755V42.9957ZM80.9589 55.8083H94.9629V49.2597H79.1527V22.1983H71.5275V55.8083H80.9589Z" fill="#E7742E"/>
</svg>
