<svg width="134" height="78" viewBox="0 0 134 78" fill="none" xmlns="http://www.w3.org/2000/svg">
<path d="M46.4222 27.0477H39.5454V36.2044H32.3868V27.0477H25.5099V50.0852H32.3868V41.0234H39.5454V50.0852H46.4222V27.0477ZM70.344 45.4561V27.0477H63.4671V50.0852H75.9018L76.9359 45.4561H70.344ZM58.3831 27.0477H51.5062V50.0852H58.3831V27.0477ZM86.262 27.0477H79.3883V50.0852H86.262V27.0477ZM120.166 32.9273C120.166 31.6735 121.392 31.094 123.368 31.094C125.535 31.094 127.891 31.5785 129.492 32.2562L128.929 27.2408C127.136 26.8545 125.535 26.5664 122.618 26.5664C117.061 26.5664 113.292 28.8089 113.292 33.5068C113.292 41.6028 124.034 39.9659 124.034 43.7242C124.034 45.168 122.993 45.9373 120.451 45.9373C118.194 45.9373 114.704 45.168 112.633 44.1073L113.388 49.4108C115.46 50.1834 118.284 50.5664 120.547 50.5664C126.291 50.5664 131 48.6382 131 42.8534C131 35.147 120.166 36.5907 120.166 32.9273ZM100.768 44.5918C107.168 44.5918 111.221 41.2165 111.221 35.3368C111.221 28.881 106.889 26.5664 99.8236 26.5664C97.0927 26.5664 93.7951 26.7596 91.442 27.0477V50.0852H98.3189V44.5918H100.768ZM104.44 35.435C104.44 38.4207 103.028 40.4472 99.4458 40.4472H98.3189V30.9271C98.7191 30.9042 99.0936 30.9042 99.4458 30.9042C102.836 30.9042 104.44 32.541 104.44 35.435ZM12.326 44.5918C18.7291 44.5918 22.779 41.2165 22.779 35.3368C22.779 28.881 18.4473 26.5664 11.3848 26.5664C8.65068 26.5664 5.35632 26.7596 3 27.0477V50.0852H9.87687V44.5918H12.326ZM16.0014 35.435C16.0014 38.4207 14.5863 40.4472 11.007 40.4472H9.87687V30.9271C10.2771 30.9042 10.6548 30.9042 11.007 30.9042C14.3974 30.9042 16.0014 32.541 16.0014 35.435Z" fill="#E7742E"/>
</svg>
