<svg width="134" height="78" viewBox="0 0 134 78" fill="none" xmlns="http://www.w3.org/2000/svg">
<path d="M110.919 44.0231H110.815L106.41 28.6274H99.3026V48.0365H104.01L103.745 32.1089H103.849L108.58 48.0365H115.399V28.6264H110.659L110.919 44.0231ZM20.5015 28.6264L16.9561 48.2409H22.1298L24.7513 30.4369H24.8606L27.4127 48.2418H32.5559L29.0267 28.6264H20.5015ZM49.4408 28.6283L47.0759 43.6249H46.9685L44.615 28.6283H36.8047L36.3808 48.2409H41.1694L41.2892 30.603H41.3975L44.596 48.2409H49.4531L52.6525 30.6088L52.759 30.603L52.8835 48.2409H57.6741L57.2511 28.6283H49.4408ZM5.09188 33.6721C5.00158 33.271 5.02344 32.87 5.07192 32.6484C5.20974 32.0182 5.62417 31.3278 6.82276 31.3278C7.94626 31.3278 8.60021 32.0402 8.60021 33.1039V34.3157H13.3822V32.9463C13.3822 28.6675 9.63532 28 6.92256 28C3.51879 28 0.739497 29.1583 0.227172 32.3581C0.0874469 33.2175 0.0703377 34.0053 0.273747 34.9984C1.10544 39.007 7.90824 40.1682 8.89582 42.7034C9.08117 43.1761 9.02129 43.7892 8.93004 44.1597C8.77511 44.8013 8.34452 45.4688 7.06609 45.4688C5.87035 45.4688 5.14036 44.767 5.14036 43.6965L5.13751 41.7934H0.00285153L0 43.3098C0 47.6851 3.361 49 6.96058 49C10.4299 49 13.2739 47.7987 13.7339 44.5244C13.9677 42.8266 13.7957 41.7132 13.713 41.2978C12.9022 37.1889 5.63842 35.9743 5.09188 33.6721ZM67.3978 33.7179C67.3037 33.3264 67.3303 32.9292 67.375 32.7124C67.509 32.086 67.9196 31.4032 69.1078 31.4032C70.2179 31.4032 70.87 32.1051 70.87 33.1545V34.3577H75.6007V33.0008C75.6007 28.7744 71.888 28.1089 69.2104 28.1089C65.8361 28.1089 63.0806 29.2414 62.5797 32.4212C62.4399 33.2767 62.4181 34.0588 62.6234 35.0376C63.4475 39.0042 70.1828 40.1567 71.1628 42.6643C71.3414 43.137 71.2873 43.7395 71.1998 44.1071C71.0439 44.7536 70.6134 45.401 69.353 45.401C68.1629 45.401 67.4463 44.7097 67.4463 43.6507L67.4425 41.7619H62.3534V43.2649C62.3534 47.5954 65.685 48.895 69.2494 48.895C72.676 48.895 75.4961 47.7042 75.9476 44.4643C76.1795 42.7884 76.0085 41.6846 75.9277 41.2711C75.1245 37.2061 67.9301 35.9982 67.3978 33.7179ZM89.116 43.1322C89.1198 43.3814 89.1122 43.6698 89.0713 43.8799C88.9763 44.3678 88.5666 45.2912 87.2349 45.2912C85.908 45.2912 85.4936 44.3678 85.3985 43.8799C85.3577 43.6698 85.3482 43.3814 85.3501 43.1322V28.6245H80.5101V42.6824C80.5025 43.0462 80.5376 43.7825 80.5547 43.9782C80.8836 47.6345 83.7123 48.8157 87.234 48.8157C90.7518 48.8157 93.5796 47.6345 93.9189 43.9782C93.936 43.7825 93.9731 43.0453 93.9674 42.6824V28.6245H89.115V43.1322H89.116ZM127.222 37.2138V40.0861H129.183V42.9307C129.189 43.178 129.179 43.4511 129.138 43.6755C129.053 44.2036 128.564 45.0945 127.183 45.0945C125.798 45.0945 125.311 44.2026 125.222 43.6755C125.185 43.4511 125.174 43.178 125.179 42.9307V33.9566C125.179 33.6377 125.199 33.2892 125.257 33.0361C125.359 32.5529 125.771 31.6124 127.164 31.6124C128.629 31.6124 128.991 32.6054 129.078 33.0361C129.134 33.3082 129.138 33.7771 129.138 33.7752V34.88H133.965V34.2249C133.963 34.2249 133.982 33.5546 133.926 32.9425C133.571 29.2538 130.595 28.0926 127.204 28.0926C123.811 28.0926 120.905 29.2633 120.484 32.9425C120.443 33.2595 120.4 33.8764 120.4 34.2249L120.398 42.4771C120.4 42.8467 120.412 43.1198 120.465 43.7729C120.78 47.3442 123.811 48.6238 127.2 48.6238C130.591 48.6238 133.622 47.3442 133.939 43.7729C133.991 43.1188 133.999 42.8457 134 42.4771V37.2138H127.222Z" fill="#E7742E"/>
</svg>
