<svg width="134" height="78" viewBox="0 0 134 78" fill="none" xmlns="http://www.w3.org/2000/svg">
<path d="M51.3258 48.9998C47.1237 48.9998 43.2231 47.704 40.6193 45.301C38.6522 43.4855 37.707 41.0194 37.707 38.4813C37.707 35.9741 38.693 33.4911 40.6191 31.6851C43.0372 29.4191 47.3063 28 51.3258 28C55.7739 28 59.334 29.1521 62.0556 31.6914C63.9919 33.4983 64.9281 35.9703 64.9281 38.4816C64.9281 40.9157 63.9346 43.508 62.0556 45.301C59.5213 47.7196 55.5386 48.9998 51.3258 48.9998V46.23C53.5561 46.23 55.625 45.4382 57.0699 43.9599C58.5048 42.4917 59.1733 40.687 59.1733 38.4813C59.1733 36.3683 58.4521 34.3928 57.0699 32.9917C55.6444 31.5479 53.5261 30.7355 51.3258 30.7355C49.1188 30.7355 46.9991 31.5395 45.5724 32.9917C44.1976 34.3924 43.4746 36.3736 43.4746 38.4813C43.4746 40.5826 44.206 42.5626 45.5724 43.9602C47.0003 45.4207 49.1125 46.2303 51.3258 46.2303V49V48.9998ZM20.6128 28.0101C18.365 28.0101 15.8114 28.4424 13.6417 29.4388C11.6391 30.3575 10 31.8435 10 34.3068C9.99907 36.5255 11.3703 37.8248 11.3331 37.7889C11.9163 38.341 12.8553 39.2811 15.3101 39.8331C16.4073 40.0798 18.7529 40.4587 21.0887 40.7097C23.4073 40.9612 25.6891 41.2003 26.6185 41.4422C27.3569 41.6355 28.5973 41.8987 28.5973 43.3295C28.5973 44.7546 27.2905 45.1896 27.0634 45.284C26.8365 45.3762 25.2689 46.1158 22.4509 46.1158C20.3704 46.1158 17.8691 45.4725 16.9574 45.1371C15.9065 44.7525 14.804 44.2438 13.7756 42.9521C13.5198 42.6318 13.1164 41.7511 13.1164 40.8791H10.566V48.2273H13.4008V47.2346C13.4008 47.1215 13.5382 46.6566 14.0141 46.8777C14.6062 47.1543 16.3444 47.8659 18.1617 48.2561C19.6518 48.5765 20.6126 48.8062 22.4651 48.8062C25.4876 48.8062 27.1114 48.2999 28.2339 47.9703C29.2914 47.659 30.5982 47.0999 31.6596 46.2296C32.2345 45.7589 33.4951 44.5525 33.4951 42.3626C33.4951 40.2607 32.398 38.956 32.012 38.5592C31.4863 38.0183 30.8441 37.5992 30.1749 37.2761C29.5919 36.9939 28.6718 36.655 27.919 36.4656C26.4578 36.0967 23.1539 35.6417 21.5739 35.4716C19.9171 35.2936 17.0429 35.0489 15.895 34.6836C15.547 34.5727 14.8375 34.2252 14.8375 33.3783C14.8375 32.7759 15.162 32.2652 15.8033 31.8526C16.8212 31.1968 18.8773 30.7891 21.0205 30.7891C23.5543 30.7795 25.7001 31.3752 27.065 32.0027C27.5293 32.2159 28.0725 32.522 28.5039 32.8841C28.9907 33.2923 29.6741 34.1404 29.9213 35.3233H32.211V28.9269H29.6543V29.6704C29.6543 29.9104 29.4132 30.2222 28.9574 29.9645C27.8132 29.3473 24.5783 28.0156 20.6124 28.0101H20.6128ZM76.6408 29.1724L89.1125 40.7457L88.9844 32.9536C88.9718 31.9318 88.7887 31.5053 87.7139 31.5053H85.369V29.1743H96.0326V31.5053H93.7452C92.6491 31.5053 92.5799 31.8657 92.5666 32.9536L92.7599 47.8424H89.108L74.7431 34.6597L74.7462 44.0155C74.7588 45.0325 74.8051 45.5115 75.8242 45.5115H78.3853V47.8415H67.9127V45.5117H70.3608C71.2753 45.5117 71.2389 44.6152 71.2389 43.9626V33.0422C71.2389 32.3373 71.1427 31.5069 69.7069 31.5069H67.7205V29.1724H76.6408ZM108.218 45.5072C108.318 45.5072 108.763 45.494 108.849 45.4669C109.095 45.3879 109.262 45.2073 109.34 45.0191C109.372 44.94 109.389 44.5903 109.389 44.5144L109.391 40.8307C109.391 40.7421 109.384 40.7038 109.238 40.5064C109.077 40.2908 102.705 32.8659 102.414 32.539C102.052 32.133 101.416 31.5055 100.449 31.5055H98.2336V29.1736H110.739V31.5026H109.231C108.883 31.5026 108.651 31.8427 108.949 32.2207C108.949 32.2207 113.156 37.3958 113.196 37.45C113.235 37.5051 113.269 37.5182 113.322 37.4679C113.375 37.4164 117.635 32.2681 117.669 32.2274C117.872 31.9778 117.734 31.5053 117.297 31.5053H115.751V29.1736H126V31.5053H123.71C122.88 31.5053 122.542 31.6633 121.917 32.3898C121.631 32.7222 115.191 40.2805 115.016 40.4853C114.924 40.5924 114.932 40.7416 114.932 40.8302V44.5134C114.932 44.5882 114.948 44.9383 114.981 45.0169C115.059 45.2061 115.226 45.3867 115.472 45.4648C115.559 45.4921 115.997 45.5055 116.097 45.5055H118.44V47.8369H105.999V45.5053L108.218 45.5072H108.218Z" fill="#E7742E"/>
</svg>
