<svg width="134" height="78" viewBox="0 0 134 78" fill="none" xmlns="http://www.w3.org/2000/svg">
<path d="M28.9021 29.0041C22.9475 29.0041 20.0916 30.0297 19.6771 35.2851C19.5891 36.5241 19.5472 37.7631 19.5682 39.0021C19.5682 40.2 19.5891 41.4595 19.6771 42.719C20.0916 47.9744 22.9475 49 28.8812 49C34.8358 49 37.7126 47.9744 38.1063 42.719C38.2151 41.4595 38.2361 40.1959 38.2361 39.0021C38.2361 37.8082 38.2151 36.5446 38.1063 35.2851C37.7126 30.0297 34.8358 29.0041 28.9021 29.0041ZM50.0574 29.0041C47.7668 29.0041 45.4763 29.2174 44.5592 29.6646C42.7502 30.5179 41.5065 31.7364 41.5065 35.24C41.5065 37.2913 42.0718 38.8297 43.1438 39.5969C44.7141 40.7497 46.2426 40.8564 50.451 41.0697C52.1721 41.1559 53.0891 41.4964 53.0891 42.9282C53.0891 44.7456 51.4518 44.7456 49.9276 44.7456C48.3782 44.7456 47.9008 44.6185 47.3774 44.2123C46.8958 43.8718 46.7869 43.2523 46.7869 42.3087H41.4646C41.4646 44.9795 41.5316 47.1579 44.1028 48.2492C46.3933 49.2338 53.4158 49.2338 55.5304 48.3149C57.3646 47.5231 58.6711 46.4769 58.6711 42.8872C58.6711 40.4092 58.1686 38.8708 56.2046 37.7385C54.8311 36.9262 50.9284 36.8195 48.9644 36.6923C47.5239 36.6062 46.9796 36.0933 46.9796 34.8338C46.9796 33.2092 48.5708 33.1682 49.9443 33.1682C51.0582 33.1682 51.8413 33.2544 52.3856 33.7221C52.6034 33.9354 52.8672 34.2759 52.8881 35.4082H58.1644C58.1644 33.1846 58.0764 30.7723 55.6351 29.6605C54.6553 29.2338 52.3438 29 50.0532 29L50.0574 29.0041ZM62.3812 29.3446V48.6595H67.9212V41.201H74.3784V48.6595H79.9394V29.3446H74.3784V36.3969H67.9212V29.3446H62.3812ZM84.822 29.3446V48.6595H90.4291V29.3446H84.822ZM95.3996 29.3446V48.6595H105.935C110.776 48.6595 112.413 46.6082 112.413 43.4451C112.413 41.2667 111.89 39.3221 108.816 38.5713C111.304 37.9313 112.024 36.479 112.024 34.3826C112.024 30.1528 109.319 29.3405 105.437 29.3405L95.3996 29.3446ZM119.804 29.3446L113.85 48.6595H119.628L120.675 45.0697H127.153L128.221 48.6595H134L128.024 29.3446H119.804ZM0.0041875 29.3446V34.1733H5.89181V48.6595H11.7794V34.1733H17.6671V29.3651H0L0.0041875 29.3446ZM28.9021 33.5087C31.2346 33.5087 32.4364 33.8738 32.5871 36.8441C32.6081 37.3159 32.629 37.9354 32.629 39.0021C32.629 40.0687 32.6081 40.6882 32.5871 41.16C32.4364 44.1303 31.2346 44.4954 28.9021 44.4954C26.5697 44.4954 25.3469 44.1303 25.2171 41.16C25.1697 40.4417 25.1557 39.7216 25.1753 39.0021C25.1753 37.9354 25.1752 37.3159 25.2171 36.8441C25.3469 33.8738 26.5697 33.5087 28.9021 33.5087ZM100.94 33.7672H104.801C105.806 33.7672 106.438 34.239 106.438 35.3713C106.438 36.3313 105.806 36.9097 104.801 36.9097H100.94V33.7672ZM123.908 34.1077H123.929L125.914 40.7949H121.944L123.908 34.1077ZM100.961 40.7128H104.801C106.371 40.7128 106.677 41.398 106.677 42.4851C106.677 43.5723 106.065 44.2369 104.801 44.2369H100.94V40.7128H100.961Z" fill="#E7742E"/>
</svg>
