<svg width="160" height="96" viewBox="0 0 160 96" fill="none" xmlns="http://www.w3.org/2000/svg">
<g clip-path="url(#clip0_836_13416)">
<path d="M97.8052 24.5302L96.8354 27.0125C96.6741 27.3327 96.4193 27.5725 96.071 27.7319C95.7228 27.8913 95.3884 27.8904 95.0677 27.7293L90.4976 25.8738C89.5846 27.1539 88.4849 28.2197 87.1984 29.0714L89.1126 33.6451C89.2721 34.0196 89.2712 34.3669 89.1098 34.6871C88.9485 35.0073 88.707 35.2472 88.3856 35.4066L85.8947 36.4422C85.5732 36.6016 85.2388 36.6007 84.8914 36.4395C84.544 36.2783 84.2905 36.0372 84.1308 35.7162L82.2166 31.1424C81.36 31.3005 80.5839 31.3786 79.8883 31.3768C79.2462 31.3751 78.4973 31.293 77.6416 31.1305L75.7032 35.6942C75.5953 36.0145 75.3673 36.2544 75.0191 36.4138C74.6708 36.5732 74.3096 36.5723 73.9355 36.411L71.5304 35.3627C71.1561 35.2549 70.9025 35.0271 70.7697 34.6794C70.6368 34.3317 70.6244 33.971 70.7324 33.5973L72.6706 29.1137C71.3888 28.2019 70.2948 27.1036 69.3885 25.8188L64.8085 27.7306C64.4871 27.8366 64.1527 27.8224 63.8053 27.6879C63.4578 27.5534 63.2043 27.3256 63.0446 27.0046L62.088 24.5173C61.9285 24.1428 61.9161 23.7821 62.0508 23.4351C62.1854 23.0882 62.4402 22.8617 62.8151 22.7558L67.3149 20.8438C67.1566 19.9885 67.0784 19.2134 67.0802 18.5188C67.0819 17.8775 67.1642 17.1029 67.3272 16.1949L62.7571 14.3395C62.4364 14.1783 62.2097 13.9373 62.0768 13.6163C61.9438 13.2954 61.9314 12.948 62.0394 12.5742L63.0894 10.0922C63.2507 9.77199 63.4922 9.53215 63.8136 9.37268C64.1351 9.21321 64.4829 9.21412 64.8571 9.3754L69.4272 11.2309C70.2867 9.95063 71.3597 8.8847 72.6462 8.03308L70.8122 3.45952C70.6527 3.08505 70.6402 2.73768 70.7748 2.41742C70.9095 2.09715 71.1643 1.85735 71.5392 1.69802L74.0301 0.662508C74.3516 0.503037 74.6861 0.503909 75.0334 0.665122C75.3808 0.826335 75.6343 1.06746 75.794 1.38849L77.628 5.96205C78.4845 5.80398 79.2606 5.72584 79.9562 5.72766C80.6518 5.72947 81.4275 5.81165 82.2832 5.97418L84.1413 1.41024C84.3029 1.03661 84.5577 0.783452 84.9059 0.650769C85.254 0.518086 85.5884 0.532316 85.909 0.69346L88.3944 1.74194C88.7687 1.84979 89.0223 2.07755 89.1551 2.42523C89.288 2.77291 89.2737 3.10685 89.1123 3.42705L87.2542 7.99099C88.536 8.90274 89.63 10.001 90.5363 11.2859L95.0361 9.37388C95.4109 9.26799 95.7721 9.28229 96.1195 9.41679C96.467 9.55128 96.6938 9.77898 96.7999 10.0999L97.8368 12.5873C97.9963 12.9618 98.0087 13.3225 97.8741 13.6695C97.7394 14.0165 97.4846 14.2429 97.1098 14.3488L92.5297 16.2606C92.6879 17.116 92.7662 17.891 92.7643 18.5857C92.7625 19.2804 92.6802 20.055 92.5174 20.9095L97.0875 22.765C97.4616 22.9262 97.7151 23.1674 97.8481 23.4883C97.981 23.8093 97.9667 24.1566 97.8052 24.5302ZM79.9828 10.8576C77.8692 10.8521 76.0479 11.5954 74.519 13.0877C72.99 14.5799 72.2227 16.3947 72.217 18.5322C72.2114 20.6696 72.9691 22.4884 74.4901 23.9886C76.0111 25.4887 77.8284 26.2416 79.942 26.2471C82.0556 26.2526 83.8635 25.5092 85.3657 24.0169C86.8679 22.5246 87.6218 20.7097 87.6275 18.5723C87.6332 16.4349 86.8888 14.6161 85.3946 13.116C83.9003 11.6159 82.0964 10.8631 79.9828 10.8576Z" fill="#E7742E"/>
<path d="M77.3294 51.6934L75.8145 55.1069L81.2852 58.9639L80.5657 62.3816L74 63.7319L74.0115 67.4634L80.5858 68.7738L81.3268 72.1873L75.8804 76.077L77.4169 79.4819L83.9582 78.0176L86.0307 80.8365L82.6453 86.5941L85.4402 89.0822L90.8177 85.0984L93.8634 86.8351L93.1252 93.4653L96.6955 94.6074L99.979 88.7913L103.47 89.145L105.507 95.5L109.236 95.0979L109.858 88.4563L113.194 87.3669L117.652 92.3488L120.894 90.4724L118.747 84.153L121.349 81.8089L127.459 84.5566L129.654 81.5309L125.11 76.6274L126.527 73.4335L133.232 73.4705L134 69.8189L127.843 67.1782L127.831 63.6863L133.971 61.0071L133.18 57.3598L126.475 57.4382L125.038 54.2529L129.553 49.3208L127.338 46.3094L121.246 49.0941L118.63 46.7657L120.738 40.4335L117.485 38.577L113.057 43.586L109.715 42.5166L109.051 35.8793L105.319 35.5L103.323 41.8679L99.8328 42.2443L96.5134 36.4482L92.9489 37.6117L93.7286 44.2376L90.6945 45.9929L85.2925 42.0418L82.5135 44.5471L85.9346 50.2847L83.8794 53.1164L77.3294 51.6934ZM108.782 53.202C115.632 55.807 119.063 63.4425 116.444 70.2566C113.826 77.0708 106.151 80.4843 99.3011 77.8793C92.4516 75.2742 89.0204 67.6388 91.639 60.8246C94.2575 54.0105 101.933 50.597 108.782 53.202Z" fill="#E7742E"/>
<path d="M44.9372 31.7535L42.2397 32.5151L42.6329 37.5039L40.3139 38.7247L36.3875 35.5956L34.238 37.3859L36.6317 41.7914L35.0154 43.8497L30.1577 42.5787L28.9273 45.0903L32.9082 48.1512L32.2724 50.6904L27.3236 51.4979L27.226 54.2939L32.1039 55.4795L32.5603 58.0602L28.3765 60.8058L29.4284 63.4052L34.3611 62.5115L35.8297 64.688L33.134 68.8983L35.1531 70.8501L39.2874 68.0314L41.5155 69.4272L40.7741 74.3721L43.4118 75.3393L46.0335 71.0828L48.6344 71.4575L49.9759 76.2831L52.7763 76.0982L53.4307 71.1402L55.955 70.4277L59.147 74.3002L61.6244 72.9959L60.1995 68.1928L62.2118 66.516L66.7017 68.7651L68.4287 66.5656L65.1695 62.7496L66.3212 60.3997L71.3341 60.6359L72.0125 57.9226L67.4834 55.7515L67.5743 53.1348L72.2421 51.319L71.7553 48.5612L66.7399 48.4122L65.7555 45.9805L69.2715 42.4246L67.7014 40.0979L63.0661 41.9949L61.1762 40.1686L62.9331 35.4886L60.5533 33.9969L57.0999 37.613L54.6309 36.7077L54.3249 31.7131L51.5459 31.3132L49.8711 36.0231L47.2508 36.1965L44.9372 31.7535ZM59.1395 50.5558C60.9182 55.7396 58.1509 61.363 52.9589 63.1158C47.7672 64.8699 42.1175 62.0891 40.3402 56.905C38.5614 51.7212 41.3287 46.0978 46.5207 44.3451C51.7113 42.5926 57.3608 45.3721 59.1395 50.5558Z" fill="#E7742E"/>
</g>
<defs>
<clipPath id="clip0_836_13416">
<rect width="160" height="95" fill="white" transform="translate(0 0.5)"/>
</clipPath>
</defs>
</svg>
