<svg width="134" height="78" viewBox="0 0 134 78" fill="none" xmlns="http://www.w3.org/2000/svg">
<path fill-rule="evenodd" clip-rule="evenodd" d="M87.4354 25C85.2969 27.1612 84 29.0415 84 34.5155V51.3921H88.6842V34.2822C88.6842 31.5952 88.8774 30.3026 90.2271 28.8967L87.4354 25ZM68.6302 45.9212C71.2278 49.8579 74.4983 51.3133 78.0826 51.3133V47.0156C75.5605 47.0156 73.814 45.6164 71.9874 42.7617C71.3016 41.6955 70.5617 40.5198 69.7588 39.2439C68.4091 37.099 66.8813 34.6711 65.1326 32.005C62.356 27.7502 58.9781 25.8309 55.0082 25.8309C51.0299 25.8309 47.6558 27.7502 44.8848 32.005C43.0908 34.7459 41.5262 37.235 40.1505 39.4237C39.392 40.6304 38.6909 41.7458 38.0404 42.7617C36.2016 45.6164 34.4476 46.9746 31.9292 46.9746C29.4127 46.9746 27.6606 45.6164 25.8321 42.7617C24.7629 41.1047 23.6177 39.368 22.3014 37.3719C21.347 35.9244 20.3025 34.3406 19.1319 32.5518C16.3543 28.2988 12.9764 26.3767 9 26.3767V30.7535C11.7559 30.7535 13.3572 32.1298 15.0744 34.6978C16.0716 36.1986 17.4871 38.3499 19.0009 40.6505C20.1484 42.3945 21.3522 44.2241 22.4731 45.9212C25.0744 49.8579 28.3383 51.3133 31.9292 51.3133C35.5305 51.3133 38.7887 49.8579 41.3891 45.9212C42.7174 43.9056 44.2046 41.5593 45.5767 39.3946L45.5768 39.3946C46.884 37.3323 48.0867 35.4349 48.948 34.1453C50.652 31.5755 52.2599 30.2524 55.0082 30.2524C57.7613 30.2524 59.3617 31.5755 61.0676 34.1453C61.9155 35.4163 63.096 37.2777 64.3819 39.3054L64.3824 39.3061L64.3826 39.3064C65.7708 41.4955 67.2819 43.8782 68.6302 45.9212ZM58.7362 43.0923C58.7362 45.0544 57.166 46.6489 55.2179 46.6489C53.2716 46.6489 51.6967 45.0544 51.6967 43.0923C51.6967 41.1292 53.2716 39.5337 55.2179 39.5337C57.166 39.5337 58.7362 41.1292 58.7362 43.0923ZM120.333 38.5709C120.333 43.5239 116.471 47.5406 111.711 47.5406C106.944 47.5406 103.087 43.5239 103.087 38.5709C103.087 33.6131 106.944 29.5973 111.711 29.5973C116.471 29.5973 120.333 33.6131 120.333 38.5709ZM111.711 25.1396C104.371 25.1396 98.4233 31.1518 98.4233 38.5709C98.4233 45.9833 104.371 52.0002 111.711 52.0002C119.05 52.0002 125 45.9833 125 38.5709C125 31.1518 119.05 25.1396 111.711 25.1396Z" fill="#E7742E"/>
</svg>
