<svg width="134" height="78" viewBox="0 0 134 78" fill="none" xmlns="http://www.w3.org/2000/svg">
<path fill-rule="evenodd" clip-rule="evenodd" d="M35.5815 73H98.4185C99.8442 73 101 71.8443 101 70.4185V7.58083C101 6.15505 99.8442 5 98.4185 5H35.5815C34.1557 5 33 6.15505 33 7.58083V70.4185C33 71.8443 34.1557 73 35.5815 73ZM80.9716 26.3887H86.3213C86.5484 26.3887 86.7364 26.5709 86.7364 26.7954V51.2041C86.7364 51.4267 86.5484 51.6089 86.3213 51.6089H80.9716C80.7425 51.6089 80.5571 51.4267 80.5571 51.2041V26.7954C80.5571 26.5709 80.7425 26.3887 80.9716 26.3887ZM68.0549 26.3846H47.6771C47.4481 26.3846 47.2639 26.5668 47.2639 26.7913V51.2C47.2639 51.4225 47.4481 51.6047 47.6771 51.6047H53.0282C53.2559 51.6047 53.4446 51.4225 53.4446 51.2V32.0427C53.4446 31.8215 53.6288 31.638 53.8578 31.638H65.3843C68.6256 31.638 69.5458 34.1206 69.5458 35.7221V51.2C69.5458 51.4225 69.7319 51.6047 69.9609 51.6047H75.3087C75.5365 51.6047 75.7232 51.4225 75.7232 51.2V33.8844C75.7232 32.456 75.5514 30.4022 73.7085 28.5945C71.7804 26.7073 70.0215 26.3846 68.0549 26.3846ZM58.6898 36.1095H64.3076C64.5347 36.1095 64.7208 36.2917 64.7208 36.5149V51.2048C64.7208 51.4267 64.5347 51.6089 64.3076 51.6089H58.6898C58.4608 51.6089 58.2727 51.4267 58.2727 51.2048V36.5149C58.2727 36.2917 58.4608 36.1095 58.6898 36.1095Z" fill="#E7742E"/>
</svg>
