<svg width="32" height="32" viewBox="0 0 32 32" fill="none" xmlns="http://www.w3.org/2000/svg">
<path fill-rule="evenodd" clip-rule="evenodd" d="M15.0054 27.4976C14.6889 27.8193 14.2598 28 13.8123 28C13.3648 28 12.9357 27.8193 12.6192 27.4976L2.49408 17.2027C2.17772 16.881 2 16.4446 2 15.9896C2 15.5347 2.17772 15.0983 2.49408 14.7766L12.6192 4.48165C12.9375 4.1691 13.3638 3.99616 13.8062 4.00006C14.2487 4.00397 14.6719 4.18443 14.9848 4.50255C15.2977 4.82068 15.4752 5.25103 15.479 5.70091C15.4829 6.15079 15.3128 6.58421 15.0054 6.90782L7.76084 14.2738L27.3125 14.2738C27.76 14.2738 28.1893 14.4546 28.5057 14.7764C28.8222 15.0982 29 15.5346 29 15.9896C29 16.4447 28.8222 16.8811 28.5057 17.2029C28.1893 17.5247 27.76 17.7055 27.3125 17.7055H7.76084L15.0054 25.0715C15.3217 25.3932 15.4995 25.8296 15.4995 26.2845C15.4995 26.7395 15.3217 27.1759 15.0054 27.4976Z" fill="#E7742E"/>
</svg>
