<svg width="134" height="78" viewBox="0 0 134 78" fill="none" xmlns="http://www.w3.org/2000/svg">
<path d="M124.725 26.2361C124.314 25.6871 123.903 25.2753 121.849 25.1381C121.301 25.1381 119.657 25.0005 116.78 25.0005C109.246 25.0005 104.041 27.3339 101.438 31.8633C102.123 27.3339 97.7399 25.0005 88.151 25.0005C76.9185 25.0005 69.7954 29.53 66.9188 38.7262C65.8229 42.1575 65.8229 44.9027 66.6448 47.0988H63.9051C61.8504 47.2363 59.1108 47.3734 57.33 47.3734C53.2205 47.3734 50.6179 46.687 49.659 45.3145C48.8371 44.0792 48.8371 41.7458 49.933 38.3144C51.7138 32.6869 55.9602 30.2163 62.8093 30.2163C66.3709 30.2163 69.7954 30.6282 69.7954 30.6282C70.2065 30.6282 70.4803 30.0792 70.4803 29.6674L70.343 29.2555L70.0693 27.3339C69.9321 26.0986 68.9735 25.4124 67.3297 25.1378C65.8229 25.0003 64.5901 25.0002 62.9463 25.0002C62.9463 25.0002 62.9463 25.0002 62.809 25.0002C53.9051 25.0002 47.6039 28.0199 44.1794 33.7847C45.4122 27.8827 41.3027 25.0002 31.8509 25.0002C26.5086 25.0002 22.6732 25.1378 20.4814 25.4122C18.7007 25.6864 17.6048 26.373 17.1938 27.6082L16.3719 30.0789C16.2346 30.4907 16.5092 30.7651 17.0569 30.7651C17.4679 30.7651 19.1116 30.4906 21.8512 30.3532C25.5498 30.0787 28.1524 29.9413 29.9332 29.9413C35.1385 29.9413 37.4673 31.314 36.6454 33.9218C36.5081 34.4708 36.0974 34.8825 35.4125 35.0198C30.4811 35.8433 26.5086 36.3923 23.632 36.8042C15.4131 37.9022 10.6187 40.3729 9.38583 44.4906C7.60507 50.1181 11.9885 52.8632 22.5362 52.8632C27.7415 52.8632 32.2619 52.5886 35.8235 51.9024C37.8782 51.4905 38.9741 51.0789 39.385 49.7063L41.3027 43.3925C41.1655 49.7063 45.4122 52.8632 54.453 52.8632C58.2886 52.8632 61.9871 52.7256 63.7679 52.4513C65.5486 52.1767 66.5075 51.765 66.9184 50.3924L67.3295 48.4708C69.2473 51.4904 73.4938 53.0002 79.9319 53.0002C86.781 53.0002 90.7535 52.8627 91.8493 52.4513C92.8082 52.1767 93.3562 51.6277 93.6301 50.9414C93.6301 50.8039 93.6301 50.6669 93.7674 50.5295L94.5893 47.9217C94.7266 47.5098 94.452 47.2354 93.9044 47.2354L89.5209 47.51C86.6443 47.6475 84.3157 47.7845 82.6719 47.7845C79.5213 47.7845 77.4665 47.5099 76.2337 47.0982C74.4529 46.4119 73.631 45.1766 73.768 43.1177L87.6032 41.3334C93.7674 40.5099 98.0138 38.5883 100.069 35.5686L95.2742 51.6276C95.1369 51.9022 95.2742 52.1767 95.4115 52.3139C95.5488 52.4515 95.8226 52.5885 96.3703 52.5885H102.124C103.083 52.5885 103.493 52.0394 103.63 51.6277L108.699 33.9216C109.384 31.5883 111.438 30.4902 115.274 30.4902C118.698 30.4902 121.164 30.4902 122.808 30.6278H122.945C123.219 30.6278 123.767 30.4902 124.178 29.8042L125 27.3336C125 26.9217 125 26.5101 124.726 26.2356L124.725 26.2361ZM32.3992 47.3736C30.6184 47.6482 28.0158 47.7855 24.7282 47.7855C18.838 47.7855 16.3723 46.5502 17.0572 44.2168C17.6051 42.5697 19.1119 41.4717 21.5776 41.1972L34.8649 39.4129L32.3992 47.3736ZM93.6304 33.0989C93.0824 34.8833 90.4797 36.1186 85.8223 36.8049L74.7268 38.3147L75.0008 37.3539C75.9597 34.3343 77.1926 32.4126 78.8363 31.3146C80.4801 30.2166 83.2197 29.6676 87.0553 29.6676C92.1236 29.8051 94.3154 30.9028 93.6304 33.0989H93.6304Z" fill="white"/>
</svg>
