<svg width="134" height="78" viewBox="0 0 134 78" fill="none" xmlns="http://www.w3.org/2000/svg">
<path fill-rule="evenodd" clip-rule="evenodd" d="M80.9256 4.00024C81.3742 8.06214 79.7457 12.1374 77.3335 15.0681C74.921 17.9946 70.9632 20.2748 67.0878 19.9735C66.5568 15.9943 68.5162 11.845 70.7498 9.25476C73.2449 6.32396 77.4507 4.14016 80.9256 4.00024ZM92.2323 27.4451C91.6284 27.8214 85.024 31.9367 85.0975 40.2948C85.1882 50.3953 93.6708 53.8456 93.9915 53.9761C93.9958 53.9778 93.9987 53.979 94 53.9796C93.9974 53.988 93.9932 54.0018 93.9876 54.0207C93.8304 54.5444 92.4927 59.0015 89.4108 63.6015C86.6439 67.7197 83.7767 71.8251 79.2586 71.9147C77.0884 71.9542 75.6372 71.3133 74.1291 70.6473C72.5497 69.9497 70.9078 69.2246 68.3122 69.2246C65.5941 69.2246 63.8763 69.9708 62.2208 70.69C60.7858 71.3134 59.3976 71.9165 57.4453 71.9957C53.0818 72.1662 49.7632 67.5407 46.9754 63.4353C41.2828 55.0368 36.9276 39.7022 42.7749 29.3555C45.6755 24.2142 50.8624 20.9614 56.4965 20.8761C58.9237 20.8278 61.2756 21.7789 63.3343 22.6115C64.9056 23.247 66.3061 23.8134 67.4387 23.8134C68.4549 23.8134 69.8179 23.2655 71.4075 22.6264C73.9105 21.6202 76.9752 20.3882 80.1321 20.7141C82.2971 20.8079 88.3659 21.6051 92.2655 27.4243C92.2581 27.429 92.247 27.436 92.2323 27.4451Z" fill="white"/>
</svg>
