<svg width="134" height="78" viewBox="0 0 134 78" fill="none" xmlns="http://www.w3.org/2000/svg">
<path d="M124.536 33.131V27.0002H102.032C97.334 27.0002 95.217 29.9058 94.869 32.7242V32.8114V27.0002H88.257V33.131H94.84H124.536ZM94.84 35.3392L88.228 34.9615V42.022C88.228 44.2303 87.126 44.8986 83.298 44.8986H78.02C74.859 44.8986 73.525 43.9978 73.525 42.022V34.2932L66.826 33.7993V42.5741H66.681C66.304 40.0172 65.347 37.0535 58.967 36.6177L38 35.223C38 38.4482 40.291 40.3659 43.887 40.7436L58.503 42.2254C59.663 42.3126 60.504 42.6613 60.504 43.6201C60.504 44.6661 59.634 44.7823 58.3 44.7823H37.739V35.223L31.04 34.7872V51.0002H58.329C64.419 51.0002 66.362 47.8332 66.652 45.1891H66.797C67.551 49.3731 71.205 51.0002 77.382 51.0002H84.197C91.418 51.0002 94.84 48.792 94.84 43.6201V35.3392ZM116.097 36.5886L95.13 35.3392C95.13 38.5644 97.247 40.7145 100.843 41.0051L115.778 42.1673C116.938 42.2545 117.634 42.545 117.634 43.5039C117.634 44.4046 116.822 44.7533 115.14 44.7533H94.782V51.0002H115.575C122.129 51.0002 125 48.7048 125 43.4748C125 38.7678 122.419 36.9954 116.097 36.5886ZM66.826 27.0002H73.525V33.131H66.826V27.0002ZM27.357 34.4966L20.078 33.7702L9 51.0002H17.149L27.357 34.4966ZM65.608 27.0002H45.163C40.407 27.0002 38.319 29.9639 37.826 32.8114V27.0002H26.487C24.892 27.0002 24.138 27.4942 23.384 28.5983L20.252 33.131H65.608V27.0002Z" fill="white"/>
</svg>
