<svg width="134" height="78" viewBox="0 0 134 78" fill="none" xmlns="http://www.w3.org/2000/svg">
<path d="M64.6191 30.5559L56.1738 37.0527C55.3078 33.8038 52.4914 31.421 49.0263 31.421H42.963V46.364H49.0263C52.4913 46.364 55.5226 43.9808 56.1723 40.7324L64.6189 47.2291L73.0654 40.7324V46.364H82.593V43.3315H76.3139V31.4211H72.8479V37.0508L64.8349 43.5494L63.1018 42.0327L67.0014 39.0001L71.1149 35.7516L68.7335 33.8037L60.7205 40.0828L58.9884 38.5665L67.0014 32.5032L64.6182 30.5553L64.6191 30.5559ZM46.2118 34.4517H48.8109C49.3523 34.4517 49.8805 34.5752 50.3678 34.7985C50.855 35.0218 51.3003 35.3461 51.6793 35.7522C52.0583 36.1582 52.3703 36.6447 52.5869 37.1929C52.8034 37.741 52.9244 38.3509 52.9244 39.0006C52.9244 39.5962 52.816 40.1781 52.6164 40.7161C52.4167 41.2541 52.1259 41.7482 51.7605 42.1678C51.395 42.5874 50.9556 42.9329 50.4582 43.1732C49.9608 43.4134 49.4065 43.5476 48.811 43.5476H46.2119V34.4518L46.2118 34.4517ZM93.4218 43.3324V46.3643H83.8933V31.4213H87.3583V43.3317H93.422L93.4218 43.3324ZM67 5.00024C48.3756 5.00024 33 20.3758 33 39.0002C33 57.6247 48.1593 73.0002 67 73.0002C85.8407 73.0002 101 57.841 101 39.0002C101 20.1595 85.6244 5.00024 67 5.00024ZM67 8.46626C69.1114 8.46624 71.1714 8.67817 73.161 9.08421C75.1507 9.49026 77.0705 10.0891 78.8977 10.8606C80.7249 11.6321 82.4607 12.5773 84.0848 13.6736C85.709 14.77 87.2217 16.0174 88.6023 17.398C89.9829 18.7786 91.2302 20.2913 92.3266 21.9154C93.4229 23.5396 94.3681 25.2753 95.1396 27.1025C95.9111 28.9297 96.5099 30.8497 96.916 32.8393C97.3221 34.8289 97.534 36.8888 97.534 39.0002C97.534 41.1116 97.3221 43.1717 96.916 45.1612C96.51 47.1509 95.9111 49.0708 95.1396 50.898C94.3681 52.7252 93.4229 54.4609 92.3266 56.0851C91.2303 57.7092 89.9829 59.2219 88.6023 60.6025C87.2217 61.9831 85.709 63.2304 84.0848 64.3268C82.4607 65.4232 80.7249 66.3684 78.8977 67.1399C77.0705 67.9114 75.1506 68.5102 73.161 68.9163C71.1713 69.3223 69.1114 69.5342 67 69.5342C64.8886 69.5342 62.8286 69.3223 60.839 68.9163C58.8491 68.513 56.929 67.9142 55.1015 67.1426C53.275 66.371 51.5391 65.4256 49.9146 64.3291C48.2902 63.2336 46.7781 61.9859 45.3973 60.6052C44.0166 59.2244 42.769 57.7123 41.673 56.0879C40.5767 54.4634 39.6315 52.7276 38.86 50.901C38.0885 49.0735 37.4897 47.1535 37.0836 45.1635C36.6776 43.1745 36.4656 41.1147 36.4656 39.0029C36.4656 36.8911 36.6776 34.8313 37.0836 32.8423C37.4896 30.8523 38.0885 28.9323 38.86 27.1048C39.6315 25.2782 40.5767 23.5423 41.673 21.9179C42.769 20.2934 44.0166 18.7814 45.3973 17.4006C46.7781 16.0198 48.2902 14.7722 49.9146 13.6763C51.5391 12.58 53.275 11.6348 55.1015 10.8633C56.929 10.0917 58.8491 9.49297 60.839 9.08685C62.828 8.68084 64.8878 8.46891 66.9996 8.46891L67 8.46626Z" fill="white"/>
</svg>
