<svg width="134" height="78" viewBox="0 0 134 78" fill="none" xmlns="http://www.w3.org/2000/svg">
<path fill-rule="evenodd" clip-rule="evenodd" d="M67 5.00025C85.7784 5.00025 101 20.2218 101 39.0002C101 57.7774 85.7784 73.0003 67 73.0003C66.6625 73.0003 66.3251 72.9938 65.9902 72.9847L72.9384 53.8883H82.5009C84.1791 53.8883 86.0215 52.5979 86.5955 51.0206L94.1333 30.3144C95.3667 26.9256 93.4261 24.151 89.8188 24.151H76.5521L65.4213 54.7377H65.4162L59.1067 72.0771C44.1359 68.5177 33 55.0596 33 39.0002C33 23.4037 43.5024 10.2612 57.8202 6.25568L51.3091 24.151H51.3078L40.4834 53.8883H47.6889L56.8945 28.6194H62.3106L53.105 53.8883L60.3078 53.8896L68.8864 30.3144C70.1198 26.9256 68.1779 24.151 64.5745 24.151H58.5171L65.4718 5.03645C65.9786 5.01318 66.488 5.00025 67 5.00025ZM82.1595 28.6014H87.573L79.9913 49.4032H74.5778L82.1595 28.6014Z" fill="white"/>
</svg>
