<svg width="134" height="78" viewBox="0 0 134 78" fill="none" xmlns="http://www.w3.org/2000/svg">
<g clip-path="url(#clip0_796_10523)">
<path fill-rule="evenodd" clip-rule="evenodd" d="M18.3916 47.8055C18.4159 47.8602 18.4018 47.9237 18.3559 47.9618L18.3572 47.9631C18.3112 48.0088 18.2385 48.0203 18.1811 47.9885C16.3497 47.0877 8.47823 43.106 5.22778 39.9513C3.97101 38.8746 3.19409 37.346 3.0672 35.7002C2.80303 32.1682 6.52949 28.6489 6.52949 28.6489C11.2174 34.5542 15.1982 40.9831 18.3916 47.8055ZM17.0746 50.5752C17.1048 50.5966 17.1275 50.6268 17.1397 50.6616L17.1282 50.6629C17.1282 50.6629 17.1627 50.7341 17.0644 50.823V50.8268C15.7933 51.7403 11.8933 54.4477 10.173 54.8759C7.69337 55.4768 5.28521 53.5177 3.86482 50.9945L16.9712 50.5397V50.5422C17.0083 50.5423 17.0444 50.5538 17.0746 50.5752ZM17.2865 49.2984C17.2865 49.2984 17.4013 49.3873 17.3375 49.489L17.3349 49.4877C17.3081 49.5385 17.2571 49.5728 17.1997 49.5792L17.0384 49.5799C14.7934 49.5897 7.56216 49.6214 7.3705 49.5842C6.51083 49.5365 5.66451 49.3512 4.86407 49.0354C3.04185 48.3058 1.56534 46.9154 0.732368 45.1447C-0.100603 43.3739 -0.228051 41.3545 0.375731 39.4939C0.375731 39.4939 11.5449 45.431 17.2877 49.2933L17.2865 49.2984ZM16.097 23.4144C16.097 23.4144 17.6361 23.0663 18.2079 23.0155L18.2091 23.0002C18.2091 23.0002 22.0709 27.9895 20.1872 46.7586H20.1847C20.1885 46.8349 20.1375 46.9035 20.0634 46.9213C20.0634 46.9213 19.992 46.953 19.9052 46.8666C18.6826 45.1032 12.9819 36.695 11.8244 31.58C11.453 30.2262 11.4468 28.7988 11.8065 27.4419C12.4433 25.4536 14.0641 23.9303 16.097 23.4144ZM22.7332 46.8463C22.6975 46.9149 22.6158 46.9454 22.5443 46.9162V46.9149C22.4831 46.8933 22.4435 46.8361 22.4422 46.7726H22.4397C20.5509 27.9921 24.4356 23.0142 24.4356 23.0142C25.4974 23.1629 26.4992 23.4144 26.4992 23.4144C27.5061 23.6628 28.4325 24.1631 29.1905 24.868C29.9485 25.5728 30.5131 26.4588 30.8306 27.4419C31.1611 28.8026 31.1535 30.2231 30.8089 31.58C29.6578 36.6734 23.9928 45.0346 22.7345 46.8463H22.7332ZM25.4974 50.6527C25.5178 50.5689 25.6455 50.5536 25.6455 50.5536L25.648 50.5473L38.7697 51.0047C35.8281 56.0359 32.4399 54.8873 32.4399 54.8873C30.6022 54.388 26.7991 51.7263 25.5485 50.8306C25.5013 50.7849 25.4821 50.7163 25.4974 50.6527ZM25.3583 49.2857C31.1203 45.4157 42.2614 39.4647 42.2614 39.4647V39.4634C42.8435 41.2883 42.7391 43.2616 41.9679 45.0155C41.146 46.8552 39.6312 48.2985 37.7488 49.0328C37.0266 49.3159 36.2662 49.4906 35.4925 49.5512L25.4285 49.5766V49.5741C25.3481 49.5741 25.2932 49.4763 25.2932 49.4763C25.2835 49.4417 25.2845 49.4049 25.2961 49.3709C25.3077 49.3369 25.3294 49.3072 25.3583 49.2857ZM24.4841 47.9885C24.4267 48.019 24.3565 48.0139 24.3055 47.9758L24.3195 47.9745C24.2634 47.9186 24.2493 47.836 24.2838 47.7662H24.2799C27.4701 40.9619 31.4445 34.5502 36.1229 28.6603C36.1229 28.6603 39.8047 32.0399 39.5686 35.6926C39.4415 37.3434 38.6657 38.8778 37.4093 39.9627C34.1742 43.1009 26.3601 47.0559 24.4841 47.9885ZM48.719 45.7658H51.8456V40.0473H58.8034V45.7645H61.9301V32.1041H58.8034V37.6397H51.8456V32.1041H48.719V45.7658ZM70.9514 43.7076C68.3659 43.7076 67.6001 42.7013 67.6001 40.2848L67.5861 32.1028H64.4812V40.3611C64.4812 42.0915 64.6496 43.2947 65.3336 44.029C66.5537 45.3656 68.3544 45.9157 70.9386 45.9157C73.5229 45.9157 75.3006 45.3656 76.5258 44.029C77.2468 42.9491 77.5544 41.6481 77.3936 40.3611V32.1028H74.2695V40.2848C74.2695 42.6912 73.537 43.7076 70.9514 43.7076ZM93.9444 45.7645L87.6145 32.1028H84.299L78.0138 45.7645H81.3357L82.6591 42.5095H89.1166L90.4821 45.7645H93.9444ZM88.0906 40.0765H83.6622L85.8355 34.8268L88.0906 40.0765ZM110.518 45.7645L115.112 32.1041L111.93 32.118L108.723 42.62L105.394 32.118H101.71L98.8131 42.62L95.3674 32.118H92.011L96.9588 45.7785H100.768L103.537 35.5802L106.69 45.7645H110.518ZM127.979 37.6587H119.33L119.319 37.6485C119.446 35.4989 120.583 34.4736 122.835 34.4748H127.965V32.0939H122.775C117.995 32.0939 115.781 34.3427 115.781 39.1706C115.689 40.1848 115.848 41.2061 116.245 42.1448C116.641 43.0836 117.263 43.9111 118.055 44.555C119.411 45.4825 121.052 45.9055 122.69 45.7531H127.966V43.3734H122.836C120.373 43.3734 119.318 42.4815 119.301 40.0269H127.979V37.6587ZM134 32.1041H130.733V45.7658H134V32.1041Z" fill="white"/>
</g>
<defs>
<clipPath id="clip0_796_10523">
<rect width="134" height="78" fill="white" transform="translate(0 0.000244141)"/>
</clipPath>
</defs>
</svg>
