<svg width="134" height="78" viewBox="0 0 134 78" fill="none" xmlns="http://www.w3.org/2000/svg">
<path fill-rule="evenodd" clip-rule="evenodd" d="M8.58757 46.6832H21.1167V51.6644H3V26.0002H8.58757V46.6832ZM28.1335 37.8606C29.0724 36.6202 30.5676 35.8919 32.3736 35.8919C34.36 35.8919 35.8672 37.0083 36.6464 38.6563L27.0153 42.5884C26.7524 40.5705 27.2772 38.9921 28.1335 37.8606ZM38.724 45.5901C36.404 47.2798 35.0783 47.6829 32.9626 47.6829C31.0588 47.6829 29.5679 47.1012 28.5171 46.081L42.6099 40.3277C42.3024 38.1836 41.4754 36.2683 40.203 34.8118C38.3513 32.6955 35.6108 31.5759 32.2737 31.5759C26.2123 31.5759 21.6418 35.9764 21.6418 41.7885C21.6418 47.7514 26.2232 52 32.8811 52C36.6116 52 40.4257 50.2601 42.21 48.2272L38.724 45.5901ZM50.1022 34.7427C51.7083 32.6317 54.3369 31.5773 56.6482 31.5773C61.4979 31.5773 64.8014 34.8742 64.8014 39.418V51.6646H59.2888V40.4233C59.2888 37.8108 56.9286 36.2495 54.6477 36.2495C51.6963 36.2495 50.1022 38.4 50.1022 40.4233V51.6646H44.5907V31.9088H50.1033L50.1022 34.7395L50.1033 34.7384L50.1022 34.7427ZM98.9966 45.3666L103.98 31.9095H110.276L102.016 51.6589H95.9757L87.7161 31.9095H94.0132L98.9966 45.3666ZM120.175 36.2245C117.096 36.2245 114.861 38.5205 114.861 41.7864C114.861 44.9047 117.229 47.3482 120.249 47.3482C123.328 47.3482 125.562 44.9892 125.562 41.7864C125.562 38.668 123.196 36.2245 120.175 36.2245ZM120.175 51.9968C114.146 51.9968 109.422 47.5771 109.422 41.7864C109.422 36.0609 114.179 31.5759 120.249 31.5759C126.277 31.5759 131 35.9956 131 41.7864C131 47.5108 126.245 51.9968 120.175 51.9968ZM72.4208 41.7864C72.4208 38.5205 74.6549 36.2245 77.7334 36.2245C80.7543 36.2245 83.121 38.668 83.121 41.7864C83.121 44.9892 80.8869 47.3482 77.8084 47.3482C74.7875 47.3482 72.4208 44.9047 72.4208 41.7864ZM66.9821 41.7864C66.9821 47.5771 71.7047 51.9968 77.7334 51.9968C83.8034 51.9968 88.5597 47.5108 88.5597 41.7864C88.5597 35.9956 83.836 31.5759 77.8084 31.5759C71.7373 31.5759 66.9821 36.0609 66.9821 41.7864Z" fill="white"/>
</svg>
