<svg width="134" height="78" viewBox="0 0 134 78" fill="none" xmlns="http://www.w3.org/2000/svg">
<path fill-rule="evenodd" clip-rule="evenodd" d="M34.5516 65.0002C48.6641 65.0002 60.1033 53.3548 60.1033 39.0018C60.1033 24.6395 48.6641 13.0002 34.5516 13.0002C20.4392 13.0002 9 24.6395 9 39.0018C9 53.3548 20.4392 65.0002 34.5516 65.0002ZM33.5372 27.5862V50.3808H40.6537V48.3439H35.5662V27.5862H33.5372ZM29.4612 30.6954C29.4612 32.4107 28.0855 33.8104 26.3937 33.8104C24.7079 33.8104 23.3322 32.4107 23.3322 30.6954C23.3322 28.9771 24.7079 27.5804 26.3937 27.5804C28.0855 27.5804 29.4612 28.9771 29.4612 30.6954ZM35.5661 17.2456C35.3102 17.2333 34.8015 17.2302 34.5516 17.2302C22.7662 17.2302 13.1723 26.9919 13.1723 38.9926C13.1723 44.8031 15.3849 50.2674 19.4217 54.3749C23.4736 58.4915 28.847 60.755 34.5516 60.755C40.2592 60.755 45.6326 58.4915 49.6785 54.3749C53.7154 50.2674 55.934 44.8031 55.934 38.9926V38.0033H55.079H40.6686V40.0279H53.905V40.3189C53.2247 50.5798 44.8018 58.7181 34.5516 58.7181C29.3769 58.7181 24.5122 56.669 20.8456 52.9444C17.182 49.2168 15.1651 44.2609 15.1651 38.9926C15.1651 33.7274 17.182 28.7684 20.8456 25.0408C24.5122 21.3101 29.3769 19.261 34.5516 19.261C34.7864 19.261 35.3343 19.2671 35.5661 19.2732V17.2456ZM111.755 42.9959H117.971V48.8707C116.824 49.3179 114.59 49.7589 112.462 49.7589C105.595 49.7589 103.305 46.209 103.305 39.0018C103.305 32.1254 105.484 28.0762 112.351 28.0762C116.171 28.0762 118.35 29.2953 120.147 31.6231L124.892 27.1879C122.002 22.9733 116.932 21.6991 112.191 21.6991C101.504 21.6991 95.8902 27.629 95.8902 38.9436C95.8902 50.2061 100.96 56.3076 112.134 56.3076C117.257 56.3076 122.276 54.9752 125 53.0332V36.7291H111.755V42.9959ZM80.9589 55.8085H94.9629V49.2599H79.1527V22.1986H71.5275V55.8085H80.9589Z" fill="white"/>
</svg>
