<svg width="47" height="30" viewBox="0 0 47 30" fill="none" xmlns="http://www.w3.org/2000/svg">
<path fill-rule="evenodd" clip-rule="evenodd" d="M17.1456 26.4003H29.8548V3.60083H17.1456V26.4003Z" fill="#FF5F00"/>
<path fill-rule="evenodd" clip-rule="evenodd" d="M17.9524 15.0004C17.9524 10.3749 20.1218 6.25533 23.5 3.60064C21.0292 1.65887 17.912 0.500488 14.5237 0.500488C6.50239 0.500488 0.00012207 6.99241 0.00012207 15.0004C0.00012207 23.0083 6.50239 29.5002 14.5237 29.5002C17.912 29.5002 21.0292 28.3419 23.5 26.4001C20.1218 23.745 17.9524 19.6258 17.9524 15.0004Z" fill="#EB001B"/>
<path fill-rule="evenodd" clip-rule="evenodd" d="M46.5465 23.9857V23.423H46.3993L46.2302 23.8101L46.0608 23.423H45.9135V23.9857H46.0172V23.5612L46.1761 23.9273H46.2839L46.4428 23.5604V23.9857H46.5465ZM45.6141 23.9857V23.5189H45.8029V23.4238H45.3228V23.5189H45.5112V23.9857H45.6141ZM47 15.0006C47 23.0086 40.4974 29.5005 32.4764 29.5005C29.0881 29.5005 25.9705 28.3421 23.5001 26.4003C26.8783 23.7457 29.0478 19.6261 29.0478 15.0006C29.0478 10.3756 26.8783 6.25598 23.5001 3.60089C25.9705 1.65911 29.0881 0.500732 32.4764 0.500732C40.4974 0.500732 47 6.99265 47 15.0006Z" fill="#F79E1B"/>
</svg>
