<svg width="71" height="22" viewBox="0 0 71 22" fill="none" xmlns="http://www.w3.org/2000/svg">
<g clip-path="url(#clip0_795_10894)">
<path d="M19.1327 0.506592V0.515762C19.1239 0.515762 16.3585 0.506592 15.6211 3.26645C14.9451 5.79709 13.04 12.7808 12.9873 12.9733H12.4606C12.4606 12.9733 10.5116 5.83376 9.82681 3.25728C9.08936 0.497422 6.31514 0.506592 6.31514 0.506592H0V21.4974H6.31807V9.03059H6.84482L10.5321 21.4973H14.9187L18.606 9.03975H19.1327V21.4973H25.4508V0.506592H19.1327ZM42.2131 0.506592C42.2131 0.506592 40.3607 0.680801 39.4916 2.70724L35.0171 12.9733H34.4904V0.506592H28.1723V21.4974H34.1392C34.1392 21.4974 36.0794 21.314 36.9487 19.2969L41.3353 9.03068H41.8621V21.4974H48.1801V0.506592H42.2131ZM50.9894 10.0393V21.4974H57.3074V14.8071H64.1524C67.1373 14.8071 69.6627 12.8175 70.6021 10.0423H50.9894V10.0393Z" fill="#4DB45E"/>
<path d="M64.155 0.505127H50.1025C50.8049 4.5028 53.6756 7.70889 57.3862 8.75415C58.2477 8.99783 59.1363 9.12118 60.0287 9.121H70.8593C70.9559 8.64421 70.9998 8.15826 70.9998 7.65397C70.9999 3.7051 67.9359 0.505127 64.155 0.505127Z" fill="url(#paint0_linear_795_10894)"/>
</g>
<defs>
<linearGradient id="paint0_linear_795_10894" x1="50.1025" y1="4.81305" x2="70.9998" y2="4.81305" gradientUnits="userSpaceOnUse">
<stop offset="0.3" stop-color="#00B4E6"/>
<stop offset="1" stop-color="#088CCB"/>
</linearGradient>
<clipPath id="clip0_795_10894">
<rect width="71" height="21" fill="white" transform="translate(0 0.500488)"/>
</clipPath>
</defs>
</svg>
