<svg width="134" height="78" viewBox="0 0 134 78" fill="none" xmlns="http://www.w3.org/2000/svg">
<path d="M46.4222 27.0479H39.5454V36.2046H32.3868V27.0479H25.5099V50.0854H32.3868V41.0236H39.5454V50.0854H46.4222V27.0479ZM70.344 45.4563V27.0479H63.4671V50.0854H75.9018L76.9359 45.4563H70.344ZM58.3831 27.0479H51.5062V50.0854H58.3831V27.0479ZM86.262 27.0479H79.3883V50.0854H86.262V27.0479ZM120.166 32.9276C120.166 31.6737 121.392 31.0943 123.368 31.0943C125.535 31.0943 127.891 31.5788 129.492 32.2565L128.929 27.241C127.136 26.8547 125.535 26.5667 122.618 26.5667C117.061 26.5667 113.292 28.8092 113.292 33.507C113.292 41.6031 124.034 39.9662 124.034 43.7245C124.034 45.1682 122.993 45.9375 120.451 45.9375C118.194 45.9375 114.704 45.1682 112.633 44.1075L113.388 49.411C115.46 50.1836 118.284 50.5667 120.547 50.5667C126.291 50.5667 131 48.6384 131 42.8537C131 35.1472 120.166 36.5909 120.166 32.9276ZM100.768 44.592C107.168 44.592 111.221 41.2168 111.221 35.3371C111.221 28.8812 106.889 26.5667 99.8236 26.5667C97.0927 26.5667 93.7951 26.7598 91.442 27.0479V50.0854H98.3189V44.592H100.768ZM104.44 35.4353C104.44 38.421 103.028 40.4474 99.4458 40.4474H98.3189V30.9273C98.7191 30.9044 99.0936 30.9044 99.4458 30.9044C102.836 30.9044 104.44 32.5413 104.44 35.4353ZM12.326 44.592C18.7291 44.592 22.779 41.2168 22.779 35.3371C22.779 28.8812 18.4473 26.5667 11.3848 26.5667C8.65068 26.5667 5.35632 26.7598 3 27.0479V50.0854H9.87687V44.592H12.326ZM16.0014 35.4353C16.0014 38.421 14.5863 40.4474 11.007 40.4474H9.87687V30.9273C10.2771 30.9044 10.6548 30.9044 11.007 30.9044C14.3974 30.9044 16.0014 32.5413 16.0014 35.4353Z" fill="white"/>
</svg>
