<svg width="134" height="78" viewBox="0 0 134 78" fill="none" xmlns="http://www.w3.org/2000/svg">
<path d="M110.919 44.0233H110.815L106.41 28.6276H99.3026V48.0368H104.01L103.745 32.1091H103.849L108.58 48.0368H115.399V28.6267H110.659L110.919 44.0233ZM20.5015 28.6267L16.9561 48.2411H22.1298L24.7513 30.4371H24.8606L27.4127 48.2421H32.5559L29.0267 28.6267H20.5015ZM49.4408 28.6286L47.0759 43.6252H46.9685L44.615 28.6286H36.8047L36.3808 48.2411H41.1694L41.2892 30.6033H41.3975L44.596 48.2411H49.4531L52.6525 30.609L52.759 30.6033L52.8835 48.2411H57.6741L57.2511 28.6286H49.4408ZM5.09188 33.6723C5.00158 33.2713 5.02344 32.8702 5.07192 32.6487C5.20974 32.0184 5.62417 31.328 6.82276 31.328C7.94626 31.328 8.60021 32.0404 8.60021 33.1041V34.3159H13.3822V32.9466C13.3822 28.6677 9.63532 28.0002 6.92256 28.0002C3.51879 28.0002 0.739497 29.1585 0.227172 32.3584C0.0874469 33.2178 0.0703377 34.0056 0.273747 34.9987C1.10544 39.0073 7.90824 40.1684 8.89582 42.7037C9.08117 43.1764 9.02129 43.7894 8.93004 44.1599C8.77511 44.8016 8.34452 45.4691 7.06609 45.4691C5.87035 45.4691 5.14036 44.7672 5.14036 43.6968L5.13751 41.7937H0.00285153L0 43.31C0 47.6854 3.361 49.0002 6.96058 49.0002C10.4299 49.0002 13.2739 47.799 13.7339 44.5247C13.9677 42.8269 13.7957 41.7135 13.713 41.2981C12.9022 37.1892 5.63842 35.9746 5.09188 33.6723ZM67.3978 33.7181C67.3037 33.3266 67.3303 32.9294 67.375 32.7126C67.509 32.0862 67.9196 31.4035 69.1078 31.4035C70.2179 31.4035 70.87 32.1053 70.87 33.1548V34.3579H75.6007V33.001C75.6007 28.7747 71.888 28.1091 69.2104 28.1091C65.8361 28.1091 63.0806 29.2416 62.5797 32.4214C62.4399 33.277 62.4181 34.059 62.6234 35.0378C63.4475 39.0044 70.1828 40.157 71.1628 42.6645C71.3414 43.1372 71.2873 43.7397 71.1998 44.1074C71.0439 44.7538 70.6134 45.4013 69.353 45.4013C68.1629 45.4013 67.4463 44.7099 67.4463 43.6509L67.4425 41.7622H62.3534V43.2652C62.3534 47.5956 65.685 48.8952 69.2494 48.8952C72.676 48.8952 75.4961 47.7045 75.9476 44.4645C76.1795 42.7887 76.0085 41.6848 75.9277 41.2713C75.1245 37.2064 67.9301 35.9984 67.3978 33.7181ZM89.116 43.1324C89.1198 43.3817 89.1122 43.67 89.0713 43.8801C88.9763 44.3681 88.5666 45.2914 87.2349 45.2914C85.908 45.2914 85.4936 44.3681 85.3985 43.8801C85.3577 43.67 85.3482 43.3817 85.3501 43.1324V28.6247H80.5101V42.6827C80.5025 43.0465 80.5376 43.7827 80.5547 43.9785C80.8836 47.6347 83.7123 48.816 87.234 48.816C90.7518 48.816 93.5796 47.6347 93.9189 43.9785C93.936 43.7827 93.9731 43.0455 93.9674 42.6827V28.6247H89.115V43.1324H89.116ZM127.222 37.214V40.0863H129.183V42.9309C129.189 43.1783 129.179 43.4514 129.138 43.6758C129.053 44.2038 128.564 45.0947 127.183 45.0947C125.798 45.0947 125.311 44.2029 125.222 43.6758C125.185 43.4514 125.174 43.1783 125.179 42.9309V33.9569C125.179 33.6379 125.199 33.2894 125.257 33.0363C125.359 32.5532 125.771 31.6126 127.164 31.6126C128.629 31.6126 128.991 32.6057 129.078 33.0363C129.134 33.3085 129.138 33.7773 129.138 33.7754V34.8802H133.965V34.2252C133.963 34.2252 133.982 33.5549 133.926 32.9428C133.571 29.254 130.595 28.0929 127.204 28.0929C123.811 28.0929 120.905 29.2636 120.484 32.9428C120.443 33.2598 120.4 33.8767 120.4 34.2252L120.398 42.4774C120.4 42.8469 120.412 43.12 120.465 43.7732C120.78 47.3445 123.811 48.624 127.2 48.624C130.591 48.624 133.622 47.3445 133.939 43.7732C133.991 43.1191 133.999 42.846 134 42.4774V37.214H127.222Z" fill="white"/>
</svg>
