<svg width="202" height="34" viewBox="0 0 202 34" fill="none" xmlns="http://www.w3.org/2000/svg">
<g clip-path="url(#clip0_795_10897)">
<path d="M90.3733 9.93877L94.5634 6.86304H80.5359V25.2873H94.5634V22.2115H84.5437V17.5075H93.106V14.4317H84.5437V9.93877H90.3733Z" fill="#21A038"/>
<path d="M69.939 14.0397H65.081V9.93877H72.8538L77.0438 6.86304H61.0731V25.2873H69.4228C74.0987 25.2873 76.8009 23.1765 76.8009 19.4976C76.8009 15.9696 74.3719 14.0397 69.939 14.0397ZM69.271 22.2115H65.081V17.1155H69.271C71.8215 17.1155 73.0056 17.9598 73.0056 19.6786C73.0056 21.3974 71.7304 22.2115 69.271 22.2115Z" fill="#21A038"/>
<path d="M105.919 6.86304H98.2976V25.2873H102.305V20.0706H105.949C110.807 20.0706 113.843 17.5376 113.843 13.4668C113.843 9.39599 110.807 6.86304 105.919 6.86304ZM105.828 16.9948H102.275V9.93877H105.828C108.408 9.93877 109.805 11.2052 109.805 13.4668C109.805 15.7284 108.408 16.9948 105.828 16.9948Z" fill="#21A038"/>
<path d="M54.2113 21.3069C53.1486 21.8799 51.9645 22.1814 50.75 22.1814C47.1368 22.1814 44.5256 19.6183 44.5256 16.0902C44.5256 12.5622 47.1368 9.9991 50.75 9.9991C52.0556 9.96894 53.3308 10.3911 54.3935 11.145L57.2779 9.03416L57.0957 8.85324C55.4258 7.37568 53.179 6.62183 50.6285 6.62183C47.8655 6.62183 45.3454 7.55661 43.5237 9.24524C41.7019 10.9942 40.6696 13.4367 40.7303 15.9696C40.7 18.5327 41.7019 21.0054 43.5237 22.8146C45.4365 24.5937 47.987 25.5888 50.5981 25.5285C53.4826 25.5285 56.0027 24.5334 57.703 22.7242L55.1222 20.8245L54.2113 21.3069Z" fill="#21A038"/>
<path d="M162.029 6.89319V25.3174H166.037V17.7789H174.569V25.3174H178.577V6.89319H174.569V14.4619H166.037V6.89319H162.029ZM155.137 25.3174H159.357L151.523 6.89319H147.455L139.47 25.3174H143.508L145.117 21.6084H153.618L155.137 25.3174ZM146.331 18.5327L149.428 11.1449L152.343 18.5327H146.331ZM187.564 17.8693H190.054L196.187 25.2873H201.348L193.151 15.7585L200.316 6.86304H195.731L189.78 14.7634H187.564V6.86304H183.556V25.2873H187.564V17.8693ZM126.231 14.0699V9.96892H136.707V6.89319H122.224V25.3174H130.573C135.249 25.3174 137.951 23.2066 137.951 19.5278C137.951 15.9998 135.522 14.0699 131.09 14.0699H126.231ZM126.231 22.2417V17.1456H130.422C132.972 17.1456 134.156 17.9899 134.156 19.7087C134.156 21.4275 132.911 22.2718 130.422 22.2718H126.231V22.2417Z" fill="#21A038"/>
<path d="M28.1908 6.74243C28.9195 7.67721 29.5268 8.70245 30.0429 9.788L16.0155 20.0706L10.1251 16.3918V11.9893L15.9851 15.6379L28.1908 6.74243Z" fill="#21A038"/>
<path d="M4.14409 16.0902C4.14409 15.8791 4.14409 15.6982 4.17445 15.4871L0.622037 15.3062C0.622037 15.5474 0.591675 15.8188 0.591675 16.06C0.591675 20.2816 2.32234 24.1112 5.11569 26.8854L7.63578 24.3826C5.48004 22.2718 4.14409 19.3468 4.14409 16.0902Z" fill="url(#paint0_linear_795_10897)"/>
<path d="M15.985 4.33004C16.1976 4.33004 16.3797 4.33004 16.5923 4.3602L16.7744 0.832156C16.5315 0.832156 16.2583 0.802002 16.0154 0.802002C11.7646 0.802002 7.90859 2.52079 5.11523 5.29498L7.63532 7.79778C9.7607 5.65683 12.7362 4.33004 15.985 4.33004Z" fill="url(#paint1_linear_795_10897)"/>
<path d="M15.985 27.8503C15.7724 27.8503 15.5903 27.8503 15.3777 27.8201L15.1956 31.3482C15.4385 31.3482 15.7117 31.3783 15.9546 31.3783C20.2054 31.3783 24.0614 29.6596 26.8548 26.8854L24.3347 24.3826C22.2093 26.5537 19.2641 27.8503 15.985 27.8503Z" fill="url(#paint2_linear_795_10897)"/>
<path d="M22.6646 6.38065L25.6705 4.1794C23.029 2.0686 19.6587 0.771973 15.9849 0.771973V4.30001C18.4746 4.33017 20.7821 5.08402 22.6646 6.38065Z" fill="url(#paint3_linear_795_10897)"/>
<path d="M31.4091 16.0902C31.4091 15.1554 31.318 14.2508 31.1662 13.3462L27.8567 15.7887C27.8567 15.8791 27.8567 15.9998 27.8567 16.0902C27.8567 19.558 26.3386 22.6638 23.9399 24.8048L26.3386 27.4282C29.4356 24.654 31.4091 20.5832 31.4091 16.0902Z" fill="#21A038"/>
<path d="M15.9848 27.8506C12.4931 27.8506 9.36576 26.3429 7.21002 23.9607L4.56848 26.3429C7.3922 29.4488 11.4608 31.3786 15.9848 31.3786V27.8506Z" fill="url(#paint4_linear_795_10897)"/>
<path d="M8.06086 7.37586L5.66222 4.75244C2.53488 7.55678 0.591675 11.5974 0.591675 16.0904H4.14409C4.14409 12.6528 5.66222 9.5168 8.06086 7.37586Z" fill="url(#paint5_linear_795_10897)"/>
</g>
<defs>
<linearGradient id="paint0_linear_795_10897" x1="4.74823" y1="26.4561" x2="1.15667" y2="16.0362" gradientUnits="userSpaceOnUse">
<stop offset="0.1444" stop-color="#F2E913"/>
<stop offset="0.3037" stop-color="#E7E518"/>
<stop offset="0.5823" stop-color="#CADB26"/>
<stop offset="0.891" stop-color="#A3CD39"/>
</linearGradient>
<linearGradient id="paint1_linear_795_10897" x1="6.12785" y1="4.88594" x2="15.3283" y2="1.36689" gradientUnits="userSpaceOnUse">
<stop offset="0.0592" stop-color="#0FA8E0"/>
<stop offset="0.5385" stop-color="#0099F9"/>
<stop offset="0.9234" stop-color="#0291EB"/>
</linearGradient>
<linearGradient id="paint2_linear_795_10897" x1="14.987" y1="28.3688" x2="25.9616" y2="25.8793" gradientUnits="userSpaceOnUse">
<stop offset="0.1226" stop-color="#A3CD39"/>
<stop offset="0.2846" stop-color="#86C339"/>
<stop offset="0.8693" stop-color="#21A038"/>
</linearGradient>
<linearGradient id="paint3_linear_795_10897" x1="15.255" y1="3.02928" x2="24.378" y2="5.85452" gradientUnits="userSpaceOnUse">
<stop offset="0.0566" stop-color="#0291EB"/>
<stop offset="0.79" stop-color="#0C8ACB"/>
</linearGradient>
<linearGradient id="paint4_linear_795_10897" x1="5.47174" y1="26.9159" x2="15.2644" y2="30.5883" gradientUnits="userSpaceOnUse">
<stop offset="0.1324" stop-color="#F2E913"/>
<stop offset="0.2977" stop-color="#EBE716"/>
<stop offset="0.5306" stop-color="#D9E01F"/>
<stop offset="0.8023" stop-color="#BBD62D"/>
<stop offset="0.9829" stop-color="#A3CD39"/>
</linearGradient>
<linearGradient id="paint5_linear_795_10897" x1="3.29473" y1="16.5166" x2="7.17938" y2="6.37392" gradientUnits="userSpaceOnUse">
<stop offset="0.0698" stop-color="#A3CD39"/>
<stop offset="0.2599" stop-color="#81C55F"/>
<stop offset="0.9216" stop-color="#0FA8E0"/>
</linearGradient>
<clipPath id="clip0_795_10897">
<rect width="201" height="33" fill="white" transform="translate(0.5 0.500488)"/>
</clipPath>
</defs>
</svg>
