<svg width="134" height="78" viewBox="0 0 134 78" fill="none" xmlns="http://www.w3.org/2000/svg">
<path d="M51.3258 49C47.1237 49 43.2231 47.7042 40.6193 45.3012C38.6522 43.4857 37.707 41.0197 37.707 38.4816C37.707 35.9743 38.693 33.4913 40.6191 31.6854C43.0372 29.4194 47.3063 28.0002 51.3258 28.0002C55.7739 28.0002 59.334 29.1523 62.0556 31.6916C63.9919 33.4985 64.9281 35.9705 64.9281 38.4818C64.9281 40.916 63.9346 43.5082 62.0556 45.3012C59.5213 47.7198 55.5386 49 51.3258 49V46.2303C53.5561 46.2303 55.625 45.4384 57.0699 43.9602C58.5048 42.492 59.1733 40.6872 59.1733 38.4816C59.1733 36.3686 58.4521 34.3931 57.0699 32.9919C55.6444 31.5481 53.5261 30.7357 51.3258 30.7357C49.1188 30.7357 46.9991 31.5398 45.5724 32.9919C44.1976 34.3926 43.4746 36.3738 43.4746 38.4816C43.4746 40.5828 44.206 42.5629 45.5724 43.9604C47.0003 45.421 49.1125 46.2305 51.3258 46.2305V49.0002V49ZM20.6128 28.0103C18.365 28.0103 15.8114 28.4426 13.6417 29.439C11.6391 30.3578 10 31.8437 10 34.3071C9.99907 36.5257 11.3703 37.8251 11.3331 37.7891C11.9163 38.3412 12.8553 39.2813 15.3101 39.8334C16.4073 40.0801 18.7529 40.459 21.0887 40.71C23.4073 40.9615 25.6891 41.2005 26.6185 41.4424C27.3569 41.6357 28.5973 41.8989 28.5973 43.3298C28.5973 44.7549 27.2905 45.1898 27.0634 45.2842C26.8365 45.3764 25.2689 46.116 22.4509 46.116C20.3704 46.116 17.8691 45.4727 16.9574 45.1374C15.9065 44.7527 14.804 44.244 13.7756 42.9523C13.5198 42.6321 13.1164 41.7514 13.1164 40.8793H10.566V48.2276H13.4008V47.2348C13.4008 47.1217 13.5382 46.6569 14.0141 46.8779C14.6062 47.1546 16.3444 47.8661 18.1617 48.2563C19.6518 48.5768 20.6126 48.8065 22.4651 48.8065C25.4876 48.8065 27.1114 48.3001 28.2339 47.9706C29.2914 47.6592 30.5982 47.1002 31.6596 46.2298C32.2345 45.7592 33.4951 44.5527 33.4951 42.3629C33.4951 40.2609 32.398 38.9563 32.012 38.5594C31.4863 38.0186 30.8441 37.5994 30.1749 37.2763C29.5919 36.9942 28.6718 36.6553 27.919 36.4658C26.4578 36.097 23.1539 35.6419 21.5739 35.4718C19.9171 35.2939 17.0429 35.0491 15.895 34.6838C15.547 34.573 14.8375 34.2254 14.8375 33.3785C14.8375 32.7761 15.162 32.2655 15.8033 31.8528C16.8212 31.197 18.8773 30.7894 21.0205 30.7894C23.5543 30.7798 25.7001 31.3755 27.065 32.003C27.5293 32.2161 28.0725 32.5222 28.5039 32.8844C28.9907 33.2925 29.6741 34.1406 29.9213 35.3236H32.211V28.9272H29.6543V29.6706C29.6543 29.9106 29.4132 30.2224 28.9574 29.9647C27.8132 29.3475 24.5783 28.0158 20.6124 28.0103H20.6128ZM76.6408 29.1727L89.1125 40.7459L88.9844 32.9538C88.9718 31.9321 88.7887 31.5055 87.7139 31.5055H85.369V29.1746H96.0326V31.5055H93.7452C92.6491 31.5055 92.5799 31.866 92.5666 32.9538L92.7599 47.8427H89.108L74.7431 34.6599L74.7462 44.0157C74.7588 45.0327 74.8051 45.5117 75.8242 45.5117H78.3853V47.8417H67.9127V45.512H70.3608C71.2753 45.512 71.2389 44.6155 71.2389 43.9628V33.0425C71.2389 32.3376 71.1427 31.5072 69.7069 31.5072H67.7205V29.1727H76.6408ZM108.218 45.5074C108.318 45.5074 108.763 45.4943 108.849 45.4672C109.095 45.3882 109.262 45.2076 109.34 45.0193C109.372 44.9403 109.389 44.5906 109.389 44.5146L109.391 40.8309C109.391 40.7423 109.384 40.704 109.238 40.5066C109.077 40.2911 102.705 32.8662 102.414 32.5393C102.052 32.1333 101.416 31.5058 100.449 31.5058H98.2336V29.1739H110.739V31.5029H109.231C108.883 31.5029 108.651 31.843 108.949 32.2209C108.949 32.2209 113.156 37.3961 113.196 37.4502C113.235 37.5053 113.269 37.5185 113.322 37.4682C113.375 37.4167 117.635 32.2684 117.669 32.2276C117.872 31.9781 117.734 31.5055 117.297 31.5055H115.751V29.1739H126V31.5055H123.71C122.88 31.5055 122.542 31.6636 121.917 32.39C121.631 32.7225 115.191 40.2808 115.016 40.4856C114.924 40.5926 114.932 40.7418 114.932 40.8305V44.5137C114.932 44.5884 114.948 44.9386 114.981 45.0171C115.059 45.2064 115.226 45.387 115.472 45.465C115.559 45.4923 115.997 45.5058 116.097 45.5058H118.44V47.8372H105.999V45.5055L108.218 45.5074H108.218Z" fill="white"/>
</svg>
