<svg width="134" height="78" viewBox="0 0 134 78" fill="none" xmlns="http://www.w3.org/2000/svg">
<path d="M28.9021 29.0043C22.9475 29.0043 20.0916 30.03 19.6771 35.2854C19.5891 36.5243 19.5472 37.7633 19.5682 39.0023C19.5682 40.2002 19.5891 41.4597 19.6771 42.7192C20.0916 47.9746 22.9475 49.0002 28.8812 49.0002C34.8358 49.0002 37.7126 47.9746 38.1063 42.7192C38.2151 41.4597 38.2361 40.1961 38.2361 39.0023C38.2361 37.8084 38.2151 36.5449 38.1063 35.2854C37.7126 30.03 34.8358 29.0043 28.9021 29.0043ZM50.0574 29.0043C47.7668 29.0043 45.4763 29.2177 44.5592 29.6649C42.7502 30.5182 41.5065 31.7367 41.5065 35.2402C41.5065 37.2915 42.0718 38.83 43.1438 39.5972C44.7141 40.75 46.2426 40.8567 50.451 41.07C52.1721 41.1561 53.0891 41.4967 53.0891 42.9285C53.0891 44.7459 51.4518 44.7459 49.9276 44.7459C48.3782 44.7459 47.9008 44.6187 47.3774 44.2126C46.8958 43.872 46.7869 43.2526 46.7869 42.309H41.4646C41.4646 44.9797 41.5316 47.1582 44.1028 48.2495C46.3933 49.2341 53.4158 49.2341 55.5304 48.3151C57.3646 47.5233 58.6711 46.4772 58.6711 42.8874C58.6711 40.4095 58.1686 38.871 56.2046 37.7387C54.8311 36.9264 50.9284 36.8197 48.9644 36.6926C47.5239 36.6064 46.9796 36.0936 46.9796 34.8341C46.9796 33.2095 48.5708 33.1684 49.9443 33.1684C51.0582 33.1684 51.8413 33.2546 52.3856 33.7223C52.6034 33.9356 52.8672 34.2761 52.8881 35.4084H58.1644C58.1644 33.1849 58.0764 30.7725 55.6351 29.6608C54.6553 29.2341 52.3438 29.0002 50.0532 29.0002L50.0574 29.0043ZM62.3812 29.3449V48.6597H67.9212V41.2013H74.3784V48.6597H79.9394V29.3449H74.3784V36.3972H67.9212V29.3449H62.3812ZM84.822 29.3449V48.6597H90.4291V29.3449H84.822ZM95.3996 29.3449V48.6597H105.935C110.776 48.6597 112.413 46.6084 112.413 43.4454C112.413 41.2669 111.89 39.3223 108.816 38.5715C111.304 37.9315 112.024 36.4792 112.024 34.3828C112.024 30.1531 109.319 29.3408 105.437 29.3408L95.3996 29.3449ZM119.804 29.3449L113.85 48.6597H119.628L120.675 45.07H127.153L128.221 48.6597H134L128.024 29.3449H119.804ZM0.0041875 29.3449V34.1736H5.89181V48.6597H11.7794V34.1736H17.6671V29.3654H0L0.0041875 29.3449ZM28.9021 33.509C31.2346 33.509 32.4364 33.8741 32.5871 36.8443C32.6081 37.3161 32.629 37.9356 32.629 39.0023C32.629 40.069 32.6081 40.6884 32.5871 41.1602C32.4364 44.1305 31.2346 44.4956 28.9021 44.4956C26.5697 44.4956 25.3469 44.1305 25.2171 41.1602C25.1697 40.4419 25.1557 39.7219 25.1753 39.0023C25.1753 37.9356 25.1752 37.3161 25.2171 36.8443C25.3469 33.8741 26.5697 33.509 28.9021 33.509ZM100.94 33.7674H104.801C105.806 33.7674 106.438 34.2392 106.438 35.3715C106.438 36.3315 105.806 36.91 104.801 36.91H100.94V33.7674ZM123.908 34.1079H123.929L125.914 40.7951H121.944L123.908 34.1079ZM100.961 40.7131H104.801C106.371 40.7131 106.677 41.3982 106.677 42.4854C106.677 43.5726 106.065 44.2372 104.801 44.2372H100.94V40.7131H100.961Z" fill="white"/>
</svg>
