<svg width="134" height="78" viewBox="0 0 134 78" fill="none" xmlns="http://www.w3.org/2000/svg">
<path fill-rule="evenodd" clip-rule="evenodd" d="M87.4354 25.0003C85.2969 27.1615 84 29.0418 84 34.5158V51.3923H88.6842V34.2824C88.6842 31.5954 88.8774 30.3029 90.2271 28.897L87.4354 25.0003ZM68.6302 45.9214C71.2278 49.8581 74.4983 51.3136 78.0826 51.3136V47.0159C75.5605 47.0159 73.814 45.6166 71.9874 42.762C71.3016 41.6958 70.5617 40.52 69.7588 39.2441C68.4091 37.0992 66.8813 34.6714 65.1326 32.0053C62.356 27.7505 58.9781 25.8312 55.0082 25.8312C51.0299 25.8312 47.6558 27.7505 44.8848 32.0053C43.0908 34.7462 41.5262 37.2353 40.1505 39.424C39.392 40.6307 38.6909 41.7461 38.0404 42.762C36.2016 45.6166 34.4476 46.9749 31.9292 46.9749C29.4127 46.9749 27.6606 45.6166 25.8321 42.762C24.7629 41.105 23.6177 39.3683 22.3014 37.3721C21.347 35.9247 20.3025 34.3409 19.1319 32.5521C16.3543 28.2991 12.9764 26.377 9 26.377V30.7537C11.7559 30.7537 13.3572 32.1301 15.0744 34.698C16.0716 36.1988 17.4871 38.3502 19.0009 40.6508C20.1484 42.3947 21.3522 44.2244 22.4731 45.9214C25.0744 49.8581 28.3383 51.3136 31.9292 51.3136C35.5305 51.3136 38.7887 49.8581 41.3891 45.9214C42.7174 43.9059 44.2046 41.5596 45.5767 39.3949L45.5768 39.3948C46.884 37.3326 48.0867 35.4352 48.948 34.1456C50.652 31.5757 52.2599 30.2527 55.0082 30.2527C57.7613 30.2527 59.3617 31.5757 61.0676 34.1456C61.9155 35.4166 63.096 37.278 64.3819 39.3057L64.3824 39.3064L64.3826 39.3067C65.7708 41.4957 67.2819 43.8785 68.6302 45.9214ZM58.7362 43.0925C58.7362 45.0547 57.166 46.6492 55.2179 46.6492C53.2716 46.6492 51.6967 45.0547 51.6967 43.0925C51.6967 41.1294 53.2716 39.534 55.2179 39.534C57.166 39.534 58.7362 41.1294 58.7362 43.0925ZM120.333 38.5711C120.333 43.5242 116.471 47.5409 111.711 47.5409C106.944 47.5409 103.087 43.5242 103.087 38.5711C103.087 33.6133 106.944 29.5976 111.711 29.5976C116.471 29.5976 120.333 33.6133 120.333 38.5711ZM111.711 25.1398C104.371 25.1398 98.4233 31.152 98.4233 38.5711C98.4233 45.9835 104.371 52.0005 111.711 52.0005C119.05 52.0005 125 45.9835 125 38.5711C125 31.152 119.05 25.1398 111.711 25.1398Z" fill="white"/>
</svg>
