<svg width="66" height="22" viewBox="0 0 66 22" fill="none" xmlns="http://www.w3.org/2000/svg">
<path d="M28.5999 21.1974H23.2534L26.5975 0.868896H31.9437L28.5999 21.1974Z" fill="#00579F"/>
<path d="M47.9817 1.36596C46.9272 0.954636 45.2546 0.500488 43.1864 0.500488C37.9065 0.500488 34.1885 3.26849 34.1657 7.22589C34.1218 10.1457 36.8277 11.7674 38.8514 12.7409C40.9199 13.7357 41.6231 14.385 41.6231 15.2718C41.602 16.6336 39.9516 17.2614 38.4123 17.2614C36.2778 17.2614 35.134 16.9377 33.3959 16.1801L32.6919 15.8553L31.9437 20.4186C33.1977 20.9802 35.508 21.4786 37.9065 21.5005C43.5164 21.5005 47.1687 18.7753 47.2119 14.5581C47.2333 12.2439 45.8045 10.4707 42.7241 9.02179C40.8542 8.09165 39.709 7.46446 39.709 6.51277C39.7309 5.64759 40.6776 4.76142 42.7884 4.76142C44.5266 4.71802 45.8036 5.12877 46.7711 5.5398L47.2546 5.75566L47.9817 1.36596Z" fill="#00579F"/>
<path d="M55.0873 13.9958C55.5276 12.8279 57.2219 8.308 57.2219 8.308C57.1997 8.3514 57.6613 7.11859 57.9253 6.36178L58.299 8.11341C58.299 8.11341 59.3114 12.9794 59.5313 13.9958C58.6957 13.9958 56.1433 13.9958 55.0873 13.9958ZM61.6869 0.868896H57.5514C56.2761 0.868896 55.3072 1.23624 54.7569 2.55556L46.8154 21.1972H52.4253C52.4253 21.1972 53.3489 18.6881 53.5474 18.1478C54.1629 18.1478 59.6201 18.1478 60.4119 18.1478C60.5654 18.8615 61.0498 21.1972 61.0498 21.1972H66.0001L61.6869 0.868896Z" fill="#00579F"/>
<path d="M18.7879 0.868896L13.5519 14.731L12.9798 11.9196C12.0117 8.67563 8.97582 5.1511 5.58789 3.39861L10.3839 21.1759H16.0376L24.4414 0.868896H18.7879Z" fill="#00579F"/>
<path d="M8.68998 0.868896H0.0880016L0 1.27964C6.71008 2.9666 11.154 7.03294 12.9799 11.9205L11.1099 2.5777C10.802 1.27935 9.85593 0.911724 8.68998 0.868896Z" fill="#FAA61A"/>
</svg>
