<svg width="102" height="74" viewBox="0 0 102 74" fill="none" xmlns="http://www.w3.org/2000/svg">
<path d="M83.2957 38.8351H75.4353V33.2428C75.4353 30.2401 72.9772 27.7883 69.9358 27.7883H25.3981C24.8287 27.7883 24.3566 28.2566 24.3566 28.8213C24.3566 29.3861 24.8287 29.8544 25.3981 29.8544H69.9219C71.7967 29.8544 73.3383 31.3696 73.3383 33.2428V38.8351H68.8109C63.9363 38.8351 59.9784 42.7607 59.9784 47.5954C59.9784 52.4302 63.9363 56.3558 68.8109 56.3558H80.0182V61.9481C80.0182 67.4715 75.4908 71.9618 69.9219 71.9618H19.8292C18.5654 71.9618 17.5377 70.9426 17.5377 69.6891V67.4164H69.9358C72.9633 67.4164 75.4353 64.9784 75.4353 61.9618V59.758C75.4353 59.1932 74.9631 58.7249 74.3937 58.7249C73.8243 58.7249 73.3521 59.1932 73.3521 59.758V61.9618C73.3521 63.8213 71.8245 65.3503 69.9358 65.3503H17.5377V29.8544H20.9541C21.5235 29.8544 21.9957 29.3861 21.9957 28.8213C21.9957 28.2566 21.5235 27.7883 20.9541 27.7883H17.5377V25.5156C17.5377 24.2621 18.5654 23.2428 19.8292 23.2428H69.9219C75.4908 23.2428 80.0182 27.7332 80.0182 33.2566V35.4605C80.0182 36.0252 80.4904 36.4935 81.0598 36.4935C81.6292 36.4935 82.1014 36.0252 82.1014 35.4605V33.2566C82.1014 29.51 80.3654 26.1492 77.6434 23.9315V13.3668C77.6434 12.8021 77.1712 12.3337 76.6019 12.3337H20.9541C20.3847 12.3337 19.9125 12.8021 19.9125 13.3668V21.1629H19.8431C17.4266 21.1629 15.4546 23.1051 15.4546 25.5018V69.6616C15.4546 72.0583 17.4266 74.0004 19.8292 74.0004H69.9219C76.6296 74.0004 82.1014 68.5872 82.1014 61.9205V56.3282H83.2818C85.0872 56.3282 86.5454 54.8682 86.5454 53.0913V42.072C86.5593 40.2814 85.0872 38.8351 83.2957 38.8351ZM75.5742 14.3999V22.5404C74.8242 22.1547 74.0326 21.8379 73.1994 21.6037V17.7745C73.1994 17.2098 72.7272 16.7415 72.1578 16.7415H21.9957V14.3999H75.5742ZM21.9957 18.8076H71.1162V21.218C70.7274 21.1767 70.3246 21.1629 69.9358 21.1629H21.9957V18.8076ZM84.4762 53.1051C84.4762 53.7525 83.9484 54.2759 83.2957 54.2759H68.8248C65.1029 54.2759 62.0754 51.2731 62.0754 47.5817C62.0754 43.8902 65.1029 40.8875 68.8248 40.8875H83.2957C83.9484 40.8875 84.4762 41.4109 84.4762 42.0583V53.1051Z" fill="#E7742E"/>
<path d="M68.8248 43.2429C66.4084 43.2429 64.4502 45.1988 64.4502 47.5818C64.4502 49.9647 66.4222 51.9206 68.8248 51.9206C71.2274 51.9206 73.1994 49.9647 73.1994 47.5818C73.1994 45.1988 71.2413 43.2429 68.8248 43.2429ZM68.8248 49.8683C67.561 49.8683 66.5333 48.849 66.5333 47.5955C66.5333 46.3421 67.561 45.3228 68.8248 45.3228C70.0886 45.3228 71.1163 46.3421 71.1163 47.5955C71.1163 48.849 70.0886 49.8683 68.8248 49.8683Z" fill="#E7742E"/>
</svg>
