<svg width="139" height="34" viewBox="0 0 139 34" fill="none" xmlns="http://www.w3.org/2000/svg">
<g clip-path="url(#clip0_796_11460)">
<path d="M122.679 0.966553C125.2 0.966553 127.599 1.52651 129.751 2.52816C130.089 2.6758 130.429 2.85251 130.765 3.02938L129.289 4.29678L127.076 2.08663L123.264 5.32782L121.018 2.99954L114.007 9.0407L118.496 13.7851L116.744 15.2581L121.172 20.0025L119.42 21.4749L125.755 28.2232L129.504 24.9226L132.765 28.4597C132.119 28.9312 131.411 29.4037 130.644 29.8155C128.306 31.0825 125.6 31.8178 122.71 31.8178C113.822 31.8178 106.597 24.8943 106.597 16.3789C106.565 7.92108 113.792 0.966553 122.679 0.966553ZM119.726 15.4353L123.57 12.1347L127.015 15.8181L123.17 19.1183L119.726 15.4353ZM122.464 21.8005L126.276 18.4707L129.751 22.1537L125.907 25.4544L122.464 21.8005ZM116.991 9.15897L120.834 5.85841L124.278 9.54175L120.434 12.8422L116.991 9.15897ZM124.031 7.39034L126.891 4.9152L129.475 7.65578L126.615 10.1602L124.031 7.39034ZM129.136 18.7354L131.995 16.2601L134.579 19.0293L131.719 21.5061L129.136 18.7354ZM131.657 24.3053L134.518 21.8295L137.099 24.57L134.24 27.074L131.657 24.3053ZM132.826 11.5747L134.732 9.92439L136.454 11.7521L134.548 13.4018L132.826 11.5747ZM130.366 6.12324L132.273 4.44397L133.995 6.3001L132.087 7.9503L130.366 6.12324ZM135.255 17.0267L137.161 15.3765L138.914 17.2036L136.978 18.8533L135.255 17.0267ZM126.676 12.9306L129.536 10.4553L132.119 13.1953L129.26 15.671L126.676 12.9306Z" fill="#036CB5"/>
<mask id="mask0_796_11460" style="mask-type:alpha" maskUnits="userSpaceOnUse" x="0" y="7" width="17" height="15">
<path d="M0.0859375 7.37671V21.6201H16.8932V7.37671H0.0859375Z" fill="white"/>
</mask>
<g mask="url(#mask0_796_11460)">
<path d="M8.52067 11.5943H8.37563L5.65261 21.6201H3.42693L0.0859375 7.37671H2.3952L4.70502 18.0046H4.84926L7.52967 7.37671H9.36561L12.2322 18.0046H12.3765L14.4803 7.37671H16.8932L13.5514 21.6201H11.324L8.52067 11.5943Z" fill="#036CB5"/>
</g>
<path d="M19.8231 15.5564H24.5446C24.4422 13.4476 23.3899 12.6046 22.2767 12.6046C21.0188 12.6046 20.049 13.5486 19.8231 15.5564ZM26.1942 19.3343V20.8613C25.2664 21.3835 24.0297 21.7856 22.5441 21.7856C19.0805 21.7856 17.6577 19.6962 17.6577 16.5225C17.6577 13.4677 19.2452 11.2578 22.3386 11.2578C24.9156 11.2578 26.5045 12.8861 26.5045 16.1599V16.9033H19.7818C19.7818 19.3133 20.7916 20.3783 22.9165 20.3783C24.0297 20.3783 25.0608 19.996 26.1942 19.3343Z" fill="#036CB5"/>
<path d="M31.301 20.1747C31.961 20.4559 32.6833 20.4976 33.1997 20.4976C34.7254 20.4976 35.879 19.5721 35.879 16.3185C35.879 13.7672 34.9305 12.9434 33.5494 12.9434C32.7239 12.9434 32.1261 13.1651 31.301 13.6062V20.1747ZM31.3227 12.12C31.9398 11.7996 32.9913 11.3763 34.1053 11.3763C36.6627 11.3763 38.0446 13.1039 38.0446 16.3185C38.0446 20.0754 36.1883 21.9036 33.1997 21.9036C32.1059 21.9036 30.415 21.5619 29.177 20.9177V6.89677L31.3227 6.39526V12.12Z" fill="#036CB5"/>
<path d="M47.326 18.5979H47.4293L51.8415 7.36792H54.3999V21.6123H52.1728V11.2857H51.9869L47.7794 21.6123H46.4609L42.2525 11.5271H42.0676V21.6123H40.2114V7.36792H42.7074L47.326 18.5979Z" fill="#036CB5"/>
<path d="M63.499 16.5219C63.499 13.8101 62.3657 12.6655 60.9634 12.6655C59.6029 12.6655 58.4264 13.8101 58.4264 16.5219C58.4264 19.2745 59.5001 20.3783 60.9634 20.3783C62.4268 20.3783 63.499 19.2745 63.499 16.5219ZM56.262 16.5219C56.262 13.005 58.2422 11.2578 60.9634 11.2578C63.6864 11.2578 65.6655 13.005 65.6655 16.5219C65.6655 19.9565 63.789 21.7856 60.9634 21.7856C58.1384 21.7856 56.262 19.9565 56.262 16.5219Z" fill="#036CB5"/>
<path d="M67.2966 12.7455C68.2245 12.2023 70.1844 11.2578 72.5553 11.2578C75.0297 11.2578 75.956 12.2023 75.956 14.2709V21.5443H73.8129V14.7336C73.8129 13.1469 73.01 12.8656 71.957 12.8656C71.1331 12.8656 70.0801 13.2278 69.4414 13.5893V21.5443H67.2966V12.7455Z" fill="#036CB5"/>
<path d="M80.4954 15.5564H85.2173C85.1158 13.4476 84.0629 12.6046 82.9493 12.6046C81.6911 12.6046 80.7231 13.5486 80.4954 15.5564ZM86.8666 19.3343V20.8613C85.9392 21.3835 84.7018 21.7856 83.2168 21.7856C79.7543 21.7856 78.3306 19.6962 78.3306 16.5225C78.3306 13.4677 79.9175 11.2578 83.0111 11.2578C85.5897 11.2578 87.1783 12.8861 87.1783 16.1599V16.9033H80.4548C80.4548 19.3133 81.4654 20.3783 83.5894 20.3783C84.7018 20.3783 85.7345 19.996 86.8666 19.3343Z" fill="#036CB5"/>
<path d="M95.7436 11.2578H97.9506L94.2178 21.3012C93.1853 24.0737 91.9288 25.5203 89.5578 25.5203V23.8741C90.9609 23.8741 91.8256 22.7887 92.3217 21.3012L88.3621 11.2578H90.6308L93.2702 18.6505H93.3939L95.7436 11.2578Z" fill="#036CB5"/>
<path d="M22.3601 30.8784V30.0109C23.1248 30.3873 23.8525 30.5762 24.542 30.5762C25.1162 30.5762 25.5562 30.4742 25.8635 30.2681C26.171 30.0634 26.3249 29.7866 26.3249 29.4367C26.3249 29.087 26.1985 28.8246 25.9456 28.65C25.6933 28.4758 25.2217 28.2599 24.5319 28.0043C24.2925 27.917 24.1396 27.8603 24.0705 27.8332C24.0026 27.8069 23.8694 27.7524 23.671 27.6721C23.4731 27.5919 23.3434 27.5309 23.2822 27.4908C23.2205 27.4493 23.1167 27.3886 22.9695 27.309C22.8228 27.2275 22.7239 27.1557 22.6723 27.093C22.6217 27.0285 22.5512 26.9469 22.4623 26.8496C22.3737 26.7526 22.3137 26.6562 22.2829 26.558C22.2524 26.4607 22.223 26.3481 22.196 26.22C22.1689 26.0918 22.155 25.9544 22.155 25.8065C22.155 25.2349 22.3721 24.7756 22.8055 24.4255C23.2396 24.0767 23.8385 23.9019 24.6037 23.9019C25.2796 23.9019 25.9529 24.0226 26.6217 24.2648V25.1816C25.973 24.872 25.3241 24.7187 24.6752 24.7187C24.2177 24.7187 23.8762 24.8113 23.6508 24.9993C23.4254 25.1873 23.3126 25.4361 23.3126 25.7457C23.3126 26.0753 23.4254 26.3251 23.6508 26.4969C23.8762 26.6694 24.2794 26.8592 24.8601 27.067C25.8568 27.4233 26.5435 27.7458 26.9188 28.0353C27.2947 28.3234 27.4824 28.7548 27.4824 29.3254C27.4824 29.9242 27.2246 30.4136 26.7089 30.7934C26.1932 31.1731 25.4849 31.3631 24.5831 31.3631C23.757 31.3631 23.0157 31.2009 22.3601 30.8784ZM32.7841 31.2104H31.811L31.7392 30.6257C31.1513 31.0967 30.5643 31.3323 29.9769 31.3323C29.4854 31.3323 29.1045 31.2032 28.835 30.9437C28.5647 30.685 28.43 30.3582 28.43 29.9606C28.43 29.7519 28.4691 29.5526 28.5478 29.3609C28.6265 29.169 28.7563 28.9831 28.9371 28.8017C29.118 28.6199 29.3912 28.4741 29.7564 28.3627C30.1217 28.2512 30.5609 28.1961 31.0733 28.1961H31.7086V27.9239C31.7086 27.4737 31.6232 27.1671 31.4524 27.0015C31.2812 26.8368 30.9945 26.7544 30.5917 26.7544C30.1 26.7544 29.4954 26.9518 28.7785 27.3494V26.543C29.5162 26.2138 30.2399 26.0478 30.9501 26.0478C31.6397 26.0478 32.1183 26.1864 32.3842 26.4625C32.6509 26.7375 32.7841 27.1548 32.7841 27.7114V31.2104ZM31.7189 28.9016H31.1755C30.0552 28.9016 29.4954 29.2279 29.4954 29.8801C29.4954 30.1095 29.5702 30.2741 29.7207 30.3789C29.8713 30.4834 30.0591 30.5349 30.2847 30.5349C30.5709 30.5349 30.8478 30.4676 31.1142 30.3328C31.3805 30.1993 31.5823 30.0447 31.7189 29.8699V28.9016ZM34.4488 33.2276V26.7853C34.7495 26.5629 35.1041 26.384 35.5143 26.2499C35.9244 26.1164 36.3267 26.0478 36.7234 26.0478C38.1434 26.0478 38.8541 26.8918 38.8541 28.5797C38.8541 29.4534 38.6698 30.1223 38.3007 30.5853C37.932 31.0496 37.4032 31.2805 36.7128 31.2805C36.2346 31.2805 35.835 31.1628 35.5143 30.9291V33.2276H34.4488ZM35.5041 27.127V30.1832C35.6407 30.3103 35.8129 30.405 36.0213 30.4693C36.2298 30.5331 36.4126 30.5649 36.5695 30.5649C36.9449 30.5649 37.2407 30.4229 37.4559 30.1373C37.671 29.8511 37.7781 29.3319 37.7781 28.5797C37.7781 27.968 37.6677 27.5197 37.4457 27.239C37.2237 26.9556 36.9348 26.8152 36.5796 26.8152C36.1772 26.8152 35.8187 26.9188 35.5041 27.127ZM41.2976 26.0996V31.2104H40.2322V26.3512L41.2976 26.0996ZM40.0681 24.6166C40.0681 24.4352 40.1381 24.2761 40.2779 24.1375C40.4184 23.9998 40.5806 23.9306 40.7643 23.9306C40.9492 23.9306 41.1114 23.9998 41.2517 24.1375C41.3917 24.2761 41.4616 24.4352 41.4616 24.6166C41.4616 24.7981 41.3917 24.9583 41.2517 25.0966C41.1114 25.2331 40.9492 25.3022 40.7643 25.3022C40.5806 25.3022 40.4184 25.2331 40.2779 25.0966C40.1381 24.9583 40.0681 24.7981 40.0681 24.6166ZM45.2879 30.6257C45.78 30.6257 46.3224 30.4508 46.9168 30.102V30.8682C46.3706 31.1778 45.7661 31.3323 45.1036 31.3323C44.2703 31.3323 43.6576 31.1002 43.2648 30.6362C42.872 30.172 42.6756 29.5238 42.6756 28.6903C42.6756 27.8967 42.8773 27.2575 43.2797 26.7751C43.6831 26.2912 44.2564 26.0478 45.0008 26.0478C45.657 26.0478 46.1651 26.2567 46.528 26.674C46.8898 27.0913 47.0703 27.7021 47.0703 28.5085V28.8821H43.7309C43.7309 29.4806 43.8573 29.9214 44.1097 30.202C44.3625 30.4855 44.7553 30.6257 45.2879 30.6257ZM44.97 26.7245C44.6495 26.7245 44.3794 26.849 44.1608 27.0967C43.9426 27.3458 43.8057 27.7162 43.7511 28.2054H46.0971C46.0696 27.7087 45.9504 27.3383 45.7385 27.093C45.5272 26.847 45.271 26.7245 44.97 26.7245ZM48.4276 31.2104V26.7948C49.2676 26.297 50.1385 26.0478 51.0405 26.0478C51.6483 26.0478 52.0816 26.1697 52.3412 26.4119C52.6008 26.6541 52.7306 27.0369 52.7306 27.5607V31.2104H51.6653V27.7928C51.6653 27.4233 51.5866 27.1743 51.4297 27.0473C51.2725 26.9188 51.0439 26.8554 50.7431 26.8554C50.3335 26.8554 49.9167 26.9769 49.4935 27.2186V31.2104H48.4276ZM55.4095 26.2912H57.0283L56.7721 26.9769H55.4095V29.6379C55.4095 30.3103 55.7033 30.6463 56.2905 30.6463C56.5159 30.6463 56.7446 30.5997 56.9776 30.5053V31.15C56.6564 31.2713 56.2736 31.3323 55.8298 31.3323C55.3174 31.3323 54.9419 31.1891 54.7026 30.9026C54.4637 30.6182 54.3441 30.243 54.3441 29.7781V25.625L55.4095 24.868V26.2912ZM59.1138 26.0996V31.2104H58.0479V26.3512L59.1138 26.0996ZM57.8843 24.6166C57.8843 24.4352 57.9543 24.2761 58.0936 24.1375C58.2336 23.9998 58.3957 23.9306 58.5806 23.9306C58.7648 23.9306 58.9274 23.9998 59.067 24.1375C59.2073 24.2761 59.2773 24.4352 59.2773 24.6166C59.2773 24.7981 59.2073 24.9583 59.067 25.0966C58.9274 25.2331 58.7648 25.3022 58.5806 25.3022C58.3957 25.3022 58.2336 25.2331 58.0936 25.0966C57.9543 24.9583 57.8843 24.7981 57.8843 24.6166ZM66.3668 26.452V27.2575C65.8544 26.9218 65.3352 26.7544 64.8098 26.7544C64.5434 26.7544 64.3249 26.8048 64.1536 26.9059C63.9832 27.006 63.8977 27.168 63.8977 27.3886C63.8977 27.5982 63.9914 27.764 64.1792 27.8883C64.3671 28.013 64.6626 28.139 65.0659 28.2659C65.2913 28.3399 65.4601 28.3975 65.5725 28.4375C65.6856 28.4788 65.8337 28.5462 66.0184 28.6396C66.2027 28.7342 66.3413 28.8274 66.4333 28.9222C66.5255 29.0166 66.6091 29.1402 66.6845 29.2954C66.7596 29.4499 66.7967 29.6208 66.7967 29.8091C66.7967 30.2733 66.6072 30.6428 66.2287 30.9185C65.8496 31.194 65.3421 31.3323 64.7073 31.3323C63.9967 31.3323 63.4056 31.1844 62.9346 30.8877V30.102C63.5355 30.4508 64.0854 30.6257 64.5845 30.6257C65.3352 30.6257 65.7111 30.3844 65.7111 29.8999C65.7111 29.8062 65.6888 29.7181 65.6445 29.6379C65.6 29.5573 65.5489 29.4918 65.491 29.4412C65.4326 29.3908 65.3386 29.3339 65.2088 29.2691C65.0789 29.2065 64.97 29.1597 64.881 29.1289C64.7924 29.0989 64.6524 29.0501 64.4614 28.9831C64.1811 28.8821 63.9592 28.7951 63.795 28.7207C63.6309 28.6462 63.4675 28.5507 63.3035 28.4336C63.1393 28.3159 63.0195 28.1755 62.945 28.0147C62.87 27.8539 62.8324 27.6617 62.8324 27.4402C62.8324 27.1577 62.9005 26.9165 63.0371 26.7153C63.1736 26.5122 63.3515 26.3678 63.5697 26.2808C63.7882 26.1931 63.988 26.1322 64.169 26.0996C64.3503 26.0649 64.5294 26.0478 64.7073 26.0478C65.288 26.0478 65.841 26.1825 66.3668 26.452ZM72.0268 31.2104H71.0538L70.9817 30.6257C70.3939 31.0967 69.8071 31.3323 69.22 31.3323C68.7283 31.3323 68.3474 31.2032 68.0776 30.9437C67.8075 30.685 67.6729 30.3582 67.6729 29.9606C67.6729 29.7519 67.7121 29.5526 67.7908 29.3609C67.8693 29.169 67.9991 28.9831 68.1801 28.8017C68.3616 28.6199 68.634 28.4741 68.9994 28.3627C69.365 28.2512 69.8041 28.1961 70.3156 28.1961H70.9515V27.9239C70.9515 27.4737 70.8657 27.1671 70.6958 27.0015C70.524 26.8368 70.2373 26.7544 69.835 26.7544C69.3429 26.7544 68.7383 26.9518 68.0214 27.3494V26.543C68.7592 26.2138 69.4828 26.0478 70.193 26.0478C70.8832 26.0478 71.3606 26.1864 71.6272 26.4625C71.8934 26.7375 72.0268 27.1548 72.0268 27.7114V31.2104ZM70.9623 28.9016H70.4187C69.2984 28.9016 68.7383 29.2279 68.7383 29.8801C68.7383 30.1095 68.8135 30.2741 68.9636 30.3789C69.1142 30.4834 69.3014 30.5349 69.5273 30.5349C69.8139 30.5349 70.0898 30.4676 70.3571 30.3328C70.6234 30.1993 70.8252 30.0447 70.9623 29.8699V28.9016ZM74.7064 26.2912H76.3249L76.0681 26.9769H74.7064V29.6379C74.7064 30.3103 74.9998 30.6463 75.5865 30.6463C75.8122 30.6463 76.0402 30.5997 76.2735 30.5053V31.15C75.9523 31.2713 75.5704 31.3323 75.1251 31.3323C74.6138 31.3323 74.2383 31.1891 73.9992 30.9026C73.7599 30.6182 73.64 30.243 73.64 29.7781V25.625L74.7064 24.868V26.2912Z" fill="#B6B6B6"/>
</g>
<defs>
<clipPath id="clip0_796_11460">
<rect width="138" height="33" fill="white" transform="translate(0.5 0.500488)"/>
</clipPath>
</defs>
</svg>
