<svg width="134" height="78" viewBox="0 0 134 78" fill="none" xmlns="http://www.w3.org/2000/svg">
<path fill-rule="evenodd" clip-rule="evenodd" d="M35.5815 73.0002H98.4185C99.8442 73.0002 101 71.8445 101 70.4188V7.58107C101 6.1553 99.8442 5.00025 98.4185 5.00025H35.5815C34.1557 5.00025 33 6.1553 33 7.58107V70.4188C33 71.8445 34.1557 73.0002 35.5815 73.0002ZM80.9716 26.3889H86.3213C86.5484 26.3889 86.7364 26.5712 86.7364 26.7957V51.2044C86.7364 51.4269 86.5484 51.6091 86.3213 51.6091H80.9716C80.7425 51.6091 80.5571 51.4269 80.5571 51.2044V26.7957C80.5571 26.5712 80.7425 26.3889 80.9716 26.3889ZM68.0549 26.3848H47.6771C47.4481 26.3848 47.2639 26.567 47.2639 26.7915V51.2002C47.2639 51.4228 47.4481 51.605 47.6771 51.605H53.0282C53.2559 51.605 53.4446 51.4228 53.4446 51.2002V32.043C53.4446 31.8217 53.6288 31.6382 53.8578 31.6382H65.3843C68.6256 31.6382 69.5458 34.1208 69.5458 35.7223V51.2002C69.5458 51.4228 69.7319 51.605 69.9609 51.605H75.3087C75.5365 51.605 75.7232 51.4228 75.7232 51.2002V33.8846C75.7232 32.4562 75.5514 30.4025 73.7085 28.5947C71.7804 26.7076 70.0215 26.3848 68.0549 26.3848ZM58.6898 36.1097H64.3076C64.5347 36.1097 64.7208 36.2919 64.7208 36.5151V51.205C64.7208 51.4269 64.5347 51.6091 64.3076 51.6091H58.6898C58.4608 51.6091 58.2727 51.4269 58.2727 51.205V36.5151C58.2727 36.2919 58.4608 36.1097 58.6898 36.1097Z" fill="white"/>
</svg>
